M48
; DRILL file {KiCad 9.0.2} date 2025-06-27T21:47:47+0100
; FORMAT={-:-/ absolute / inch / decimal}
; #@! TF.CreationDate,2025-06-27T21:47:47+01:00
; #@! TF.GenerationSoftware,Kicad,Pcbnew,9.0.2
; #@! TF.FileFunction,Plated,1,2,PTH
FMAT,2
INCH
; #@! TA.AperFunction,Plated,PTH,ViaDrill
T1C0.0118
; #@! TA.AperFunction,Plated,PTH,ComponentDrill
T2C0.0276
; #@! TA.AperFunction,Plated,PTH,ComponentDrill
T3C0.0315
; #@! TA.AperFunction,Plated,PTH,ComponentDrill
T4C0.0354
; #@! TA.AperFunction,Plated,PTH,ComponentDrill
T5C0.0374
; #@! TA.AperFunction,Plated,PTH,ComponentDrill
T6C0.0394
; #@! TA.AperFunction,Plated,PTH,ComponentDrill
T7C0.0433
; #@! TA.AperFunction,Plated,PTH,ComponentDrill
T8C0.0846
%
G90
G05
T1
X4.43Y-3.07
X4.465Y-2.69
X4.52Y-2.685
X4.56Y-2.89
X4.57Y-2.69
X4.66Y-2.705
X4.685Y-3.035
X4.865Y-2.55
X4.88Y-3.39
X4.88Y-3.48
X4.88Y-3.855
X4.88Y-3.945
X4.8844Y-3.2556
X4.885Y-2.37
X4.885Y-2.435
X4.99Y-2.205
X5.06Y-2.705
X5.14Y-2.655
X5.17Y-2.385
X5.255Y-2.66
X5.845Y-3.73
X5.975Y-3.28
X6.09Y-5.55
X6.195Y-3.14
X6.215Y-3.86
X6.245Y-3.315
X6.2457Y-2.68
X6.295Y-3.31
X6.3Y-2.24
X6.3454Y-2.375
X6.35Y-3.31
X6.38Y-4.085
X6.4Y-3.305
X6.445Y-2.96
X6.48Y-3.32
X6.51Y-3.965
X6.705Y-5.55
X6.805Y-3.865
X6.885Y-4.68
X7.005Y-4.68
X7.175Y-2.715
X7.185Y-2.96
X7.75Y-2.04
X7.86Y-2.15
X8.335Y-3.2
T2
X4.31Y-3.305
X4.31Y-3.605
X5.8482Y-5.0853
X5.9073Y-5.0853
X5.9663Y-5.0853
X6.0254Y-5.0853
X6.0844Y-5.0853
X6.1435Y-5.0853
X6.2025Y-5.0853
X6.2616Y-5.0853
X6.3207Y-5.0853
X6.3797Y-5.0853
X6.4388Y-5.0853
X6.4978Y-5.0853
X6.5569Y-5.0853
X6.6159Y-5.0853
X6.675Y-5.0853
X6.734Y-5.0853
X6.7931Y-5.0853
T3
X5.8697Y-3.167
X5.8697Y-3.467
X6.1747Y-1.851
X6.1747Y-1.951
X6.1747Y-2.051
X6.1747Y-2.151
X6.1747Y-2.251
X6.1747Y-2.351
X6.1747Y-2.451
X6.1747Y-2.551
X6.4747Y-1.851
X6.4747Y-1.951
X6.4747Y-2.051
X6.4747Y-2.151
X6.4747Y-2.251
X6.4747Y-2.351
X6.4747Y-2.451
X6.4747Y-2.551
X6.7697Y-3.167
X6.7697Y-3.467
X6.8058Y-2.175
X6.9042Y-2.175
X7.1287Y-3.256
X7.1287Y-3.356
X7.1287Y-3.456
X7.1287Y-3.556
X7.1287Y-3.656
X7.1287Y-3.756
X7.1287Y-3.856
X7.1287Y-3.956
X7.4287Y-3.256
X7.4287Y-3.356
X7.4287Y-3.456
X7.4287Y-3.556
X7.4287Y-3.656
X7.4287Y-3.756
X7.4287Y-3.856
X7.4287Y-3.956
X8.315Y-2.98
X8.315Y-3.0784
T4
X4.5247Y-4.3092
X4.5247Y-4.4092
X4.6647Y-4.5712
X4.6647Y-4.6712
X4.8597Y-4.8322
X4.8597Y-4.9322
X5.1547Y-5.0932
X5.1547Y-5.1932
X5.2906Y-1.8302
X5.2906Y-1.9302
X5.5293Y-4.1817
X5.5293Y-5.0912
X5.7206Y-1.6302
X5.7206Y-1.7302
X6.9356Y-1.6302
X6.9356Y-1.7302
X7.112Y-4.1817
X7.112Y-5.0912
X7.3456Y-1.8252
X7.3456Y-1.9252
X7.4837Y-5.0922
X7.4837Y-5.1922
X7.7737Y-4.8322
X7.7737Y-4.9322
X7.9747Y-4.5712
X7.9747Y-4.6712
X8.1167Y-4.3092
X8.1167Y-4.4092
T5
X4.425Y-3.765
X4.425Y-3.8634
X4.425Y-3.9619
X4.425Y-4.0603
X4.9716Y-4.305
X5.07Y-4.305
X5.1684Y-4.305
X5.2669Y-4.305
X6.178Y-1.6057
X6.2764Y-1.6057
X6.3748Y-1.6057
X6.4733Y-1.6057
T6
X4.475Y-3.37
X4.475Y-3.4684
X4.635Y-2.64
X4.65Y-3.655
X4.7796Y-2.427
X4.7796Y-2.527
X4.7796Y-2.627
X4.7796Y-2.727
X4.7796Y-2.827
X4.7796Y-2.927
X4.7796Y-3.027
X4.7796Y-3.127
X4.7796Y-3.227
X4.7796Y-3.327
X4.7796Y-3.427
X4.7796Y-3.527
X4.7796Y-3.627
X4.7796Y-3.727
X4.7796Y-3.827
X5.3796Y-2.427
X5.3796Y-2.527
X5.3796Y-2.627
X5.3796Y-2.727
X5.3796Y-2.827
X5.3796Y-2.927
X5.3796Y-3.027
X5.3796Y-3.127
X5.3796Y-3.227
X5.3796Y-3.327
X5.3796Y-3.427
X5.3796Y-3.527
X5.3796Y-3.627
X5.3796Y-3.727
X5.3796Y-3.827
X5.54Y-2.63
X6.7072Y-1.94
X6.8056Y-1.94
X7.5705Y-2.2302
X7.5705Y-2.3302
X7.5705Y-2.4302
X7.5705Y-2.6302
X7.5705Y-2.7302
X7.5705Y-2.8302
X7.5705Y-2.9302
X8.1419Y-2.7736
X8.1419Y-2.8736
X8.1419Y-2.9736
T7
X7.0806Y-2.8534
X7.1806Y-2.8534
X7.2806Y-2.8534
T8
X5.6396Y-5.0144
X5.7577Y-5.0144
X6.8836Y-5.0144
X7.0018Y-5.0144
M30
