%TF.GenerationSoftware,KiCad,Pcbnew,9.0.2*%
%TF.CreationDate,2025-06-27T21:47:48+01:00*%
%TF.ProjectId,Full_Circuit,46756c6c-5f43-4697-9263-7569742e6b69,rev?*%
%TF.SameCoordinates,Original*%
%TF.FileFunction,Legend,Top*%
%TF.FilePolarity,Positive*%
%FSLAX46Y46*%
G04 Gerber Fmt 4.6, Leading zero omitted, Abs format (unit mm)*
G04 Created by KiCad (PCBNEW 9.0.2) date 2025-06-27 21:47:48*
%MOMM*%
%LPD*%
G01*
G04 APERTURE LIST*
%ADD10C,0.150000*%
%ADD11C,0.254000*%
%ADD12C,0.120000*%
%ADD13C,0.100000*%
%ADD14C,0.200000*%
G04 APERTURE END LIST*
D10*
X128081069Y-125216435D02*
X127081069Y-125216435D01*
X127081069Y-125216435D02*
X127081069Y-124978340D01*
X127081069Y-124978340D02*
X127128688Y-124835483D01*
X127128688Y-124835483D02*
X127223926Y-124740245D01*
X127223926Y-124740245D02*
X127319164Y-124692626D01*
X127319164Y-124692626D02*
X127509640Y-124645007D01*
X127509640Y-124645007D02*
X127652497Y-124645007D01*
X127652497Y-124645007D02*
X127842973Y-124692626D01*
X127842973Y-124692626D02*
X127938211Y-124740245D01*
X127938211Y-124740245D02*
X128033450Y-124835483D01*
X128033450Y-124835483D02*
X128081069Y-124978340D01*
X128081069Y-124978340D02*
X128081069Y-125216435D01*
X128081069Y-123692626D02*
X128081069Y-124264054D01*
X128081069Y-123978340D02*
X127081069Y-123978340D01*
X127081069Y-123978340D02*
X127223926Y-124073578D01*
X127223926Y-124073578D02*
X127319164Y-124168816D01*
X127319164Y-124168816D02*
X127366783Y-124264054D01*
X128081069Y-122740245D02*
X128081069Y-123311673D01*
X128081069Y-123025959D02*
X127081069Y-123025959D01*
X127081069Y-123025959D02*
X127223926Y-123121197D01*
X127223926Y-123121197D02*
X127319164Y-123216435D01*
X127319164Y-123216435D02*
X127366783Y-123311673D01*
X118551819Y-73786904D02*
X119361342Y-73786904D01*
X119361342Y-73786904D02*
X119456580Y-73739285D01*
X119456580Y-73739285D02*
X119504200Y-73691666D01*
X119504200Y-73691666D02*
X119551819Y-73596428D01*
X119551819Y-73596428D02*
X119551819Y-73405952D01*
X119551819Y-73405952D02*
X119504200Y-73310714D01*
X119504200Y-73310714D02*
X119456580Y-73263095D01*
X119456580Y-73263095D02*
X119361342Y-73215476D01*
X119361342Y-73215476D02*
X118551819Y-73215476D01*
X118551819Y-72834523D02*
X118551819Y-72167857D01*
X118551819Y-72167857D02*
X119551819Y-72596428D01*
X190381142Y-98498819D02*
X190047809Y-98022628D01*
X189809714Y-98498819D02*
X189809714Y-97498819D01*
X189809714Y-97498819D02*
X190190666Y-97498819D01*
X190190666Y-97498819D02*
X190285904Y-97546438D01*
X190285904Y-97546438D02*
X190333523Y-97594057D01*
X190333523Y-97594057D02*
X190381142Y-97689295D01*
X190381142Y-97689295D02*
X190381142Y-97832152D01*
X190381142Y-97832152D02*
X190333523Y-97927390D01*
X190333523Y-97927390D02*
X190285904Y-97975009D01*
X190285904Y-97975009D02*
X190190666Y-98022628D01*
X190190666Y-98022628D02*
X189809714Y-98022628D01*
X191333523Y-98498819D02*
X190762095Y-98498819D01*
X191047809Y-98498819D02*
X191047809Y-97498819D01*
X191047809Y-97498819D02*
X190952571Y-97641676D01*
X190952571Y-97641676D02*
X190857333Y-97736914D01*
X190857333Y-97736914D02*
X190762095Y-97784533D01*
X191809714Y-98498819D02*
X192000190Y-98498819D01*
X192000190Y-98498819D02*
X192095428Y-98451200D01*
X192095428Y-98451200D02*
X192143047Y-98403580D01*
X192143047Y-98403580D02*
X192238285Y-98260723D01*
X192238285Y-98260723D02*
X192285904Y-98070247D01*
X192285904Y-98070247D02*
X192285904Y-97689295D01*
X192285904Y-97689295D02*
X192238285Y-97594057D01*
X192238285Y-97594057D02*
X192190666Y-97546438D01*
X192190666Y-97546438D02*
X192095428Y-97498819D01*
X192095428Y-97498819D02*
X191904952Y-97498819D01*
X191904952Y-97498819D02*
X191809714Y-97546438D01*
X191809714Y-97546438D02*
X191762095Y-97594057D01*
X191762095Y-97594057D02*
X191714476Y-97689295D01*
X191714476Y-97689295D02*
X191714476Y-97927390D01*
X191714476Y-97927390D02*
X191762095Y-98022628D01*
X191762095Y-98022628D02*
X191809714Y-98070247D01*
X191809714Y-98070247D02*
X191904952Y-98117866D01*
X191904952Y-98117866D02*
X192095428Y-98117866D01*
X192095428Y-98117866D02*
X192190666Y-98070247D01*
X192190666Y-98070247D02*
X192238285Y-98022628D01*
X192238285Y-98022628D02*
X192285904Y-97927390D01*
X119042200Y-87927332D02*
X119089819Y-87784475D01*
X119089819Y-87784475D02*
X119089819Y-87546380D01*
X119089819Y-87546380D02*
X119042200Y-87451142D01*
X119042200Y-87451142D02*
X118994580Y-87403523D01*
X118994580Y-87403523D02*
X118899342Y-87355904D01*
X118899342Y-87355904D02*
X118804104Y-87355904D01*
X118804104Y-87355904D02*
X118708866Y-87403523D01*
X118708866Y-87403523D02*
X118661247Y-87451142D01*
X118661247Y-87451142D02*
X118613628Y-87546380D01*
X118613628Y-87546380D02*
X118566009Y-87736856D01*
X118566009Y-87736856D02*
X118518390Y-87832094D01*
X118518390Y-87832094D02*
X118470771Y-87879713D01*
X118470771Y-87879713D02*
X118375533Y-87927332D01*
X118375533Y-87927332D02*
X118280295Y-87927332D01*
X118280295Y-87927332D02*
X118185057Y-87879713D01*
X118185057Y-87879713D02*
X118137438Y-87832094D01*
X118137438Y-87832094D02*
X118089819Y-87736856D01*
X118089819Y-87736856D02*
X118089819Y-87498761D01*
X118089819Y-87498761D02*
X118137438Y-87355904D01*
X118089819Y-87022570D02*
X119089819Y-86784475D01*
X119089819Y-86784475D02*
X118375533Y-86593999D01*
X118375533Y-86593999D02*
X119089819Y-86403523D01*
X119089819Y-86403523D02*
X118089819Y-86165428D01*
X119089819Y-85260666D02*
X119089819Y-85832094D01*
X119089819Y-85546380D02*
X118089819Y-85546380D01*
X118089819Y-85546380D02*
X118232676Y-85641618D01*
X118232676Y-85641618D02*
X118327914Y-85736856D01*
X118327914Y-85736856D02*
X118375533Y-85832094D01*
X127722333Y-59258580D02*
X127674714Y-59306200D01*
X127674714Y-59306200D02*
X127531857Y-59353819D01*
X127531857Y-59353819D02*
X127436619Y-59353819D01*
X127436619Y-59353819D02*
X127293762Y-59306200D01*
X127293762Y-59306200D02*
X127198524Y-59210961D01*
X127198524Y-59210961D02*
X127150905Y-59115723D01*
X127150905Y-59115723D02*
X127103286Y-58925247D01*
X127103286Y-58925247D02*
X127103286Y-58782390D01*
X127103286Y-58782390D02*
X127150905Y-58591914D01*
X127150905Y-58591914D02*
X127198524Y-58496676D01*
X127198524Y-58496676D02*
X127293762Y-58401438D01*
X127293762Y-58401438D02*
X127436619Y-58353819D01*
X127436619Y-58353819D02*
X127531857Y-58353819D01*
X127531857Y-58353819D02*
X127674714Y-58401438D01*
X127674714Y-58401438D02*
X127722333Y-58449057D01*
X128674714Y-59353819D02*
X128103286Y-59353819D01*
X128389000Y-59353819D02*
X128389000Y-58353819D01*
X128389000Y-58353819D02*
X128293762Y-58496676D01*
X128293762Y-58496676D02*
X128198524Y-58591914D01*
X128198524Y-58591914D02*
X128103286Y-58639533D01*
X114292142Y-82622819D02*
X113958809Y-82146628D01*
X113720714Y-82622819D02*
X113720714Y-81622819D01*
X113720714Y-81622819D02*
X114101666Y-81622819D01*
X114101666Y-81622819D02*
X114196904Y-81670438D01*
X114196904Y-81670438D02*
X114244523Y-81718057D01*
X114244523Y-81718057D02*
X114292142Y-81813295D01*
X114292142Y-81813295D02*
X114292142Y-81956152D01*
X114292142Y-81956152D02*
X114244523Y-82051390D01*
X114244523Y-82051390D02*
X114196904Y-82099009D01*
X114196904Y-82099009D02*
X114101666Y-82146628D01*
X114101666Y-82146628D02*
X113720714Y-82146628D01*
X114673095Y-81718057D02*
X114720714Y-81670438D01*
X114720714Y-81670438D02*
X114815952Y-81622819D01*
X114815952Y-81622819D02*
X115054047Y-81622819D01*
X115054047Y-81622819D02*
X115149285Y-81670438D01*
X115149285Y-81670438D02*
X115196904Y-81718057D01*
X115196904Y-81718057D02*
X115244523Y-81813295D01*
X115244523Y-81813295D02*
X115244523Y-81908533D01*
X115244523Y-81908533D02*
X115196904Y-82051390D01*
X115196904Y-82051390D02*
X114625476Y-82622819D01*
X114625476Y-82622819D02*
X115244523Y-82622819D01*
X116149285Y-81622819D02*
X115673095Y-81622819D01*
X115673095Y-81622819D02*
X115625476Y-82099009D01*
X115625476Y-82099009D02*
X115673095Y-82051390D01*
X115673095Y-82051390D02*
X115768333Y-82003771D01*
X115768333Y-82003771D02*
X116006428Y-82003771D01*
X116006428Y-82003771D02*
X116101666Y-82051390D01*
X116101666Y-82051390D02*
X116149285Y-82099009D01*
X116149285Y-82099009D02*
X116196904Y-82194247D01*
X116196904Y-82194247D02*
X116196904Y-82432342D01*
X116196904Y-82432342D02*
X116149285Y-82527580D01*
X116149285Y-82527580D02*
X116101666Y-82575200D01*
X116101666Y-82575200D02*
X116006428Y-82622819D01*
X116006428Y-82622819D02*
X115768333Y-82622819D01*
X115768333Y-82622819D02*
X115673095Y-82575200D01*
X115673095Y-82575200D02*
X115625476Y-82527580D01*
X126198333Y-72844819D02*
X125865000Y-72368628D01*
X125626905Y-72844819D02*
X125626905Y-71844819D01*
X125626905Y-71844819D02*
X126007857Y-71844819D01*
X126007857Y-71844819D02*
X126103095Y-71892438D01*
X126103095Y-71892438D02*
X126150714Y-71940057D01*
X126150714Y-71940057D02*
X126198333Y-72035295D01*
X126198333Y-72035295D02*
X126198333Y-72178152D01*
X126198333Y-72178152D02*
X126150714Y-72273390D01*
X126150714Y-72273390D02*
X126103095Y-72321009D01*
X126103095Y-72321009D02*
X126007857Y-72368628D01*
X126007857Y-72368628D02*
X125626905Y-72368628D01*
X127055476Y-71844819D02*
X126865000Y-71844819D01*
X126865000Y-71844819D02*
X126769762Y-71892438D01*
X126769762Y-71892438D02*
X126722143Y-71940057D01*
X126722143Y-71940057D02*
X126626905Y-72082914D01*
X126626905Y-72082914D02*
X126579286Y-72273390D01*
X126579286Y-72273390D02*
X126579286Y-72654342D01*
X126579286Y-72654342D02*
X126626905Y-72749580D01*
X126626905Y-72749580D02*
X126674524Y-72797200D01*
X126674524Y-72797200D02*
X126769762Y-72844819D01*
X126769762Y-72844819D02*
X126960238Y-72844819D01*
X126960238Y-72844819D02*
X127055476Y-72797200D01*
X127055476Y-72797200D02*
X127103095Y-72749580D01*
X127103095Y-72749580D02*
X127150714Y-72654342D01*
X127150714Y-72654342D02*
X127150714Y-72416247D01*
X127150714Y-72416247D02*
X127103095Y-72321009D01*
X127103095Y-72321009D02*
X127055476Y-72273390D01*
X127055476Y-72273390D02*
X126960238Y-72225771D01*
X126960238Y-72225771D02*
X126769762Y-72225771D01*
X126769762Y-72225771D02*
X126674524Y-72273390D01*
X126674524Y-72273390D02*
X126626905Y-72321009D01*
X126626905Y-72321009D02*
X126579286Y-72416247D01*
X190381142Y-95831819D02*
X190047809Y-95355628D01*
X189809714Y-95831819D02*
X189809714Y-94831819D01*
X189809714Y-94831819D02*
X190190666Y-94831819D01*
X190190666Y-94831819D02*
X190285904Y-94879438D01*
X190285904Y-94879438D02*
X190333523Y-94927057D01*
X190333523Y-94927057D02*
X190381142Y-95022295D01*
X190381142Y-95022295D02*
X190381142Y-95165152D01*
X190381142Y-95165152D02*
X190333523Y-95260390D01*
X190333523Y-95260390D02*
X190285904Y-95308009D01*
X190285904Y-95308009D02*
X190190666Y-95355628D01*
X190190666Y-95355628D02*
X189809714Y-95355628D01*
X191333523Y-95831819D02*
X190762095Y-95831819D01*
X191047809Y-95831819D02*
X191047809Y-94831819D01*
X191047809Y-94831819D02*
X190952571Y-94974676D01*
X190952571Y-94974676D02*
X190857333Y-95069914D01*
X190857333Y-95069914D02*
X190762095Y-95117533D01*
X191904952Y-95260390D02*
X191809714Y-95212771D01*
X191809714Y-95212771D02*
X191762095Y-95165152D01*
X191762095Y-95165152D02*
X191714476Y-95069914D01*
X191714476Y-95069914D02*
X191714476Y-95022295D01*
X191714476Y-95022295D02*
X191762095Y-94927057D01*
X191762095Y-94927057D02*
X191809714Y-94879438D01*
X191809714Y-94879438D02*
X191904952Y-94831819D01*
X191904952Y-94831819D02*
X192095428Y-94831819D01*
X192095428Y-94831819D02*
X192190666Y-94879438D01*
X192190666Y-94879438D02*
X192238285Y-94927057D01*
X192238285Y-94927057D02*
X192285904Y-95022295D01*
X192285904Y-95022295D02*
X192285904Y-95069914D01*
X192285904Y-95069914D02*
X192238285Y-95165152D01*
X192238285Y-95165152D02*
X192190666Y-95212771D01*
X192190666Y-95212771D02*
X192095428Y-95260390D01*
X192095428Y-95260390D02*
X191904952Y-95260390D01*
X191904952Y-95260390D02*
X191809714Y-95308009D01*
X191809714Y-95308009D02*
X191762095Y-95355628D01*
X191762095Y-95355628D02*
X191714476Y-95450866D01*
X191714476Y-95450866D02*
X191714476Y-95641342D01*
X191714476Y-95641342D02*
X191762095Y-95736580D01*
X191762095Y-95736580D02*
X191809714Y-95784200D01*
X191809714Y-95784200D02*
X191904952Y-95831819D01*
X191904952Y-95831819D02*
X192095428Y-95831819D01*
X192095428Y-95831819D02*
X192190666Y-95784200D01*
X192190666Y-95784200D02*
X192238285Y-95736580D01*
X192238285Y-95736580D02*
X192285904Y-95641342D01*
X192285904Y-95641342D02*
X192285904Y-95450866D01*
X192285904Y-95450866D02*
X192238285Y-95355628D01*
X192238285Y-95355628D02*
X192190666Y-95308009D01*
X192190666Y-95308009D02*
X192095428Y-95260390D01*
X124915819Y-90717666D02*
X124439628Y-91050999D01*
X124915819Y-91289094D02*
X123915819Y-91289094D01*
X123915819Y-91289094D02*
X123915819Y-90908142D01*
X123915819Y-90908142D02*
X123963438Y-90812904D01*
X123963438Y-90812904D02*
X124011057Y-90765285D01*
X124011057Y-90765285D02*
X124106295Y-90717666D01*
X124106295Y-90717666D02*
X124249152Y-90717666D01*
X124249152Y-90717666D02*
X124344390Y-90765285D01*
X124344390Y-90765285D02*
X124392009Y-90812904D01*
X124392009Y-90812904D02*
X124439628Y-90908142D01*
X124439628Y-90908142D02*
X124439628Y-91289094D01*
X123915819Y-90384332D02*
X123915819Y-89717666D01*
X123915819Y-89717666D02*
X124915819Y-90146237D01*
X159709726Y-81705969D02*
X159709726Y-80705969D01*
X159709726Y-80705969D02*
X160043059Y-81420254D01*
X160043059Y-81420254D02*
X160376392Y-80705969D01*
X160376392Y-80705969D02*
X160376392Y-81705969D01*
X160804964Y-80801207D02*
X160852583Y-80753588D01*
X160852583Y-80753588D02*
X160947821Y-80705969D01*
X160947821Y-80705969D02*
X161185916Y-80705969D01*
X161185916Y-80705969D02*
X161281154Y-80753588D01*
X161281154Y-80753588D02*
X161328773Y-80801207D01*
X161328773Y-80801207D02*
X161376392Y-80896445D01*
X161376392Y-80896445D02*
X161376392Y-80991683D01*
X161376392Y-80991683D02*
X161328773Y-81134540D01*
X161328773Y-81134540D02*
X160757345Y-81705969D01*
X160757345Y-81705969D02*
X161376392Y-81705969D01*
X152424010Y-87058350D02*
X152566867Y-87105969D01*
X152566867Y-87105969D02*
X152804962Y-87105969D01*
X152804962Y-87105969D02*
X152900200Y-87058350D01*
X152900200Y-87058350D02*
X152947819Y-87010730D01*
X152947819Y-87010730D02*
X152995438Y-86915492D01*
X152995438Y-86915492D02*
X152995438Y-86820254D01*
X152995438Y-86820254D02*
X152947819Y-86725016D01*
X152947819Y-86725016D02*
X152900200Y-86677397D01*
X152900200Y-86677397D02*
X152804962Y-86629778D01*
X152804962Y-86629778D02*
X152614486Y-86582159D01*
X152614486Y-86582159D02*
X152519248Y-86534540D01*
X152519248Y-86534540D02*
X152471629Y-86486921D01*
X152471629Y-86486921D02*
X152424010Y-86391683D01*
X152424010Y-86391683D02*
X152424010Y-86296445D01*
X152424010Y-86296445D02*
X152471629Y-86201207D01*
X152471629Y-86201207D02*
X152519248Y-86153588D01*
X152519248Y-86153588D02*
X152614486Y-86105969D01*
X152614486Y-86105969D02*
X152852581Y-86105969D01*
X152852581Y-86105969D02*
X152995438Y-86153588D01*
X153281153Y-86439302D02*
X153662105Y-86439302D01*
X153424010Y-86105969D02*
X153424010Y-86963111D01*
X153424010Y-86963111D02*
X153471629Y-87058350D01*
X153471629Y-87058350D02*
X153566867Y-87105969D01*
X153566867Y-87105969D02*
X153662105Y-87105969D01*
X154376391Y-87058350D02*
X154281153Y-87105969D01*
X154281153Y-87105969D02*
X154090677Y-87105969D01*
X154090677Y-87105969D02*
X153995439Y-87058350D01*
X153995439Y-87058350D02*
X153947820Y-86963111D01*
X153947820Y-86963111D02*
X153947820Y-86582159D01*
X153947820Y-86582159D02*
X153995439Y-86486921D01*
X153995439Y-86486921D02*
X154090677Y-86439302D01*
X154090677Y-86439302D02*
X154281153Y-86439302D01*
X154281153Y-86439302D02*
X154376391Y-86486921D01*
X154376391Y-86486921D02*
X154424010Y-86582159D01*
X154424010Y-86582159D02*
X154424010Y-86677397D01*
X154424010Y-86677397D02*
X153947820Y-86772635D01*
X154852582Y-86439302D02*
X154852582Y-87439302D01*
X154852582Y-86486921D02*
X154947820Y-86439302D01*
X154947820Y-86439302D02*
X155138296Y-86439302D01*
X155138296Y-86439302D02*
X155233534Y-86486921D01*
X155233534Y-86486921D02*
X155281153Y-86534540D01*
X155281153Y-86534540D02*
X155328772Y-86629778D01*
X155328772Y-86629778D02*
X155328772Y-86915492D01*
X155328772Y-86915492D02*
X155281153Y-87010730D01*
X155281153Y-87010730D02*
X155233534Y-87058350D01*
X155233534Y-87058350D02*
X155138296Y-87105969D01*
X155138296Y-87105969D02*
X154947820Y-87105969D01*
X154947820Y-87105969D02*
X154852582Y-87058350D01*
X155757344Y-86439302D02*
X155757344Y-87439302D01*
X155757344Y-86486921D02*
X155852582Y-86439302D01*
X155852582Y-86439302D02*
X156043058Y-86439302D01*
X156043058Y-86439302D02*
X156138296Y-86486921D01*
X156138296Y-86486921D02*
X156185915Y-86534540D01*
X156185915Y-86534540D02*
X156233534Y-86629778D01*
X156233534Y-86629778D02*
X156233534Y-86915492D01*
X156233534Y-86915492D02*
X156185915Y-87010730D01*
X156185915Y-87010730D02*
X156138296Y-87058350D01*
X156138296Y-87058350D02*
X156043058Y-87105969D01*
X156043058Y-87105969D02*
X155852582Y-87105969D01*
X155852582Y-87105969D02*
X155757344Y-87058350D01*
X157043058Y-87058350D02*
X156947820Y-87105969D01*
X156947820Y-87105969D02*
X156757344Y-87105969D01*
X156757344Y-87105969D02*
X156662106Y-87058350D01*
X156662106Y-87058350D02*
X156614487Y-86963111D01*
X156614487Y-86963111D02*
X156614487Y-86582159D01*
X156614487Y-86582159D02*
X156662106Y-86486921D01*
X156662106Y-86486921D02*
X156757344Y-86439302D01*
X156757344Y-86439302D02*
X156947820Y-86439302D01*
X156947820Y-86439302D02*
X157043058Y-86486921D01*
X157043058Y-86486921D02*
X157090677Y-86582159D01*
X157090677Y-86582159D02*
X157090677Y-86677397D01*
X157090677Y-86677397D02*
X156614487Y-86772635D01*
X157519249Y-87105969D02*
X157519249Y-86439302D01*
X157519249Y-86629778D02*
X157566868Y-86534540D01*
X157566868Y-86534540D02*
X157614487Y-86486921D01*
X157614487Y-86486921D02*
X157709725Y-86439302D01*
X157709725Y-86439302D02*
X157804963Y-86439302D01*
X157900202Y-87201207D02*
X158662106Y-87201207D01*
X158900202Y-87105969D02*
X158900202Y-86105969D01*
X158900202Y-86105969D02*
X159233535Y-86820254D01*
X159233535Y-86820254D02*
X159566868Y-86105969D01*
X159566868Y-86105969D02*
X159566868Y-87105969D01*
X160185916Y-87105969D02*
X160090678Y-87058350D01*
X160090678Y-87058350D02*
X160043059Y-87010730D01*
X160043059Y-87010730D02*
X159995440Y-86915492D01*
X159995440Y-86915492D02*
X159995440Y-86629778D01*
X159995440Y-86629778D02*
X160043059Y-86534540D01*
X160043059Y-86534540D02*
X160090678Y-86486921D01*
X160090678Y-86486921D02*
X160185916Y-86439302D01*
X160185916Y-86439302D02*
X160328773Y-86439302D01*
X160328773Y-86439302D02*
X160424011Y-86486921D01*
X160424011Y-86486921D02*
X160471630Y-86534540D01*
X160471630Y-86534540D02*
X160519249Y-86629778D01*
X160519249Y-86629778D02*
X160519249Y-86915492D01*
X160519249Y-86915492D02*
X160471630Y-87010730D01*
X160471630Y-87010730D02*
X160424011Y-87058350D01*
X160424011Y-87058350D02*
X160328773Y-87105969D01*
X160328773Y-87105969D02*
X160185916Y-87105969D01*
X160804964Y-86439302D02*
X161185916Y-86439302D01*
X160947821Y-86105969D02*
X160947821Y-86963111D01*
X160947821Y-86963111D02*
X160995440Y-87058350D01*
X160995440Y-87058350D02*
X161090678Y-87105969D01*
X161090678Y-87105969D02*
X161185916Y-87105969D01*
X161662107Y-87105969D02*
X161566869Y-87058350D01*
X161566869Y-87058350D02*
X161519250Y-87010730D01*
X161519250Y-87010730D02*
X161471631Y-86915492D01*
X161471631Y-86915492D02*
X161471631Y-86629778D01*
X161471631Y-86629778D02*
X161519250Y-86534540D01*
X161519250Y-86534540D02*
X161566869Y-86486921D01*
X161566869Y-86486921D02*
X161662107Y-86439302D01*
X161662107Y-86439302D02*
X161804964Y-86439302D01*
X161804964Y-86439302D02*
X161900202Y-86486921D01*
X161900202Y-86486921D02*
X161947821Y-86534540D01*
X161947821Y-86534540D02*
X161995440Y-86629778D01*
X161995440Y-86629778D02*
X161995440Y-86915492D01*
X161995440Y-86915492D02*
X161947821Y-87010730D01*
X161947821Y-87010730D02*
X161900202Y-87058350D01*
X161900202Y-87058350D02*
X161804964Y-87105969D01*
X161804964Y-87105969D02*
X161662107Y-87105969D01*
X162424012Y-87105969D02*
X162424012Y-86439302D01*
X162424012Y-86629778D02*
X162471631Y-86534540D01*
X162471631Y-86534540D02*
X162519250Y-86486921D01*
X162519250Y-86486921D02*
X162614488Y-86439302D01*
X162614488Y-86439302D02*
X162709726Y-86439302D01*
X162804965Y-87201207D02*
X163566869Y-87201207D01*
X163804965Y-87105969D02*
X163804965Y-86105969D01*
X163804965Y-86486921D02*
X163900203Y-86439302D01*
X163900203Y-86439302D02*
X164090679Y-86439302D01*
X164090679Y-86439302D02*
X164185917Y-86486921D01*
X164185917Y-86486921D02*
X164233536Y-86534540D01*
X164233536Y-86534540D02*
X164281155Y-86629778D01*
X164281155Y-86629778D02*
X164281155Y-86915492D01*
X164281155Y-86915492D02*
X164233536Y-87010730D01*
X164233536Y-87010730D02*
X164185917Y-87058350D01*
X164185917Y-87058350D02*
X164090679Y-87105969D01*
X164090679Y-87105969D02*
X163900203Y-87105969D01*
X163900203Y-87105969D02*
X163804965Y-87058350D01*
X164709727Y-87105969D02*
X164709727Y-86439302D01*
X164709727Y-86105969D02*
X164662108Y-86153588D01*
X164662108Y-86153588D02*
X164709727Y-86201207D01*
X164709727Y-86201207D02*
X164757346Y-86153588D01*
X164757346Y-86153588D02*
X164709727Y-86105969D01*
X164709727Y-86105969D02*
X164709727Y-86201207D01*
X165185917Y-86439302D02*
X165185917Y-87439302D01*
X165185917Y-86486921D02*
X165281155Y-86439302D01*
X165281155Y-86439302D02*
X165471631Y-86439302D01*
X165471631Y-86439302D02*
X165566869Y-86486921D01*
X165566869Y-86486921D02*
X165614488Y-86534540D01*
X165614488Y-86534540D02*
X165662107Y-86629778D01*
X165662107Y-86629778D02*
X165662107Y-86915492D01*
X165662107Y-86915492D02*
X165614488Y-87010730D01*
X165614488Y-87010730D02*
X165566869Y-87058350D01*
X165566869Y-87058350D02*
X165471631Y-87105969D01*
X165471631Y-87105969D02*
X165281155Y-87105969D01*
X165281155Y-87105969D02*
X165185917Y-87058350D01*
X166233536Y-87105969D02*
X166138298Y-87058350D01*
X166138298Y-87058350D02*
X166090679Y-87010730D01*
X166090679Y-87010730D02*
X166043060Y-86915492D01*
X166043060Y-86915492D02*
X166043060Y-86629778D01*
X166043060Y-86629778D02*
X166090679Y-86534540D01*
X166090679Y-86534540D02*
X166138298Y-86486921D01*
X166138298Y-86486921D02*
X166233536Y-86439302D01*
X166233536Y-86439302D02*
X166376393Y-86439302D01*
X166376393Y-86439302D02*
X166471631Y-86486921D01*
X166471631Y-86486921D02*
X166519250Y-86534540D01*
X166519250Y-86534540D02*
X166566869Y-86629778D01*
X166566869Y-86629778D02*
X166566869Y-86915492D01*
X166566869Y-86915492D02*
X166519250Y-87010730D01*
X166519250Y-87010730D02*
X166471631Y-87058350D01*
X166471631Y-87058350D02*
X166376393Y-87105969D01*
X166376393Y-87105969D02*
X166233536Y-87105969D01*
X167138298Y-87105969D02*
X167043060Y-87058350D01*
X167043060Y-87058350D02*
X166995441Y-86963111D01*
X166995441Y-86963111D02*
X166995441Y-86105969D01*
X167947822Y-87105969D02*
X167947822Y-86582159D01*
X167947822Y-86582159D02*
X167900203Y-86486921D01*
X167900203Y-86486921D02*
X167804965Y-86439302D01*
X167804965Y-86439302D02*
X167614489Y-86439302D01*
X167614489Y-86439302D02*
X167519251Y-86486921D01*
X167947822Y-87058350D02*
X167852584Y-87105969D01*
X167852584Y-87105969D02*
X167614489Y-87105969D01*
X167614489Y-87105969D02*
X167519251Y-87058350D01*
X167519251Y-87058350D02*
X167471632Y-86963111D01*
X167471632Y-86963111D02*
X167471632Y-86867873D01*
X167471632Y-86867873D02*
X167519251Y-86772635D01*
X167519251Y-86772635D02*
X167614489Y-86725016D01*
X167614489Y-86725016D02*
X167852584Y-86725016D01*
X167852584Y-86725016D02*
X167947822Y-86677397D01*
X168424013Y-87105969D02*
X168424013Y-86439302D01*
X168424013Y-86629778D02*
X168471632Y-86534540D01*
X168471632Y-86534540D02*
X168519251Y-86486921D01*
X168519251Y-86486921D02*
X168614489Y-86439302D01*
X168614489Y-86439302D02*
X168709727Y-86439302D01*
X151404964Y-88505969D02*
X150833536Y-88505969D01*
X151119250Y-88505969D02*
X151119250Y-87505969D01*
X151119250Y-87505969D02*
X151024012Y-87648826D01*
X151024012Y-87648826D02*
X150928774Y-87744064D01*
X150928774Y-87744064D02*
X150833536Y-87791683D01*
X150633536Y-80001207D02*
X150681155Y-79953588D01*
X150681155Y-79953588D02*
X150776393Y-79905969D01*
X150776393Y-79905969D02*
X151014488Y-79905969D01*
X151014488Y-79905969D02*
X151109726Y-79953588D01*
X151109726Y-79953588D02*
X151157345Y-80001207D01*
X151157345Y-80001207D02*
X151204964Y-80096445D01*
X151204964Y-80096445D02*
X151204964Y-80191683D01*
X151204964Y-80191683D02*
X151157345Y-80334540D01*
X151157345Y-80334540D02*
X150585917Y-80905969D01*
X150585917Y-80905969D02*
X151204964Y-80905969D01*
X169785917Y-79905969D02*
X170404964Y-79905969D01*
X170404964Y-79905969D02*
X170071631Y-80286921D01*
X170071631Y-80286921D02*
X170214488Y-80286921D01*
X170214488Y-80286921D02*
X170309726Y-80334540D01*
X170309726Y-80334540D02*
X170357345Y-80382159D01*
X170357345Y-80382159D02*
X170404964Y-80477397D01*
X170404964Y-80477397D02*
X170404964Y-80715492D01*
X170404964Y-80715492D02*
X170357345Y-80810730D01*
X170357345Y-80810730D02*
X170309726Y-80858350D01*
X170309726Y-80858350D02*
X170214488Y-80905969D01*
X170214488Y-80905969D02*
X169928774Y-80905969D01*
X169928774Y-80905969D02*
X169833536Y-80858350D01*
X169833536Y-80858350D02*
X169785917Y-80810730D01*
X170309726Y-87839302D02*
X170309726Y-88505969D01*
X170071631Y-87458350D02*
X169833536Y-88172635D01*
X169833536Y-88172635D02*
X170452583Y-88172635D01*
X109928819Y-88272857D02*
X109452628Y-88606190D01*
X109928819Y-88844285D02*
X108928819Y-88844285D01*
X108928819Y-88844285D02*
X108928819Y-88463333D01*
X108928819Y-88463333D02*
X108976438Y-88368095D01*
X108976438Y-88368095D02*
X109024057Y-88320476D01*
X109024057Y-88320476D02*
X109119295Y-88272857D01*
X109119295Y-88272857D02*
X109262152Y-88272857D01*
X109262152Y-88272857D02*
X109357390Y-88320476D01*
X109357390Y-88320476D02*
X109405009Y-88368095D01*
X109405009Y-88368095D02*
X109452628Y-88463333D01*
X109452628Y-88463333D02*
X109452628Y-88844285D01*
X109024057Y-87891904D02*
X108976438Y-87844285D01*
X108976438Y-87844285D02*
X108928819Y-87749047D01*
X108928819Y-87749047D02*
X108928819Y-87510952D01*
X108928819Y-87510952D02*
X108976438Y-87415714D01*
X108976438Y-87415714D02*
X109024057Y-87368095D01*
X109024057Y-87368095D02*
X109119295Y-87320476D01*
X109119295Y-87320476D02*
X109214533Y-87320476D01*
X109214533Y-87320476D02*
X109357390Y-87368095D01*
X109357390Y-87368095D02*
X109928819Y-87939523D01*
X109928819Y-87939523D02*
X109928819Y-87320476D01*
X108928819Y-86701428D02*
X108928819Y-86606190D01*
X108928819Y-86606190D02*
X108976438Y-86510952D01*
X108976438Y-86510952D02*
X109024057Y-86463333D01*
X109024057Y-86463333D02*
X109119295Y-86415714D01*
X109119295Y-86415714D02*
X109309771Y-86368095D01*
X109309771Y-86368095D02*
X109547866Y-86368095D01*
X109547866Y-86368095D02*
X109738342Y-86415714D01*
X109738342Y-86415714D02*
X109833580Y-86463333D01*
X109833580Y-86463333D02*
X109881200Y-86510952D01*
X109881200Y-86510952D02*
X109928819Y-86606190D01*
X109928819Y-86606190D02*
X109928819Y-86701428D01*
X109928819Y-86701428D02*
X109881200Y-86796666D01*
X109881200Y-86796666D02*
X109833580Y-86844285D01*
X109833580Y-86844285D02*
X109738342Y-86891904D01*
X109738342Y-86891904D02*
X109547866Y-86939523D01*
X109547866Y-86939523D02*
X109309771Y-86939523D01*
X109309771Y-86939523D02*
X109119295Y-86891904D01*
X109119295Y-86891904D02*
X109024057Y-86844285D01*
X109024057Y-86844285D02*
X108976438Y-86796666D01*
X108976438Y-86796666D02*
X108928819Y-86701428D01*
X127201819Y-87288666D02*
X126725628Y-87621999D01*
X127201819Y-87860094D02*
X126201819Y-87860094D01*
X126201819Y-87860094D02*
X126201819Y-87479142D01*
X126201819Y-87479142D02*
X126249438Y-87383904D01*
X126249438Y-87383904D02*
X126297057Y-87336285D01*
X126297057Y-87336285D02*
X126392295Y-87288666D01*
X126392295Y-87288666D02*
X126535152Y-87288666D01*
X126535152Y-87288666D02*
X126630390Y-87336285D01*
X126630390Y-87336285D02*
X126678009Y-87383904D01*
X126678009Y-87383904D02*
X126725628Y-87479142D01*
X126725628Y-87479142D02*
X126725628Y-87860094D01*
X126630390Y-86717237D02*
X126582771Y-86812475D01*
X126582771Y-86812475D02*
X126535152Y-86860094D01*
X126535152Y-86860094D02*
X126439914Y-86907713D01*
X126439914Y-86907713D02*
X126392295Y-86907713D01*
X126392295Y-86907713D02*
X126297057Y-86860094D01*
X126297057Y-86860094D02*
X126249438Y-86812475D01*
X126249438Y-86812475D02*
X126201819Y-86717237D01*
X126201819Y-86717237D02*
X126201819Y-86526761D01*
X126201819Y-86526761D02*
X126249438Y-86431523D01*
X126249438Y-86431523D02*
X126297057Y-86383904D01*
X126297057Y-86383904D02*
X126392295Y-86336285D01*
X126392295Y-86336285D02*
X126439914Y-86336285D01*
X126439914Y-86336285D02*
X126535152Y-86383904D01*
X126535152Y-86383904D02*
X126582771Y-86431523D01*
X126582771Y-86431523D02*
X126630390Y-86526761D01*
X126630390Y-86526761D02*
X126630390Y-86717237D01*
X126630390Y-86717237D02*
X126678009Y-86812475D01*
X126678009Y-86812475D02*
X126725628Y-86860094D01*
X126725628Y-86860094D02*
X126820866Y-86907713D01*
X126820866Y-86907713D02*
X127011342Y-86907713D01*
X127011342Y-86907713D02*
X127106580Y-86860094D01*
X127106580Y-86860094D02*
X127154200Y-86812475D01*
X127154200Y-86812475D02*
X127201819Y-86717237D01*
X127201819Y-86717237D02*
X127201819Y-86526761D01*
X127201819Y-86526761D02*
X127154200Y-86431523D01*
X127154200Y-86431523D02*
X127106580Y-86383904D01*
X127106580Y-86383904D02*
X127011342Y-86336285D01*
X127011342Y-86336285D02*
X126820866Y-86336285D01*
X126820866Y-86336285D02*
X126725628Y-86383904D01*
X126725628Y-86383904D02*
X126678009Y-86431523D01*
X126678009Y-86431523D02*
X126630390Y-86526761D01*
X190762142Y-88211819D02*
X190428809Y-87735628D01*
X190190714Y-88211819D02*
X190190714Y-87211819D01*
X190190714Y-87211819D02*
X190571666Y-87211819D01*
X190571666Y-87211819D02*
X190666904Y-87259438D01*
X190666904Y-87259438D02*
X190714523Y-87307057D01*
X190714523Y-87307057D02*
X190762142Y-87402295D01*
X190762142Y-87402295D02*
X190762142Y-87545152D01*
X190762142Y-87545152D02*
X190714523Y-87640390D01*
X190714523Y-87640390D02*
X190666904Y-87688009D01*
X190666904Y-87688009D02*
X190571666Y-87735628D01*
X190571666Y-87735628D02*
X190190714Y-87735628D01*
X191714523Y-88211819D02*
X191143095Y-88211819D01*
X191428809Y-88211819D02*
X191428809Y-87211819D01*
X191428809Y-87211819D02*
X191333571Y-87354676D01*
X191333571Y-87354676D02*
X191238333Y-87449914D01*
X191238333Y-87449914D02*
X191143095Y-87497533D01*
X192619285Y-87211819D02*
X192143095Y-87211819D01*
X192143095Y-87211819D02*
X192095476Y-87688009D01*
X192095476Y-87688009D02*
X192143095Y-87640390D01*
X192143095Y-87640390D02*
X192238333Y-87592771D01*
X192238333Y-87592771D02*
X192476428Y-87592771D01*
X192476428Y-87592771D02*
X192571666Y-87640390D01*
X192571666Y-87640390D02*
X192619285Y-87688009D01*
X192619285Y-87688009D02*
X192666904Y-87783247D01*
X192666904Y-87783247D02*
X192666904Y-88021342D01*
X192666904Y-88021342D02*
X192619285Y-88116580D01*
X192619285Y-88116580D02*
X192571666Y-88164200D01*
X192571666Y-88164200D02*
X192476428Y-88211819D01*
X192476428Y-88211819D02*
X192238333Y-88211819D01*
X192238333Y-88211819D02*
X192143095Y-88164200D01*
X192143095Y-88164200D02*
X192095476Y-88116580D01*
X135496330Y-71032666D02*
X135543950Y-71080285D01*
X135543950Y-71080285D02*
X135591569Y-71223142D01*
X135591569Y-71223142D02*
X135591569Y-71318380D01*
X135591569Y-71318380D02*
X135543950Y-71461237D01*
X135543950Y-71461237D02*
X135448711Y-71556475D01*
X135448711Y-71556475D02*
X135353473Y-71604094D01*
X135353473Y-71604094D02*
X135162997Y-71651713D01*
X135162997Y-71651713D02*
X135020140Y-71651713D01*
X135020140Y-71651713D02*
X134829664Y-71604094D01*
X134829664Y-71604094D02*
X134734426Y-71556475D01*
X134734426Y-71556475D02*
X134639188Y-71461237D01*
X134639188Y-71461237D02*
X134591569Y-71318380D01*
X134591569Y-71318380D02*
X134591569Y-71223142D01*
X134591569Y-71223142D02*
X134639188Y-71080285D01*
X134639188Y-71080285D02*
X134686807Y-71032666D01*
X134591569Y-70127904D02*
X134591569Y-70604094D01*
X134591569Y-70604094D02*
X135067759Y-70651713D01*
X135067759Y-70651713D02*
X135020140Y-70604094D01*
X135020140Y-70604094D02*
X134972521Y-70508856D01*
X134972521Y-70508856D02*
X134972521Y-70270761D01*
X134972521Y-70270761D02*
X135020140Y-70175523D01*
X135020140Y-70175523D02*
X135067759Y-70127904D01*
X135067759Y-70127904D02*
X135162997Y-70080285D01*
X135162997Y-70080285D02*
X135401092Y-70080285D01*
X135401092Y-70080285D02*
X135496330Y-70127904D01*
X135496330Y-70127904D02*
X135543950Y-70175523D01*
X135543950Y-70175523D02*
X135591569Y-70270761D01*
X135591569Y-70270761D02*
X135591569Y-70508856D01*
X135591569Y-70508856D02*
X135543950Y-70604094D01*
X135543950Y-70604094D02*
X135496330Y-70651713D01*
X186579669Y-131349244D02*
X185579669Y-131349244D01*
X185579669Y-131349244D02*
X185579669Y-131111149D01*
X185579669Y-131111149D02*
X185627288Y-130968292D01*
X185627288Y-130968292D02*
X185722526Y-130873054D01*
X185722526Y-130873054D02*
X185817764Y-130825435D01*
X185817764Y-130825435D02*
X186008240Y-130777816D01*
X186008240Y-130777816D02*
X186151097Y-130777816D01*
X186151097Y-130777816D02*
X186341573Y-130825435D01*
X186341573Y-130825435D02*
X186436811Y-130873054D01*
X186436811Y-130873054D02*
X186532050Y-130968292D01*
X186532050Y-130968292D02*
X186579669Y-131111149D01*
X186579669Y-131111149D02*
X186579669Y-131349244D01*
X186579669Y-130301625D02*
X186579669Y-130111149D01*
X186579669Y-130111149D02*
X186532050Y-130015911D01*
X186532050Y-130015911D02*
X186484430Y-129968292D01*
X186484430Y-129968292D02*
X186341573Y-129873054D01*
X186341573Y-129873054D02*
X186151097Y-129825435D01*
X186151097Y-129825435D02*
X185770145Y-129825435D01*
X185770145Y-129825435D02*
X185674907Y-129873054D01*
X185674907Y-129873054D02*
X185627288Y-129920673D01*
X185627288Y-129920673D02*
X185579669Y-130015911D01*
X185579669Y-130015911D02*
X185579669Y-130206387D01*
X185579669Y-130206387D02*
X185627288Y-130301625D01*
X185627288Y-130301625D02*
X185674907Y-130349244D01*
X185674907Y-130349244D02*
X185770145Y-130396863D01*
X185770145Y-130396863D02*
X186008240Y-130396863D01*
X186008240Y-130396863D02*
X186103478Y-130349244D01*
X186103478Y-130349244D02*
X186151097Y-130301625D01*
X186151097Y-130301625D02*
X186198716Y-130206387D01*
X186198716Y-130206387D02*
X186198716Y-130015911D01*
X186198716Y-130015911D02*
X186151097Y-129920673D01*
X186151097Y-129920673D02*
X186103478Y-129873054D01*
X186103478Y-129873054D02*
X186008240Y-129825435D01*
X199051069Y-118115844D02*
X198051069Y-118115844D01*
X198051069Y-118115844D02*
X198051069Y-117877749D01*
X198051069Y-117877749D02*
X198098688Y-117734892D01*
X198098688Y-117734892D02*
X198193926Y-117639654D01*
X198193926Y-117639654D02*
X198289164Y-117592035D01*
X198289164Y-117592035D02*
X198479640Y-117544416D01*
X198479640Y-117544416D02*
X198622497Y-117544416D01*
X198622497Y-117544416D02*
X198812973Y-117592035D01*
X198812973Y-117592035D02*
X198908211Y-117639654D01*
X198908211Y-117639654D02*
X199003450Y-117734892D01*
X199003450Y-117734892D02*
X199051069Y-117877749D01*
X199051069Y-117877749D02*
X199051069Y-118115844D01*
X198051069Y-117211082D02*
X198051069Y-116544416D01*
X198051069Y-116544416D02*
X199051069Y-116972987D01*
X111976819Y-79446333D02*
X112691104Y-79446333D01*
X112691104Y-79446333D02*
X112833961Y-79493952D01*
X112833961Y-79493952D02*
X112929200Y-79589190D01*
X112929200Y-79589190D02*
X112976819Y-79732047D01*
X112976819Y-79732047D02*
X112976819Y-79827285D01*
X112976819Y-78970142D02*
X111976819Y-78970142D01*
X111976819Y-78970142D02*
X111976819Y-78589190D01*
X111976819Y-78589190D02*
X112024438Y-78493952D01*
X112024438Y-78493952D02*
X112072057Y-78446333D01*
X112072057Y-78446333D02*
X112167295Y-78398714D01*
X112167295Y-78398714D02*
X112310152Y-78398714D01*
X112310152Y-78398714D02*
X112405390Y-78446333D01*
X112405390Y-78446333D02*
X112453009Y-78493952D01*
X112453009Y-78493952D02*
X112500628Y-78589190D01*
X112500628Y-78589190D02*
X112500628Y-78970142D01*
X112976819Y-77446333D02*
X112976819Y-78017761D01*
X112976819Y-77732047D02*
X111976819Y-77732047D01*
X111976819Y-77732047D02*
X112119676Y-77827285D01*
X112119676Y-77827285D02*
X112214914Y-77922523D01*
X112214914Y-77922523D02*
X112262533Y-78017761D01*
X111071819Y-77027285D02*
X111071819Y-77598713D01*
X111071819Y-77312999D02*
X110071819Y-77312999D01*
X110071819Y-77312999D02*
X110214676Y-77408237D01*
X110214676Y-77408237D02*
X110309914Y-77503475D01*
X110309914Y-77503475D02*
X110357533Y-77598713D01*
X110071819Y-82846332D02*
X110071819Y-82227285D01*
X110071819Y-82227285D02*
X110452771Y-82560618D01*
X110452771Y-82560618D02*
X110452771Y-82417761D01*
X110452771Y-82417761D02*
X110500390Y-82322523D01*
X110500390Y-82322523D02*
X110548009Y-82274904D01*
X110548009Y-82274904D02*
X110643247Y-82227285D01*
X110643247Y-82227285D02*
X110881342Y-82227285D01*
X110881342Y-82227285D02*
X110976580Y-82274904D01*
X110976580Y-82274904D02*
X111024200Y-82322523D01*
X111024200Y-82322523D02*
X111071819Y-82417761D01*
X111071819Y-82417761D02*
X111071819Y-82703475D01*
X111071819Y-82703475D02*
X111024200Y-82798713D01*
X111024200Y-82798713D02*
X110976580Y-82846332D01*
X180557819Y-44235666D02*
X180081628Y-44568999D01*
X180557819Y-44807094D02*
X179557819Y-44807094D01*
X179557819Y-44807094D02*
X179557819Y-44426142D01*
X179557819Y-44426142D02*
X179605438Y-44330904D01*
X179605438Y-44330904D02*
X179653057Y-44283285D01*
X179653057Y-44283285D02*
X179748295Y-44235666D01*
X179748295Y-44235666D02*
X179891152Y-44235666D01*
X179891152Y-44235666D02*
X179986390Y-44283285D01*
X179986390Y-44283285D02*
X180034009Y-44330904D01*
X180034009Y-44330904D02*
X180081628Y-44426142D01*
X180081628Y-44426142D02*
X180081628Y-44807094D01*
X180557819Y-43283285D02*
X180557819Y-43854713D01*
X180557819Y-43568999D02*
X179557819Y-43568999D01*
X179557819Y-43568999D02*
X179700676Y-43664237D01*
X179700676Y-43664237D02*
X179795914Y-43759475D01*
X179795914Y-43759475D02*
X179843533Y-43854713D01*
X144907095Y-50279819D02*
X144907095Y-49279819D01*
X144907095Y-49756009D02*
X145478523Y-49756009D01*
X145478523Y-50279819D02*
X145478523Y-49279819D01*
X145859476Y-49279819D02*
X146478523Y-49279819D01*
X146478523Y-49279819D02*
X146145190Y-49660771D01*
X146145190Y-49660771D02*
X146288047Y-49660771D01*
X146288047Y-49660771D02*
X146383285Y-49708390D01*
X146383285Y-49708390D02*
X146430904Y-49756009D01*
X146430904Y-49756009D02*
X146478523Y-49851247D01*
X146478523Y-49851247D02*
X146478523Y-50089342D01*
X146478523Y-50089342D02*
X146430904Y-50184580D01*
X146430904Y-50184580D02*
X146383285Y-50232200D01*
X146383285Y-50232200D02*
X146288047Y-50279819D01*
X146288047Y-50279819D02*
X146002333Y-50279819D01*
X146002333Y-50279819D02*
X145907095Y-50232200D01*
X145907095Y-50232200D02*
X145859476Y-50184580D01*
X202657869Y-111461044D02*
X201657869Y-111461044D01*
X201657869Y-111461044D02*
X201657869Y-111222949D01*
X201657869Y-111222949D02*
X201705488Y-111080092D01*
X201705488Y-111080092D02*
X201800726Y-110984854D01*
X201800726Y-110984854D02*
X201895964Y-110937235D01*
X201895964Y-110937235D02*
X202086440Y-110889616D01*
X202086440Y-110889616D02*
X202229297Y-110889616D01*
X202229297Y-110889616D02*
X202419773Y-110937235D01*
X202419773Y-110937235D02*
X202515011Y-110984854D01*
X202515011Y-110984854D02*
X202610250Y-111080092D01*
X202610250Y-111080092D02*
X202657869Y-111222949D01*
X202657869Y-111222949D02*
X202657869Y-111461044D01*
X201657869Y-109984854D02*
X201657869Y-110461044D01*
X201657869Y-110461044D02*
X202134059Y-110508663D01*
X202134059Y-110508663D02*
X202086440Y-110461044D01*
X202086440Y-110461044D02*
X202038821Y-110365806D01*
X202038821Y-110365806D02*
X202038821Y-110127711D01*
X202038821Y-110127711D02*
X202086440Y-110032473D01*
X202086440Y-110032473D02*
X202134059Y-109984854D01*
X202134059Y-109984854D02*
X202229297Y-109937235D01*
X202229297Y-109937235D02*
X202467392Y-109937235D01*
X202467392Y-109937235D02*
X202562630Y-109984854D01*
X202562630Y-109984854D02*
X202610250Y-110032473D01*
X202610250Y-110032473D02*
X202657869Y-110127711D01*
X202657869Y-110127711D02*
X202657869Y-110365806D01*
X202657869Y-110365806D02*
X202610250Y-110461044D01*
X202610250Y-110461044D02*
X202562630Y-110508663D01*
X120403580Y-63634857D02*
X120451200Y-63682476D01*
X120451200Y-63682476D02*
X120498819Y-63825333D01*
X120498819Y-63825333D02*
X120498819Y-63920571D01*
X120498819Y-63920571D02*
X120451200Y-64063428D01*
X120451200Y-64063428D02*
X120355961Y-64158666D01*
X120355961Y-64158666D02*
X120260723Y-64206285D01*
X120260723Y-64206285D02*
X120070247Y-64253904D01*
X120070247Y-64253904D02*
X119927390Y-64253904D01*
X119927390Y-64253904D02*
X119736914Y-64206285D01*
X119736914Y-64206285D02*
X119641676Y-64158666D01*
X119641676Y-64158666D02*
X119546438Y-64063428D01*
X119546438Y-64063428D02*
X119498819Y-63920571D01*
X119498819Y-63920571D02*
X119498819Y-63825333D01*
X119498819Y-63825333D02*
X119546438Y-63682476D01*
X119546438Y-63682476D02*
X119594057Y-63634857D01*
X120498819Y-62682476D02*
X120498819Y-63253904D01*
X120498819Y-62968190D02*
X119498819Y-62968190D01*
X119498819Y-62968190D02*
X119641676Y-63063428D01*
X119641676Y-63063428D02*
X119736914Y-63158666D01*
X119736914Y-63158666D02*
X119784533Y-63253904D01*
X120498819Y-62206285D02*
X120498819Y-62015809D01*
X120498819Y-62015809D02*
X120451200Y-61920571D01*
X120451200Y-61920571D02*
X120403580Y-61872952D01*
X120403580Y-61872952D02*
X120260723Y-61777714D01*
X120260723Y-61777714D02*
X120070247Y-61730095D01*
X120070247Y-61730095D02*
X119689295Y-61730095D01*
X119689295Y-61730095D02*
X119594057Y-61777714D01*
X119594057Y-61777714D02*
X119546438Y-61825333D01*
X119546438Y-61825333D02*
X119498819Y-61920571D01*
X119498819Y-61920571D02*
X119498819Y-62111047D01*
X119498819Y-62111047D02*
X119546438Y-62206285D01*
X119546438Y-62206285D02*
X119594057Y-62253904D01*
X119594057Y-62253904D02*
X119689295Y-62301523D01*
X119689295Y-62301523D02*
X119927390Y-62301523D01*
X119927390Y-62301523D02*
X120022628Y-62253904D01*
X120022628Y-62253904D02*
X120070247Y-62206285D01*
X120070247Y-62206285D02*
X120117866Y-62111047D01*
X120117866Y-62111047D02*
X120117866Y-61920571D01*
X120117866Y-61920571D02*
X120070247Y-61825333D01*
X120070247Y-61825333D02*
X120022628Y-61777714D01*
X120022628Y-61777714D02*
X119927390Y-61730095D01*
X201676095Y-58661819D02*
X201676095Y-57661819D01*
X201676095Y-58138009D02*
X202247523Y-58138009D01*
X202247523Y-58661819D02*
X202247523Y-57661819D01*
X202676095Y-57757057D02*
X202723714Y-57709438D01*
X202723714Y-57709438D02*
X202818952Y-57661819D01*
X202818952Y-57661819D02*
X203057047Y-57661819D01*
X203057047Y-57661819D02*
X203152285Y-57709438D01*
X203152285Y-57709438D02*
X203199904Y-57757057D01*
X203199904Y-57757057D02*
X203247523Y-57852295D01*
X203247523Y-57852295D02*
X203247523Y-57947533D01*
X203247523Y-57947533D02*
X203199904Y-58090390D01*
X203199904Y-58090390D02*
X202628476Y-58661819D01*
X202628476Y-58661819D02*
X203247523Y-58661819D01*
X159909095Y-136512819D02*
X159909095Y-135512819D01*
X159909095Y-135989009D02*
X160480523Y-135989009D01*
X160480523Y-136512819D02*
X160480523Y-135512819D01*
X161480523Y-136512819D02*
X160909095Y-136512819D01*
X161194809Y-136512819D02*
X161194809Y-135512819D01*
X161194809Y-135512819D02*
X161099571Y-135655676D01*
X161099571Y-135655676D02*
X161004333Y-135750914D01*
X161004333Y-135750914D02*
X160909095Y-135798533D01*
X131818142Y-78431819D02*
X131484809Y-77955628D01*
X131246714Y-78431819D02*
X131246714Y-77431819D01*
X131246714Y-77431819D02*
X131627666Y-77431819D01*
X131627666Y-77431819D02*
X131722904Y-77479438D01*
X131722904Y-77479438D02*
X131770523Y-77527057D01*
X131770523Y-77527057D02*
X131818142Y-77622295D01*
X131818142Y-77622295D02*
X131818142Y-77765152D01*
X131818142Y-77765152D02*
X131770523Y-77860390D01*
X131770523Y-77860390D02*
X131722904Y-77908009D01*
X131722904Y-77908009D02*
X131627666Y-77955628D01*
X131627666Y-77955628D02*
X131246714Y-77955628D01*
X132770523Y-78431819D02*
X132199095Y-78431819D01*
X132484809Y-78431819D02*
X132484809Y-77431819D01*
X132484809Y-77431819D02*
X132389571Y-77574676D01*
X132389571Y-77574676D02*
X132294333Y-77669914D01*
X132294333Y-77669914D02*
X132199095Y-77717533D01*
X133389571Y-77431819D02*
X133484809Y-77431819D01*
X133484809Y-77431819D02*
X133580047Y-77479438D01*
X133580047Y-77479438D02*
X133627666Y-77527057D01*
X133627666Y-77527057D02*
X133675285Y-77622295D01*
X133675285Y-77622295D02*
X133722904Y-77812771D01*
X133722904Y-77812771D02*
X133722904Y-78050866D01*
X133722904Y-78050866D02*
X133675285Y-78241342D01*
X133675285Y-78241342D02*
X133627666Y-78336580D01*
X133627666Y-78336580D02*
X133580047Y-78384200D01*
X133580047Y-78384200D02*
X133484809Y-78431819D01*
X133484809Y-78431819D02*
X133389571Y-78431819D01*
X133389571Y-78431819D02*
X133294333Y-78384200D01*
X133294333Y-78384200D02*
X133246714Y-78336580D01*
X133246714Y-78336580D02*
X133199095Y-78241342D01*
X133199095Y-78241342D02*
X133151476Y-78050866D01*
X133151476Y-78050866D02*
X133151476Y-77812771D01*
X133151476Y-77812771D02*
X133199095Y-77622295D01*
X133199095Y-77622295D02*
X133246714Y-77527057D01*
X133246714Y-77527057D02*
X133294333Y-77479438D01*
X133294333Y-77479438D02*
X133389571Y-77431819D01*
X172659819Y-43415094D02*
X171659819Y-43415094D01*
X171659819Y-43415094D02*
X171659819Y-43176999D01*
X171659819Y-43176999D02*
X171707438Y-43034142D01*
X171707438Y-43034142D02*
X171802676Y-42938904D01*
X171802676Y-42938904D02*
X171897914Y-42891285D01*
X171897914Y-42891285D02*
X172088390Y-42843666D01*
X172088390Y-42843666D02*
X172231247Y-42843666D01*
X172231247Y-42843666D02*
X172421723Y-42891285D01*
X172421723Y-42891285D02*
X172516961Y-42938904D01*
X172516961Y-42938904D02*
X172612200Y-43034142D01*
X172612200Y-43034142D02*
X172659819Y-43176999D01*
X172659819Y-43176999D02*
X172659819Y-43415094D01*
X171755057Y-42462713D02*
X171707438Y-42415094D01*
X171707438Y-42415094D02*
X171659819Y-42319856D01*
X171659819Y-42319856D02*
X171659819Y-42081761D01*
X171659819Y-42081761D02*
X171707438Y-41986523D01*
X171707438Y-41986523D02*
X171755057Y-41938904D01*
X171755057Y-41938904D02*
X171850295Y-41891285D01*
X171850295Y-41891285D02*
X171945533Y-41891285D01*
X171945533Y-41891285D02*
X172088390Y-41938904D01*
X172088390Y-41938904D02*
X172659819Y-42510332D01*
X172659819Y-42510332D02*
X172659819Y-41891285D01*
X185126333Y-78366580D02*
X185078714Y-78414200D01*
X185078714Y-78414200D02*
X184935857Y-78461819D01*
X184935857Y-78461819D02*
X184840619Y-78461819D01*
X184840619Y-78461819D02*
X184697762Y-78414200D01*
X184697762Y-78414200D02*
X184602524Y-78318961D01*
X184602524Y-78318961D02*
X184554905Y-78223723D01*
X184554905Y-78223723D02*
X184507286Y-78033247D01*
X184507286Y-78033247D02*
X184507286Y-77890390D01*
X184507286Y-77890390D02*
X184554905Y-77699914D01*
X184554905Y-77699914D02*
X184602524Y-77604676D01*
X184602524Y-77604676D02*
X184697762Y-77509438D01*
X184697762Y-77509438D02*
X184840619Y-77461819D01*
X184840619Y-77461819D02*
X184935857Y-77461819D01*
X184935857Y-77461819D02*
X185078714Y-77509438D01*
X185078714Y-77509438D02*
X185126333Y-77557057D01*
X185459667Y-77461819D02*
X186126333Y-77461819D01*
X186126333Y-77461819D02*
X185697762Y-78461819D01*
X138647819Y-43727666D02*
X138171628Y-44060999D01*
X138647819Y-44299094D02*
X137647819Y-44299094D01*
X137647819Y-44299094D02*
X137647819Y-43918142D01*
X137647819Y-43918142D02*
X137695438Y-43822904D01*
X137695438Y-43822904D02*
X137743057Y-43775285D01*
X137743057Y-43775285D02*
X137838295Y-43727666D01*
X137838295Y-43727666D02*
X137981152Y-43727666D01*
X137981152Y-43727666D02*
X138076390Y-43775285D01*
X138076390Y-43775285D02*
X138124009Y-43822904D01*
X138124009Y-43822904D02*
X138171628Y-43918142D01*
X138171628Y-43918142D02*
X138171628Y-44299094D01*
X137981152Y-42870523D02*
X138647819Y-42870523D01*
X137600200Y-43108618D02*
X138314485Y-43346713D01*
X138314485Y-43346713D02*
X138314485Y-42727666D01*
X144692905Y-47317819D02*
X144692905Y-46317819D01*
X144692905Y-46317819D02*
X144931000Y-46317819D01*
X144931000Y-46317819D02*
X145073857Y-46365438D01*
X145073857Y-46365438D02*
X145169095Y-46460676D01*
X145169095Y-46460676D02*
X145216714Y-46555914D01*
X145216714Y-46555914D02*
X145264333Y-46746390D01*
X145264333Y-46746390D02*
X145264333Y-46889247D01*
X145264333Y-46889247D02*
X145216714Y-47079723D01*
X145216714Y-47079723D02*
X145169095Y-47174961D01*
X145169095Y-47174961D02*
X145073857Y-47270200D01*
X145073857Y-47270200D02*
X144931000Y-47317819D01*
X144931000Y-47317819D02*
X144692905Y-47317819D01*
X145597667Y-46317819D02*
X146216714Y-46317819D01*
X146216714Y-46317819D02*
X145883381Y-46698771D01*
X145883381Y-46698771D02*
X146026238Y-46698771D01*
X146026238Y-46698771D02*
X146121476Y-46746390D01*
X146121476Y-46746390D02*
X146169095Y-46794009D01*
X146169095Y-46794009D02*
X146216714Y-46889247D01*
X146216714Y-46889247D02*
X146216714Y-47127342D01*
X146216714Y-47127342D02*
X146169095Y-47222580D01*
X146169095Y-47222580D02*
X146121476Y-47270200D01*
X146121476Y-47270200D02*
X146026238Y-47317819D01*
X146026238Y-47317819D02*
X145740524Y-47317819D01*
X145740524Y-47317819D02*
X145645286Y-47270200D01*
X145645286Y-47270200D02*
X145597667Y-47222580D01*
X173474142Y-57654580D02*
X173426523Y-57702200D01*
X173426523Y-57702200D02*
X173283666Y-57749819D01*
X173283666Y-57749819D02*
X173188428Y-57749819D01*
X173188428Y-57749819D02*
X173045571Y-57702200D01*
X173045571Y-57702200D02*
X172950333Y-57606961D01*
X172950333Y-57606961D02*
X172902714Y-57511723D01*
X172902714Y-57511723D02*
X172855095Y-57321247D01*
X172855095Y-57321247D02*
X172855095Y-57178390D01*
X172855095Y-57178390D02*
X172902714Y-56987914D01*
X172902714Y-56987914D02*
X172950333Y-56892676D01*
X172950333Y-56892676D02*
X173045571Y-56797438D01*
X173045571Y-56797438D02*
X173188428Y-56749819D01*
X173188428Y-56749819D02*
X173283666Y-56749819D01*
X173283666Y-56749819D02*
X173426523Y-56797438D01*
X173426523Y-56797438D02*
X173474142Y-56845057D01*
X174426523Y-57749819D02*
X173855095Y-57749819D01*
X174140809Y-57749819D02*
X174140809Y-56749819D01*
X174140809Y-56749819D02*
X174045571Y-56892676D01*
X174045571Y-56892676D02*
X173950333Y-56987914D01*
X173950333Y-56987914D02*
X173855095Y-57035533D01*
X174997952Y-57178390D02*
X174902714Y-57130771D01*
X174902714Y-57130771D02*
X174855095Y-57083152D01*
X174855095Y-57083152D02*
X174807476Y-56987914D01*
X174807476Y-56987914D02*
X174807476Y-56940295D01*
X174807476Y-56940295D02*
X174855095Y-56845057D01*
X174855095Y-56845057D02*
X174902714Y-56797438D01*
X174902714Y-56797438D02*
X174997952Y-56749819D01*
X174997952Y-56749819D02*
X175188428Y-56749819D01*
X175188428Y-56749819D02*
X175283666Y-56797438D01*
X175283666Y-56797438D02*
X175331285Y-56845057D01*
X175331285Y-56845057D02*
X175378904Y-56940295D01*
X175378904Y-56940295D02*
X175378904Y-56987914D01*
X175378904Y-56987914D02*
X175331285Y-57083152D01*
X175331285Y-57083152D02*
X175283666Y-57130771D01*
X175283666Y-57130771D02*
X175188428Y-57178390D01*
X175188428Y-57178390D02*
X174997952Y-57178390D01*
X174997952Y-57178390D02*
X174902714Y-57226009D01*
X174902714Y-57226009D02*
X174855095Y-57273628D01*
X174855095Y-57273628D02*
X174807476Y-57368866D01*
X174807476Y-57368866D02*
X174807476Y-57559342D01*
X174807476Y-57559342D02*
X174855095Y-57654580D01*
X174855095Y-57654580D02*
X174902714Y-57702200D01*
X174902714Y-57702200D02*
X174997952Y-57749819D01*
X174997952Y-57749819D02*
X175188428Y-57749819D01*
X175188428Y-57749819D02*
X175283666Y-57702200D01*
X175283666Y-57702200D02*
X175331285Y-57654580D01*
X175331285Y-57654580D02*
X175378904Y-57559342D01*
X175378904Y-57559342D02*
X175378904Y-57368866D01*
X175378904Y-57368866D02*
X175331285Y-57273628D01*
X175331285Y-57273628D02*
X175283666Y-57226009D01*
X175283666Y-57226009D02*
X175188428Y-57178390D01*
X190762142Y-83258819D02*
X190428809Y-82782628D01*
X190190714Y-83258819D02*
X190190714Y-82258819D01*
X190190714Y-82258819D02*
X190571666Y-82258819D01*
X190571666Y-82258819D02*
X190666904Y-82306438D01*
X190666904Y-82306438D02*
X190714523Y-82354057D01*
X190714523Y-82354057D02*
X190762142Y-82449295D01*
X190762142Y-82449295D02*
X190762142Y-82592152D01*
X190762142Y-82592152D02*
X190714523Y-82687390D01*
X190714523Y-82687390D02*
X190666904Y-82735009D01*
X190666904Y-82735009D02*
X190571666Y-82782628D01*
X190571666Y-82782628D02*
X190190714Y-82782628D01*
X191714523Y-83258819D02*
X191143095Y-83258819D01*
X191428809Y-83258819D02*
X191428809Y-82258819D01*
X191428809Y-82258819D02*
X191333571Y-82401676D01*
X191333571Y-82401676D02*
X191238333Y-82496914D01*
X191238333Y-82496914D02*
X191143095Y-82544533D01*
X192047857Y-82258819D02*
X192666904Y-82258819D01*
X192666904Y-82258819D02*
X192333571Y-82639771D01*
X192333571Y-82639771D02*
X192476428Y-82639771D01*
X192476428Y-82639771D02*
X192571666Y-82687390D01*
X192571666Y-82687390D02*
X192619285Y-82735009D01*
X192619285Y-82735009D02*
X192666904Y-82830247D01*
X192666904Y-82830247D02*
X192666904Y-83068342D01*
X192666904Y-83068342D02*
X192619285Y-83163580D01*
X192619285Y-83163580D02*
X192571666Y-83211200D01*
X192571666Y-83211200D02*
X192476428Y-83258819D01*
X192476428Y-83258819D02*
X192190714Y-83258819D01*
X192190714Y-83258819D02*
X192095476Y-83211200D01*
X192095476Y-83211200D02*
X192047857Y-83163580D01*
X155028819Y-43473666D02*
X154552628Y-43806999D01*
X155028819Y-44045094D02*
X154028819Y-44045094D01*
X154028819Y-44045094D02*
X154028819Y-43664142D01*
X154028819Y-43664142D02*
X154076438Y-43568904D01*
X154076438Y-43568904D02*
X154124057Y-43521285D01*
X154124057Y-43521285D02*
X154219295Y-43473666D01*
X154219295Y-43473666D02*
X154362152Y-43473666D01*
X154362152Y-43473666D02*
X154457390Y-43521285D01*
X154457390Y-43521285D02*
X154505009Y-43568904D01*
X154505009Y-43568904D02*
X154552628Y-43664142D01*
X154552628Y-43664142D02*
X154552628Y-44045094D01*
X154028819Y-43140332D02*
X154028819Y-42521285D01*
X154028819Y-42521285D02*
X154409771Y-42854618D01*
X154409771Y-42854618D02*
X154409771Y-42711761D01*
X154409771Y-42711761D02*
X154457390Y-42616523D01*
X154457390Y-42616523D02*
X154505009Y-42568904D01*
X154505009Y-42568904D02*
X154600247Y-42521285D01*
X154600247Y-42521285D02*
X154838342Y-42521285D01*
X154838342Y-42521285D02*
X154933580Y-42568904D01*
X154933580Y-42568904D02*
X154981200Y-42616523D01*
X154981200Y-42616523D02*
X155028819Y-42711761D01*
X155028819Y-42711761D02*
X155028819Y-42997475D01*
X155028819Y-42997475D02*
X154981200Y-43092713D01*
X154981200Y-43092713D02*
X154933580Y-43140332D01*
X190762142Y-85798819D02*
X190428809Y-85322628D01*
X190190714Y-85798819D02*
X190190714Y-84798819D01*
X190190714Y-84798819D02*
X190571666Y-84798819D01*
X190571666Y-84798819D02*
X190666904Y-84846438D01*
X190666904Y-84846438D02*
X190714523Y-84894057D01*
X190714523Y-84894057D02*
X190762142Y-84989295D01*
X190762142Y-84989295D02*
X190762142Y-85132152D01*
X190762142Y-85132152D02*
X190714523Y-85227390D01*
X190714523Y-85227390D02*
X190666904Y-85275009D01*
X190666904Y-85275009D02*
X190571666Y-85322628D01*
X190571666Y-85322628D02*
X190190714Y-85322628D01*
X191714523Y-85798819D02*
X191143095Y-85798819D01*
X191428809Y-85798819D02*
X191428809Y-84798819D01*
X191428809Y-84798819D02*
X191333571Y-84941676D01*
X191333571Y-84941676D02*
X191238333Y-85036914D01*
X191238333Y-85036914D02*
X191143095Y-85084533D01*
X192571666Y-85132152D02*
X192571666Y-85798819D01*
X192333571Y-84751200D02*
X192095476Y-85465485D01*
X192095476Y-85465485D02*
X192714523Y-85465485D01*
X135701069Y-131947435D02*
X134701069Y-131947435D01*
X134701069Y-131947435D02*
X134701069Y-131709340D01*
X134701069Y-131709340D02*
X134748688Y-131566483D01*
X134748688Y-131566483D02*
X134843926Y-131471245D01*
X134843926Y-131471245D02*
X134939164Y-131423626D01*
X134939164Y-131423626D02*
X135129640Y-131376007D01*
X135129640Y-131376007D02*
X135272497Y-131376007D01*
X135272497Y-131376007D02*
X135462973Y-131423626D01*
X135462973Y-131423626D02*
X135558211Y-131471245D01*
X135558211Y-131471245D02*
X135653450Y-131566483D01*
X135653450Y-131566483D02*
X135701069Y-131709340D01*
X135701069Y-131709340D02*
X135701069Y-131947435D01*
X135701069Y-130423626D02*
X135701069Y-130995054D01*
X135701069Y-130709340D02*
X134701069Y-130709340D01*
X134701069Y-130709340D02*
X134843926Y-130804578D01*
X134843926Y-130804578D02*
X134939164Y-130899816D01*
X134939164Y-130899816D02*
X134986783Y-130995054D01*
X134701069Y-129804578D02*
X134701069Y-129709340D01*
X134701069Y-129709340D02*
X134748688Y-129614102D01*
X134748688Y-129614102D02*
X134796307Y-129566483D01*
X134796307Y-129566483D02*
X134891545Y-129518864D01*
X134891545Y-129518864D02*
X135082021Y-129471245D01*
X135082021Y-129471245D02*
X135320116Y-129471245D01*
X135320116Y-129471245D02*
X135510592Y-129518864D01*
X135510592Y-129518864D02*
X135605830Y-129566483D01*
X135605830Y-129566483D02*
X135653450Y-129614102D01*
X135653450Y-129614102D02*
X135701069Y-129709340D01*
X135701069Y-129709340D02*
X135701069Y-129804578D01*
X135701069Y-129804578D02*
X135653450Y-129899816D01*
X135653450Y-129899816D02*
X135605830Y-129947435D01*
X135605830Y-129947435D02*
X135510592Y-129995054D01*
X135510592Y-129995054D02*
X135320116Y-130042673D01*
X135320116Y-130042673D02*
X135082021Y-130042673D01*
X135082021Y-130042673D02*
X134891545Y-129995054D01*
X134891545Y-129995054D02*
X134796307Y-129947435D01*
X134796307Y-129947435D02*
X134748688Y-129899816D01*
X134748688Y-129899816D02*
X134701069Y-129804578D01*
X190381142Y-93418819D02*
X190047809Y-92942628D01*
X189809714Y-93418819D02*
X189809714Y-92418819D01*
X189809714Y-92418819D02*
X190190666Y-92418819D01*
X190190666Y-92418819D02*
X190285904Y-92466438D01*
X190285904Y-92466438D02*
X190333523Y-92514057D01*
X190333523Y-92514057D02*
X190381142Y-92609295D01*
X190381142Y-92609295D02*
X190381142Y-92752152D01*
X190381142Y-92752152D02*
X190333523Y-92847390D01*
X190333523Y-92847390D02*
X190285904Y-92895009D01*
X190285904Y-92895009D02*
X190190666Y-92942628D01*
X190190666Y-92942628D02*
X189809714Y-92942628D01*
X191333523Y-93418819D02*
X190762095Y-93418819D01*
X191047809Y-93418819D02*
X191047809Y-92418819D01*
X191047809Y-92418819D02*
X190952571Y-92561676D01*
X190952571Y-92561676D02*
X190857333Y-92656914D01*
X190857333Y-92656914D02*
X190762095Y-92704533D01*
X191666857Y-92418819D02*
X192333523Y-92418819D01*
X192333523Y-92418819D02*
X191904952Y-93418819D01*
X171157819Y-43473666D02*
X170681628Y-43806999D01*
X171157819Y-44045094D02*
X170157819Y-44045094D01*
X170157819Y-44045094D02*
X170157819Y-43664142D01*
X170157819Y-43664142D02*
X170205438Y-43568904D01*
X170205438Y-43568904D02*
X170253057Y-43521285D01*
X170253057Y-43521285D02*
X170348295Y-43473666D01*
X170348295Y-43473666D02*
X170491152Y-43473666D01*
X170491152Y-43473666D02*
X170586390Y-43521285D01*
X170586390Y-43521285D02*
X170634009Y-43568904D01*
X170634009Y-43568904D02*
X170681628Y-43664142D01*
X170681628Y-43664142D02*
X170681628Y-44045094D01*
X170253057Y-43092713D02*
X170205438Y-43045094D01*
X170205438Y-43045094D02*
X170157819Y-42949856D01*
X170157819Y-42949856D02*
X170157819Y-42711761D01*
X170157819Y-42711761D02*
X170205438Y-42616523D01*
X170205438Y-42616523D02*
X170253057Y-42568904D01*
X170253057Y-42568904D02*
X170348295Y-42521285D01*
X170348295Y-42521285D02*
X170443533Y-42521285D01*
X170443533Y-42521285D02*
X170586390Y-42568904D01*
X170586390Y-42568904D02*
X171157819Y-43140332D01*
X171157819Y-43140332D02*
X171157819Y-42521285D01*
X129242569Y-71381857D02*
X128766378Y-71715190D01*
X129242569Y-71953285D02*
X128242569Y-71953285D01*
X128242569Y-71953285D02*
X128242569Y-71572333D01*
X128242569Y-71572333D02*
X128290188Y-71477095D01*
X128290188Y-71477095D02*
X128337807Y-71429476D01*
X128337807Y-71429476D02*
X128433045Y-71381857D01*
X128433045Y-71381857D02*
X128575902Y-71381857D01*
X128575902Y-71381857D02*
X128671140Y-71429476D01*
X128671140Y-71429476D02*
X128718759Y-71477095D01*
X128718759Y-71477095D02*
X128766378Y-71572333D01*
X128766378Y-71572333D02*
X128766378Y-71953285D01*
X129242569Y-70429476D02*
X129242569Y-71000904D01*
X129242569Y-70715190D02*
X128242569Y-70715190D01*
X128242569Y-70715190D02*
X128385426Y-70810428D01*
X128385426Y-70810428D02*
X128480664Y-70905666D01*
X128480664Y-70905666D02*
X128528283Y-71000904D01*
X129242569Y-69477095D02*
X129242569Y-70048523D01*
X129242569Y-69762809D02*
X128242569Y-69762809D01*
X128242569Y-69762809D02*
X128385426Y-69858047D01*
X128385426Y-69858047D02*
X128480664Y-69953285D01*
X128480664Y-69953285D02*
X128528283Y-70048523D01*
X110228142Y-72590819D02*
X109894809Y-72114628D01*
X109656714Y-72590819D02*
X109656714Y-71590819D01*
X109656714Y-71590819D02*
X110037666Y-71590819D01*
X110037666Y-71590819D02*
X110132904Y-71638438D01*
X110132904Y-71638438D02*
X110180523Y-71686057D01*
X110180523Y-71686057D02*
X110228142Y-71781295D01*
X110228142Y-71781295D02*
X110228142Y-71924152D01*
X110228142Y-71924152D02*
X110180523Y-72019390D01*
X110180523Y-72019390D02*
X110132904Y-72067009D01*
X110132904Y-72067009D02*
X110037666Y-72114628D01*
X110037666Y-72114628D02*
X109656714Y-72114628D01*
X110609095Y-71686057D02*
X110656714Y-71638438D01*
X110656714Y-71638438D02*
X110751952Y-71590819D01*
X110751952Y-71590819D02*
X110990047Y-71590819D01*
X110990047Y-71590819D02*
X111085285Y-71638438D01*
X111085285Y-71638438D02*
X111132904Y-71686057D01*
X111132904Y-71686057D02*
X111180523Y-71781295D01*
X111180523Y-71781295D02*
X111180523Y-71876533D01*
X111180523Y-71876533D02*
X111132904Y-72019390D01*
X111132904Y-72019390D02*
X110561476Y-72590819D01*
X110561476Y-72590819D02*
X111180523Y-72590819D01*
X112037666Y-71590819D02*
X111847190Y-71590819D01*
X111847190Y-71590819D02*
X111751952Y-71638438D01*
X111751952Y-71638438D02*
X111704333Y-71686057D01*
X111704333Y-71686057D02*
X111609095Y-71828914D01*
X111609095Y-71828914D02*
X111561476Y-72019390D01*
X111561476Y-72019390D02*
X111561476Y-72400342D01*
X111561476Y-72400342D02*
X111609095Y-72495580D01*
X111609095Y-72495580D02*
X111656714Y-72543200D01*
X111656714Y-72543200D02*
X111751952Y-72590819D01*
X111751952Y-72590819D02*
X111942428Y-72590819D01*
X111942428Y-72590819D02*
X112037666Y-72543200D01*
X112037666Y-72543200D02*
X112085285Y-72495580D01*
X112085285Y-72495580D02*
X112132904Y-72400342D01*
X112132904Y-72400342D02*
X112132904Y-72162247D01*
X112132904Y-72162247D02*
X112085285Y-72067009D01*
X112085285Y-72067009D02*
X112037666Y-72019390D01*
X112037666Y-72019390D02*
X111942428Y-71971771D01*
X111942428Y-71971771D02*
X111751952Y-71971771D01*
X111751952Y-71971771D02*
X111656714Y-72019390D01*
X111656714Y-72019390D02*
X111609095Y-72067009D01*
X111609095Y-72067009D02*
X111561476Y-72162247D01*
X128470819Y-64285666D02*
X127994628Y-64618999D01*
X128470819Y-64857094D02*
X127470819Y-64857094D01*
X127470819Y-64857094D02*
X127470819Y-64476142D01*
X127470819Y-64476142D02*
X127518438Y-64380904D01*
X127518438Y-64380904D02*
X127566057Y-64333285D01*
X127566057Y-64333285D02*
X127661295Y-64285666D01*
X127661295Y-64285666D02*
X127804152Y-64285666D01*
X127804152Y-64285666D02*
X127899390Y-64333285D01*
X127899390Y-64333285D02*
X127947009Y-64380904D01*
X127947009Y-64380904D02*
X127994628Y-64476142D01*
X127994628Y-64476142D02*
X127994628Y-64857094D01*
X127470819Y-63380904D02*
X127470819Y-63857094D01*
X127470819Y-63857094D02*
X127947009Y-63904713D01*
X127947009Y-63904713D02*
X127899390Y-63857094D01*
X127899390Y-63857094D02*
X127851771Y-63761856D01*
X127851771Y-63761856D02*
X127851771Y-63523761D01*
X127851771Y-63523761D02*
X127899390Y-63428523D01*
X127899390Y-63428523D02*
X127947009Y-63380904D01*
X127947009Y-63380904D02*
X128042247Y-63333285D01*
X128042247Y-63333285D02*
X128280342Y-63333285D01*
X128280342Y-63333285D02*
X128375580Y-63380904D01*
X128375580Y-63380904D02*
X128423200Y-63428523D01*
X128423200Y-63428523D02*
X128470819Y-63523761D01*
X128470819Y-63523761D02*
X128470819Y-63761856D01*
X128470819Y-63761856D02*
X128423200Y-63857094D01*
X128423200Y-63857094D02*
X128375580Y-63904713D01*
X120080069Y-111932235D02*
X119080069Y-111932235D01*
X119080069Y-111932235D02*
X119080069Y-111694140D01*
X119080069Y-111694140D02*
X119127688Y-111551283D01*
X119127688Y-111551283D02*
X119222926Y-111456045D01*
X119222926Y-111456045D02*
X119318164Y-111408426D01*
X119318164Y-111408426D02*
X119508640Y-111360807D01*
X119508640Y-111360807D02*
X119651497Y-111360807D01*
X119651497Y-111360807D02*
X119841973Y-111408426D01*
X119841973Y-111408426D02*
X119937211Y-111456045D01*
X119937211Y-111456045D02*
X120032450Y-111551283D01*
X120032450Y-111551283D02*
X120080069Y-111694140D01*
X120080069Y-111694140D02*
X120080069Y-111932235D01*
X120080069Y-110408426D02*
X120080069Y-110979854D01*
X120080069Y-110694140D02*
X119080069Y-110694140D01*
X119080069Y-110694140D02*
X119222926Y-110789378D01*
X119222926Y-110789378D02*
X119318164Y-110884616D01*
X119318164Y-110884616D02*
X119365783Y-110979854D01*
X119080069Y-110075092D02*
X119080069Y-109456045D01*
X119080069Y-109456045D02*
X119461021Y-109789378D01*
X119461021Y-109789378D02*
X119461021Y-109646521D01*
X119461021Y-109646521D02*
X119508640Y-109551283D01*
X119508640Y-109551283D02*
X119556259Y-109503664D01*
X119556259Y-109503664D02*
X119651497Y-109456045D01*
X119651497Y-109456045D02*
X119889592Y-109456045D01*
X119889592Y-109456045D02*
X119984830Y-109503664D01*
X119984830Y-109503664D02*
X120032450Y-109551283D01*
X120032450Y-109551283D02*
X120080069Y-109646521D01*
X120080069Y-109646521D02*
X120080069Y-109932235D01*
X120080069Y-109932235D02*
X120032450Y-110027473D01*
X120032450Y-110027473D02*
X119984830Y-110075092D01*
X108299819Y-99714333D02*
X109014104Y-99714333D01*
X109014104Y-99714333D02*
X109156961Y-99761952D01*
X109156961Y-99761952D02*
X109252200Y-99857190D01*
X109252200Y-99857190D02*
X109299819Y-100000047D01*
X109299819Y-100000047D02*
X109299819Y-100095285D01*
X108299819Y-98809571D02*
X108299819Y-99000047D01*
X108299819Y-99000047D02*
X108347438Y-99095285D01*
X108347438Y-99095285D02*
X108395057Y-99142904D01*
X108395057Y-99142904D02*
X108537914Y-99238142D01*
X108537914Y-99238142D02*
X108728390Y-99285761D01*
X108728390Y-99285761D02*
X109109342Y-99285761D01*
X109109342Y-99285761D02*
X109204580Y-99238142D01*
X109204580Y-99238142D02*
X109252200Y-99190523D01*
X109252200Y-99190523D02*
X109299819Y-99095285D01*
X109299819Y-99095285D02*
X109299819Y-98904809D01*
X109299819Y-98904809D02*
X109252200Y-98809571D01*
X109252200Y-98809571D02*
X109204580Y-98761952D01*
X109204580Y-98761952D02*
X109109342Y-98714333D01*
X109109342Y-98714333D02*
X108871247Y-98714333D01*
X108871247Y-98714333D02*
X108776009Y-98761952D01*
X108776009Y-98761952D02*
X108728390Y-98809571D01*
X108728390Y-98809571D02*
X108680771Y-98904809D01*
X108680771Y-98904809D02*
X108680771Y-99095285D01*
X108680771Y-99095285D02*
X108728390Y-99190523D01*
X108728390Y-99190523D02*
X108776009Y-99238142D01*
X108776009Y-99238142D02*
X108871247Y-99285761D01*
X190762142Y-80591819D02*
X190428809Y-80115628D01*
X190190714Y-80591819D02*
X190190714Y-79591819D01*
X190190714Y-79591819D02*
X190571666Y-79591819D01*
X190571666Y-79591819D02*
X190666904Y-79639438D01*
X190666904Y-79639438D02*
X190714523Y-79687057D01*
X190714523Y-79687057D02*
X190762142Y-79782295D01*
X190762142Y-79782295D02*
X190762142Y-79925152D01*
X190762142Y-79925152D02*
X190714523Y-80020390D01*
X190714523Y-80020390D02*
X190666904Y-80068009D01*
X190666904Y-80068009D02*
X190571666Y-80115628D01*
X190571666Y-80115628D02*
X190190714Y-80115628D01*
X191714523Y-80591819D02*
X191143095Y-80591819D01*
X191428809Y-80591819D02*
X191428809Y-79591819D01*
X191428809Y-79591819D02*
X191333571Y-79734676D01*
X191333571Y-79734676D02*
X191238333Y-79829914D01*
X191238333Y-79829914D02*
X191143095Y-79877533D01*
X192095476Y-79687057D02*
X192143095Y-79639438D01*
X192143095Y-79639438D02*
X192238333Y-79591819D01*
X192238333Y-79591819D02*
X192476428Y-79591819D01*
X192476428Y-79591819D02*
X192571666Y-79639438D01*
X192571666Y-79639438D02*
X192619285Y-79687057D01*
X192619285Y-79687057D02*
X192666904Y-79782295D01*
X192666904Y-79782295D02*
X192666904Y-79877533D01*
X192666904Y-79877533D02*
X192619285Y-80020390D01*
X192619285Y-80020390D02*
X192047857Y-80591819D01*
X192047857Y-80591819D02*
X192666904Y-80591819D01*
D11*
X159002506Y-119115468D02*
X159002506Y-117845468D01*
X159002506Y-117845468D02*
X159304887Y-117845468D01*
X159304887Y-117845468D02*
X159486316Y-117905944D01*
X159486316Y-117905944D02*
X159607268Y-118026896D01*
X159607268Y-118026896D02*
X159667745Y-118147849D01*
X159667745Y-118147849D02*
X159728221Y-118389753D01*
X159728221Y-118389753D02*
X159728221Y-118571182D01*
X159728221Y-118571182D02*
X159667745Y-118813087D01*
X159667745Y-118813087D02*
X159607268Y-118934039D01*
X159607268Y-118934039D02*
X159486316Y-119054992D01*
X159486316Y-119054992D02*
X159304887Y-119115468D01*
X159304887Y-119115468D02*
X159002506Y-119115468D01*
X160212030Y-119054992D02*
X160393459Y-119115468D01*
X160393459Y-119115468D02*
X160695840Y-119115468D01*
X160695840Y-119115468D02*
X160816792Y-119054992D01*
X160816792Y-119054992D02*
X160877268Y-118994515D01*
X160877268Y-118994515D02*
X160937745Y-118873563D01*
X160937745Y-118873563D02*
X160937745Y-118752611D01*
X160937745Y-118752611D02*
X160877268Y-118631658D01*
X160877268Y-118631658D02*
X160816792Y-118571182D01*
X160816792Y-118571182D02*
X160695840Y-118510706D01*
X160695840Y-118510706D02*
X160453935Y-118450230D01*
X160453935Y-118450230D02*
X160332983Y-118389753D01*
X160332983Y-118389753D02*
X160272506Y-118329277D01*
X160272506Y-118329277D02*
X160212030Y-118208325D01*
X160212030Y-118208325D02*
X160212030Y-118087372D01*
X160212030Y-118087372D02*
X160272506Y-117966420D01*
X160272506Y-117966420D02*
X160332983Y-117905944D01*
X160332983Y-117905944D02*
X160453935Y-117845468D01*
X160453935Y-117845468D02*
X160756316Y-117845468D01*
X160756316Y-117845468D02*
X160937745Y-117905944D01*
X162147269Y-119115468D02*
X161421554Y-119115468D01*
X161784411Y-119115468D02*
X161784411Y-117845468D01*
X161784411Y-117845468D02*
X161663459Y-118026896D01*
X161663459Y-118026896D02*
X161542507Y-118147849D01*
X161542507Y-118147849D02*
X161421554Y-118208325D01*
D10*
X179665333Y-75260580D02*
X179617714Y-75308200D01*
X179617714Y-75308200D02*
X179474857Y-75355819D01*
X179474857Y-75355819D02*
X179379619Y-75355819D01*
X179379619Y-75355819D02*
X179236762Y-75308200D01*
X179236762Y-75308200D02*
X179141524Y-75212961D01*
X179141524Y-75212961D02*
X179093905Y-75117723D01*
X179093905Y-75117723D02*
X179046286Y-74927247D01*
X179046286Y-74927247D02*
X179046286Y-74784390D01*
X179046286Y-74784390D02*
X179093905Y-74593914D01*
X179093905Y-74593914D02*
X179141524Y-74498676D01*
X179141524Y-74498676D02*
X179236762Y-74403438D01*
X179236762Y-74403438D02*
X179379619Y-74355819D01*
X179379619Y-74355819D02*
X179474857Y-74355819D01*
X179474857Y-74355819D02*
X179617714Y-74403438D01*
X179617714Y-74403438D02*
X179665333Y-74451057D01*
X180522476Y-74355819D02*
X180332000Y-74355819D01*
X180332000Y-74355819D02*
X180236762Y-74403438D01*
X180236762Y-74403438D02*
X180189143Y-74451057D01*
X180189143Y-74451057D02*
X180093905Y-74593914D01*
X180093905Y-74593914D02*
X180046286Y-74784390D01*
X180046286Y-74784390D02*
X180046286Y-75165342D01*
X180046286Y-75165342D02*
X180093905Y-75260580D01*
X180093905Y-75260580D02*
X180141524Y-75308200D01*
X180141524Y-75308200D02*
X180236762Y-75355819D01*
X180236762Y-75355819D02*
X180427238Y-75355819D01*
X180427238Y-75355819D02*
X180522476Y-75308200D01*
X180522476Y-75308200D02*
X180570095Y-75260580D01*
X180570095Y-75260580D02*
X180617714Y-75165342D01*
X180617714Y-75165342D02*
X180617714Y-74927247D01*
X180617714Y-74927247D02*
X180570095Y-74832009D01*
X180570095Y-74832009D02*
X180522476Y-74784390D01*
X180522476Y-74784390D02*
X180427238Y-74736771D01*
X180427238Y-74736771D02*
X180236762Y-74736771D01*
X180236762Y-74736771D02*
X180141524Y-74784390D01*
X180141524Y-74784390D02*
X180093905Y-74832009D01*
X180093905Y-74832009D02*
X180046286Y-74927247D01*
X123509069Y-118587035D02*
X122509069Y-118587035D01*
X122509069Y-118587035D02*
X122509069Y-118348940D01*
X122509069Y-118348940D02*
X122556688Y-118206083D01*
X122556688Y-118206083D02*
X122651926Y-118110845D01*
X122651926Y-118110845D02*
X122747164Y-118063226D01*
X122747164Y-118063226D02*
X122937640Y-118015607D01*
X122937640Y-118015607D02*
X123080497Y-118015607D01*
X123080497Y-118015607D02*
X123270973Y-118063226D01*
X123270973Y-118063226D02*
X123366211Y-118110845D01*
X123366211Y-118110845D02*
X123461450Y-118206083D01*
X123461450Y-118206083D02*
X123509069Y-118348940D01*
X123509069Y-118348940D02*
X123509069Y-118587035D01*
X123509069Y-117063226D02*
X123509069Y-117634654D01*
X123509069Y-117348940D02*
X122509069Y-117348940D01*
X122509069Y-117348940D02*
X122651926Y-117444178D01*
X122651926Y-117444178D02*
X122747164Y-117539416D01*
X122747164Y-117539416D02*
X122794783Y-117634654D01*
X122604307Y-116682273D02*
X122556688Y-116634654D01*
X122556688Y-116634654D02*
X122509069Y-116539416D01*
X122509069Y-116539416D02*
X122509069Y-116301321D01*
X122509069Y-116301321D02*
X122556688Y-116206083D01*
X122556688Y-116206083D02*
X122604307Y-116158464D01*
X122604307Y-116158464D02*
X122699545Y-116110845D01*
X122699545Y-116110845D02*
X122794783Y-116110845D01*
X122794783Y-116110845D02*
X122937640Y-116158464D01*
X122937640Y-116158464D02*
X123509069Y-116729892D01*
X123509069Y-116729892D02*
X123509069Y-116110845D01*
X190762142Y-90878819D02*
X190428809Y-90402628D01*
X190190714Y-90878819D02*
X190190714Y-89878819D01*
X190190714Y-89878819D02*
X190571666Y-89878819D01*
X190571666Y-89878819D02*
X190666904Y-89926438D01*
X190666904Y-89926438D02*
X190714523Y-89974057D01*
X190714523Y-89974057D02*
X190762142Y-90069295D01*
X190762142Y-90069295D02*
X190762142Y-90212152D01*
X190762142Y-90212152D02*
X190714523Y-90307390D01*
X190714523Y-90307390D02*
X190666904Y-90355009D01*
X190666904Y-90355009D02*
X190571666Y-90402628D01*
X190571666Y-90402628D02*
X190190714Y-90402628D01*
X191714523Y-90878819D02*
X191143095Y-90878819D01*
X191428809Y-90878819D02*
X191428809Y-89878819D01*
X191428809Y-89878819D02*
X191333571Y-90021676D01*
X191333571Y-90021676D02*
X191238333Y-90116914D01*
X191238333Y-90116914D02*
X191143095Y-90164533D01*
X192571666Y-89878819D02*
X192381190Y-89878819D01*
X192381190Y-89878819D02*
X192285952Y-89926438D01*
X192285952Y-89926438D02*
X192238333Y-89974057D01*
X192238333Y-89974057D02*
X192143095Y-90116914D01*
X192143095Y-90116914D02*
X192095476Y-90307390D01*
X192095476Y-90307390D02*
X192095476Y-90688342D01*
X192095476Y-90688342D02*
X192143095Y-90783580D01*
X192143095Y-90783580D02*
X192190714Y-90831200D01*
X192190714Y-90831200D02*
X192285952Y-90878819D01*
X192285952Y-90878819D02*
X192476428Y-90878819D01*
X192476428Y-90878819D02*
X192571666Y-90831200D01*
X192571666Y-90831200D02*
X192619285Y-90783580D01*
X192619285Y-90783580D02*
X192666904Y-90688342D01*
X192666904Y-90688342D02*
X192666904Y-90450247D01*
X192666904Y-90450247D02*
X192619285Y-90355009D01*
X192619285Y-90355009D02*
X192571666Y-90307390D01*
X192571666Y-90307390D02*
X192476428Y-90259771D01*
X192476428Y-90259771D02*
X192285952Y-90259771D01*
X192285952Y-90259771D02*
X192190714Y-90307390D01*
X192190714Y-90307390D02*
X192143095Y-90355009D01*
X192143095Y-90355009D02*
X192095476Y-90450247D01*
X209510580Y-77584857D02*
X209558200Y-77632476D01*
X209558200Y-77632476D02*
X209605819Y-77775333D01*
X209605819Y-77775333D02*
X209605819Y-77870571D01*
X209605819Y-77870571D02*
X209558200Y-78013428D01*
X209558200Y-78013428D02*
X209462961Y-78108666D01*
X209462961Y-78108666D02*
X209367723Y-78156285D01*
X209367723Y-78156285D02*
X209177247Y-78203904D01*
X209177247Y-78203904D02*
X209034390Y-78203904D01*
X209034390Y-78203904D02*
X208843914Y-78156285D01*
X208843914Y-78156285D02*
X208748676Y-78108666D01*
X208748676Y-78108666D02*
X208653438Y-78013428D01*
X208653438Y-78013428D02*
X208605819Y-77870571D01*
X208605819Y-77870571D02*
X208605819Y-77775333D01*
X208605819Y-77775333D02*
X208653438Y-77632476D01*
X208653438Y-77632476D02*
X208701057Y-77584857D01*
X209605819Y-76632476D02*
X209605819Y-77203904D01*
X209605819Y-76918190D02*
X208605819Y-76918190D01*
X208605819Y-76918190D02*
X208748676Y-77013428D01*
X208748676Y-77013428D02*
X208843914Y-77108666D01*
X208843914Y-77108666D02*
X208891533Y-77203904D01*
X208605819Y-76299142D02*
X208605819Y-75632476D01*
X208605819Y-75632476D02*
X209605819Y-76061047D01*
X183073819Y-48368094D02*
X182073819Y-48368094D01*
X182073819Y-48368094D02*
X182073819Y-48129999D01*
X182073819Y-48129999D02*
X182121438Y-47987142D01*
X182121438Y-47987142D02*
X182216676Y-47891904D01*
X182216676Y-47891904D02*
X182311914Y-47844285D01*
X182311914Y-47844285D02*
X182502390Y-47796666D01*
X182502390Y-47796666D02*
X182645247Y-47796666D01*
X182645247Y-47796666D02*
X182835723Y-47844285D01*
X182835723Y-47844285D02*
X182930961Y-47891904D01*
X182930961Y-47891904D02*
X183026200Y-47987142D01*
X183026200Y-47987142D02*
X183073819Y-48129999D01*
X183073819Y-48129999D02*
X183073819Y-48368094D01*
X183073819Y-46844285D02*
X183073819Y-47415713D01*
X183073819Y-47129999D02*
X182073819Y-47129999D01*
X182073819Y-47129999D02*
X182216676Y-47225237D01*
X182216676Y-47225237D02*
X182311914Y-47320475D01*
X182311914Y-47320475D02*
X182359533Y-47415713D01*
X193945669Y-124745244D02*
X192945669Y-124745244D01*
X192945669Y-124745244D02*
X192945669Y-124507149D01*
X192945669Y-124507149D02*
X192993288Y-124364292D01*
X192993288Y-124364292D02*
X193088526Y-124269054D01*
X193088526Y-124269054D02*
X193183764Y-124221435D01*
X193183764Y-124221435D02*
X193374240Y-124173816D01*
X193374240Y-124173816D02*
X193517097Y-124173816D01*
X193517097Y-124173816D02*
X193707573Y-124221435D01*
X193707573Y-124221435D02*
X193802811Y-124269054D01*
X193802811Y-124269054D02*
X193898050Y-124364292D01*
X193898050Y-124364292D02*
X193945669Y-124507149D01*
X193945669Y-124507149D02*
X193945669Y-124745244D01*
X193374240Y-123602387D02*
X193326621Y-123697625D01*
X193326621Y-123697625D02*
X193279002Y-123745244D01*
X193279002Y-123745244D02*
X193183764Y-123792863D01*
X193183764Y-123792863D02*
X193136145Y-123792863D01*
X193136145Y-123792863D02*
X193040907Y-123745244D01*
X193040907Y-123745244D02*
X192993288Y-123697625D01*
X192993288Y-123697625D02*
X192945669Y-123602387D01*
X192945669Y-123602387D02*
X192945669Y-123411911D01*
X192945669Y-123411911D02*
X192993288Y-123316673D01*
X192993288Y-123316673D02*
X193040907Y-123269054D01*
X193040907Y-123269054D02*
X193136145Y-123221435D01*
X193136145Y-123221435D02*
X193183764Y-123221435D01*
X193183764Y-123221435D02*
X193279002Y-123269054D01*
X193279002Y-123269054D02*
X193326621Y-123316673D01*
X193326621Y-123316673D02*
X193374240Y-123411911D01*
X193374240Y-123411911D02*
X193374240Y-123602387D01*
X193374240Y-123602387D02*
X193421859Y-123697625D01*
X193421859Y-123697625D02*
X193469478Y-123745244D01*
X193469478Y-123745244D02*
X193564716Y-123792863D01*
X193564716Y-123792863D02*
X193755192Y-123792863D01*
X193755192Y-123792863D02*
X193850430Y-123745244D01*
X193850430Y-123745244D02*
X193898050Y-123697625D01*
X193898050Y-123697625D02*
X193945669Y-123602387D01*
X193945669Y-123602387D02*
X193945669Y-123411911D01*
X193945669Y-123411911D02*
X193898050Y-123316673D01*
X193898050Y-123316673D02*
X193850430Y-123269054D01*
X193850430Y-123269054D02*
X193755192Y-123221435D01*
X193755192Y-123221435D02*
X193564716Y-123221435D01*
X193564716Y-123221435D02*
X193469478Y-123269054D01*
X193469478Y-123269054D02*
X193421859Y-123316673D01*
X193421859Y-123316673D02*
X193374240Y-123411911D01*
X133422819Y-83859666D02*
X132946628Y-84192999D01*
X133422819Y-84431094D02*
X132422819Y-84431094D01*
X132422819Y-84431094D02*
X132422819Y-84050142D01*
X132422819Y-84050142D02*
X132470438Y-83954904D01*
X132470438Y-83954904D02*
X132518057Y-83907285D01*
X132518057Y-83907285D02*
X132613295Y-83859666D01*
X132613295Y-83859666D02*
X132756152Y-83859666D01*
X132756152Y-83859666D02*
X132851390Y-83907285D01*
X132851390Y-83907285D02*
X132899009Y-83954904D01*
X132899009Y-83954904D02*
X132946628Y-84050142D01*
X132946628Y-84050142D02*
X132946628Y-84431094D01*
X133422819Y-83383475D02*
X133422819Y-83192999D01*
X133422819Y-83192999D02*
X133375200Y-83097761D01*
X133375200Y-83097761D02*
X133327580Y-83050142D01*
X133327580Y-83050142D02*
X133184723Y-82954904D01*
X133184723Y-82954904D02*
X132994247Y-82907285D01*
X132994247Y-82907285D02*
X132613295Y-82907285D01*
X132613295Y-82907285D02*
X132518057Y-82954904D01*
X132518057Y-82954904D02*
X132470438Y-83002523D01*
X132470438Y-83002523D02*
X132422819Y-83097761D01*
X132422819Y-83097761D02*
X132422819Y-83288237D01*
X132422819Y-83288237D02*
X132470438Y-83383475D01*
X132470438Y-83383475D02*
X132518057Y-83431094D01*
X132518057Y-83431094D02*
X132613295Y-83478713D01*
X132613295Y-83478713D02*
X132851390Y-83478713D01*
X132851390Y-83478713D02*
X132946628Y-83431094D01*
X132946628Y-83431094D02*
X132994247Y-83383475D01*
X132994247Y-83383475D02*
X133041866Y-83288237D01*
X133041866Y-83288237D02*
X133041866Y-83097761D01*
X133041866Y-83097761D02*
X132994247Y-83002523D01*
X132994247Y-83002523D02*
X132946628Y-82954904D01*
X132946628Y-82954904D02*
X132851390Y-82907285D01*
X133643905Y-52397819D02*
X133643905Y-51397819D01*
X133643905Y-51397819D02*
X133882000Y-51397819D01*
X133882000Y-51397819D02*
X134024857Y-51445438D01*
X134024857Y-51445438D02*
X134120095Y-51540676D01*
X134120095Y-51540676D02*
X134167714Y-51635914D01*
X134167714Y-51635914D02*
X134215333Y-51826390D01*
X134215333Y-51826390D02*
X134215333Y-51969247D01*
X134215333Y-51969247D02*
X134167714Y-52159723D01*
X134167714Y-52159723D02*
X134120095Y-52254961D01*
X134120095Y-52254961D02*
X134024857Y-52350200D01*
X134024857Y-52350200D02*
X133882000Y-52397819D01*
X133882000Y-52397819D02*
X133643905Y-52397819D01*
X135072476Y-51731152D02*
X135072476Y-52397819D01*
X134834381Y-51350200D02*
X134596286Y-52064485D01*
X134596286Y-52064485D02*
X135215333Y-52064485D01*
D12*
%TO.C,D11*%
X121890250Y-126567150D02*
X124980250Y-126567150D01*
X121890420Y-126567150D02*
G75*
G02*
X123435250Y-121017150I1544830J2560000D01*
G01*
X123435250Y-121017150D02*
G75*
G02*
X124980080Y-126567150I0J-2990000D01*
G01*
X125935250Y-124007150D02*
G75*
G02*
X120935250Y-124007150I-2500000J0D01*
G01*
X120935250Y-124007150D02*
G75*
G02*
X125935250Y-124007150I2500000J0D01*
G01*
%TO.C,U7*%
X113137000Y-73025000D02*
X113137000Y-71075000D01*
X113137000Y-73025000D02*
X113137000Y-74975000D01*
X118257000Y-73025000D02*
X118257000Y-71075000D01*
X118257000Y-73025000D02*
X118257000Y-74975000D01*
X118492000Y-70565000D02*
X118162000Y-70325000D01*
X118492000Y-70085000D01*
X118492000Y-70565000D01*
G36*
X118492000Y-70565000D02*
G01*
X118162000Y-70325000D01*
X118492000Y-70085000D01*
X118492000Y-70565000D01*
G37*
%TO.C,R19*%
X194426064Y-97182000D02*
X193971936Y-97182000D01*
X194426064Y-98652000D02*
X193971936Y-98652000D01*
%TO.C,SW1*%
X110915000Y-89698000D02*
X110915000Y-90948000D01*
X110915000Y-90948000D02*
X112165000Y-90948000D01*
X111205000Y-83038000D02*
X111205000Y-90658000D01*
X111205000Y-90658000D02*
X117175000Y-90658000D01*
X111215000Y-83048000D02*
X111215000Y-84848000D01*
X111215000Y-84848000D02*
X111965000Y-84848000D01*
X111215000Y-86348000D02*
X111215000Y-87348000D01*
X111215000Y-87348000D02*
X111965000Y-87348000D01*
X111215000Y-88848000D02*
X111215000Y-90648000D01*
X111215000Y-90648000D02*
X111965000Y-90648000D01*
X111965000Y-83048000D02*
X111215000Y-83048000D01*
X111965000Y-84848000D02*
X111965000Y-83048000D01*
X111965000Y-86348000D02*
X111215000Y-86348000D01*
X111965000Y-87348000D02*
X111965000Y-86348000D01*
X111965000Y-88848000D02*
X111215000Y-88848000D01*
X111965000Y-90648000D02*
X111965000Y-88848000D01*
X113465000Y-83048000D02*
X113465000Y-83798000D01*
X113465000Y-83798000D02*
X116415000Y-83798000D01*
X113465000Y-89898000D02*
X116415000Y-89898000D01*
X113465000Y-90648000D02*
X113465000Y-89898000D01*
X116415000Y-83798000D02*
X116415000Y-86848000D01*
X116415000Y-89898000D02*
X116415000Y-86848000D01*
X117175000Y-83038000D02*
X111205000Y-83038000D01*
X117175000Y-90658000D02*
X117175000Y-83038000D01*
%TO.C,C1*%
X127627748Y-59844000D02*
X128150252Y-59844000D01*
X127627748Y-61314000D02*
X128150252Y-61314000D01*
%TO.C,R25*%
X115162064Y-79783000D02*
X114707936Y-79783000D01*
X115162064Y-81253000D02*
X114707936Y-81253000D01*
%TO.C,R6*%
X126010936Y-70004000D02*
X126465064Y-70004000D01*
X126010936Y-71474000D02*
X126465064Y-71474000D01*
%TO.C,R18*%
X194426064Y-94642000D02*
X193971936Y-94642000D01*
X194426064Y-96112000D02*
X193971936Y-96112000D01*
%TO.C,R7*%
X125376000Y-90778064D02*
X125376000Y-90323936D01*
X126846000Y-90778064D02*
X126846000Y-90323936D01*
D10*
%TO.C,M2*%
X165919250Y-70251150D02*
X155119250Y-70251150D01*
X175519250Y-84251150D02*
G75*
G02*
X145519250Y-84251150I-15000000J0D01*
G01*
X145519250Y-84251150D02*
G75*
G02*
X175519250Y-84251150I15000000J0D01*
G01*
D12*
%TO.C,R20*%
X109474000Y-84887000D02*
X109474000Y-85837000D01*
X109474000Y-90627000D02*
X109474000Y-89677000D01*
X108554000Y-89677000D02*
X110394000Y-89677000D01*
X110394000Y-85837000D01*
X108554000Y-85837000D01*
X108554000Y-89677000D01*
%TO.C,R8*%
X127662000Y-87349064D02*
X127662000Y-86894936D01*
X129132000Y-87349064D02*
X129132000Y-86894936D01*
%TO.C,R15*%
X194680064Y-87022000D02*
X194225936Y-87022000D01*
X194680064Y-88492000D02*
X194225936Y-88492000D01*
%TO.C,C5*%
X132750750Y-70456248D02*
X132750750Y-70978752D01*
X134220750Y-70456248D02*
X134220750Y-70978752D01*
%TO.C,D9*%
X188539850Y-133171150D02*
X191629850Y-133171150D01*
X188540020Y-133171150D02*
G75*
G02*
X190084850Y-127621150I1544830J2560000D01*
G01*
X190084850Y-127621150D02*
G75*
G02*
X191629680Y-133171150I0J-2990000D01*
G01*
X192584850Y-130611150D02*
G75*
G02*
X187584850Y-130611150I-2500000J0D01*
G01*
X187584850Y-130611150D02*
G75*
G02*
X192584850Y-130611150I2500000J0D01*
G01*
%TO.C,D7*%
X201011250Y-119937750D02*
X204101250Y-119937750D01*
X201011420Y-119937750D02*
G75*
G02*
X202556250Y-114387750I1544830J2560000D01*
G01*
X202556250Y-114387750D02*
G75*
G02*
X204101080Y-119937750I0J-2990000D01*
G01*
X205056250Y-117377750D02*
G75*
G02*
X200056250Y-117377750I-2500000J0D01*
G01*
X200056250Y-117377750D02*
G75*
G02*
X205056250Y-117377750I2500000J0D01*
G01*
%TO.C,JP1*%
X109617000Y-81313000D02*
X109617000Y-78513000D01*
X110317000Y-77863000D02*
X110917000Y-77863000D01*
X110917000Y-81963000D02*
X110317000Y-81963000D01*
X111617000Y-78513000D02*
X111617000Y-81313000D01*
X109617000Y-78563000D02*
G75*
G02*
X110317000Y-77863000I699999J1D01*
G01*
X110317000Y-81963000D02*
G75*
G02*
X109617000Y-81263000I0J700000D01*
G01*
X110917000Y-77863000D02*
G75*
G02*
X111617000Y-78563000I1J-699999D01*
G01*
X111617000Y-81263000D02*
G75*
G02*
X110917000Y-81963000I-700000J0D01*
G01*
%TO.C,R1*%
X181018000Y-44296064D02*
X181018000Y-43841936D01*
X182488000Y-44296064D02*
X182488000Y-43841936D01*
%TO.C,D5*%
X204618050Y-113282950D02*
X207708050Y-113282950D01*
X204618220Y-113282950D02*
G75*
G02*
X206163050Y-107732950I1544830J2560000D01*
G01*
X206163050Y-107732950D02*
G75*
G02*
X207707880Y-113282950I0J-2990000D01*
G01*
X208663050Y-110722950D02*
G75*
G02*
X203663050Y-110722950I-2500000J0D01*
G01*
X203663050Y-110722950D02*
G75*
G02*
X208663050Y-110722950I2500000J0D01*
G01*
%TO.C,C19*%
X117629000Y-62730748D02*
X117629000Y-63253252D01*
X119099000Y-62730748D02*
X119099000Y-63253252D01*
%TO.C,R10*%
X132688064Y-75592000D02*
X132233936Y-75592000D01*
X132688064Y-77062000D02*
X132233936Y-77062000D01*
%TO.C,D2*%
X174620000Y-45237000D02*
X177710000Y-45237000D01*
X174620170Y-45237000D02*
G75*
G02*
X176165000Y-39687000I1544830J2560000D01*
G01*
X176165000Y-39687000D02*
G75*
G02*
X177709830Y-45237000I0J-2990000D01*
G01*
X178665000Y-42677000D02*
G75*
G02*
X173665000Y-42677000I-2500000J0D01*
G01*
X173665000Y-42677000D02*
G75*
G02*
X178665000Y-42677000I2500000J0D01*
G01*
%TO.C,C7*%
X185554252Y-75592000D02*
X185031748Y-75592000D01*
X185554252Y-77062000D02*
X185031748Y-77062000D01*
%TO.C,R4*%
X139108000Y-43788064D02*
X139108000Y-43333936D01*
X140578000Y-43788064D02*
X140578000Y-43333936D01*
%TO.C,D3*%
X143759000Y-45237000D02*
X146849000Y-45237000D01*
X143759170Y-45237000D02*
G75*
G02*
X145304000Y-39687000I1544830J2560000D01*
G01*
X145304000Y-39687000D02*
G75*
G02*
X146848830Y-45237000I0J-2990000D01*
G01*
X147804000Y-42677000D02*
G75*
G02*
X142804000Y-42677000I-2500000J0D01*
G01*
X142804000Y-42677000D02*
G75*
G02*
X147804000Y-42677000I2500000J0D01*
G01*
%TO.C,C18*%
X174882000Y-54325000D02*
X173352000Y-54325000D01*
X174882000Y-56165000D02*
X173352000Y-56165000D01*
%TO.C,R13*%
X194807064Y-82069000D02*
X194352936Y-82069000D01*
X194807064Y-83539000D02*
X194352936Y-83539000D01*
%TO.C,R3*%
X152189000Y-43079936D02*
X152189000Y-43534064D01*
X153659000Y-43079936D02*
X153659000Y-43534064D01*
%TO.C,R14*%
X194696064Y-84532150D02*
X194241936Y-84532150D01*
X194696064Y-86002150D02*
X194241936Y-86002150D01*
%TO.C,D10*%
X129383250Y-133196550D02*
X132473250Y-133196550D01*
X129383420Y-133196550D02*
G75*
G02*
X130928250Y-127646550I1544830J2560000D01*
G01*
X130928250Y-127646550D02*
G75*
G02*
X132473080Y-133196550I0J-2990000D01*
G01*
X133428250Y-130636550D02*
G75*
G02*
X128428250Y-130636550I-2500000J0D01*
G01*
X128428250Y-130636550D02*
G75*
G02*
X133428250Y-130636550I2500000J0D01*
G01*
%TO.C,R17*%
X194426064Y-92102000D02*
X193971936Y-92102000D01*
X194426064Y-93572000D02*
X193971936Y-93572000D01*
%TO.C,R2*%
X168318000Y-43079936D02*
X168318000Y-43534064D01*
X169788000Y-43079936D02*
X169788000Y-43534064D01*
%TO.C,R11*%
X129702750Y-70966064D02*
X129702750Y-70511936D01*
X131172750Y-70966064D02*
X131172750Y-70511936D01*
%TO.C,R26*%
X110136000Y-74702936D02*
X110136000Y-75157064D01*
X111606000Y-74702936D02*
X111606000Y-75157064D01*
%TO.C,R5*%
X125630000Y-64796936D02*
X125630000Y-65251064D01*
X127100000Y-64796936D02*
X127100000Y-65251064D01*
%TO.C,D13*%
X113381250Y-113282950D02*
X116471250Y-113282950D01*
X113381420Y-113282950D02*
G75*
G02*
X114926250Y-107732950I1544830J2560000D01*
G01*
X114926250Y-107732950D02*
G75*
G02*
X116471080Y-113282950I0J-2990000D01*
G01*
X117426250Y-110722950D02*
G75*
G02*
X112426250Y-110722950I-2500000J0D01*
G01*
X112426250Y-110722950D02*
G75*
G02*
X117426250Y-110722950I2500000J0D01*
G01*
%TO.C,J6*%
X109645000Y-104731000D02*
X109645000Y-105981000D01*
X109645000Y-105981000D02*
X110895000Y-105981000D01*
X109935000Y-93071000D02*
X109935000Y-105691000D01*
X109935000Y-105691000D02*
X115905000Y-105691000D01*
X109945000Y-93081000D02*
X109945000Y-94881000D01*
X109945000Y-94881000D02*
X110695000Y-94881000D01*
X109945000Y-96381000D02*
X109945000Y-102381000D01*
X109945000Y-102381000D02*
X110695000Y-102381000D01*
X109945000Y-103881000D02*
X109945000Y-105681000D01*
X109945000Y-105681000D02*
X110695000Y-105681000D01*
X110695000Y-93081000D02*
X109945000Y-93081000D01*
X110695000Y-94881000D02*
X110695000Y-93081000D01*
X110695000Y-96381000D02*
X109945000Y-96381000D01*
X110695000Y-102381000D02*
X110695000Y-96381000D01*
X110695000Y-103881000D02*
X109945000Y-103881000D01*
X110695000Y-105681000D02*
X110695000Y-103881000D01*
X112195000Y-93081000D02*
X112195000Y-93831000D01*
X112195000Y-93831000D02*
X115145000Y-93831000D01*
X112195000Y-104931000D02*
X115145000Y-104931000D01*
X112195000Y-105681000D02*
X112195000Y-104931000D01*
X115145000Y-93831000D02*
X115145000Y-99381000D01*
X115145000Y-104931000D02*
X115145000Y-99381000D01*
X115905000Y-93071000D02*
X109935000Y-93071000D01*
X115905000Y-105691000D02*
X115905000Y-93071000D01*
%TO.C,R12*%
X194807064Y-79426750D02*
X194352936Y-79426750D01*
X194807064Y-80896750D02*
X194352936Y-80896750D01*
D13*
%TO.C,DS1*%
X139844650Y-108366150D02*
X139844650Y-125366150D01*
X142844650Y-105616150D02*
X177844650Y-105616150D01*
D14*
X148544650Y-131366150D02*
X148544650Y-131366150D01*
X148544650Y-131566150D02*
X148544650Y-131566150D01*
D13*
X181244650Y-108366150D02*
X181244650Y-124366150D01*
D14*
X148544650Y-131366150D02*
G75*
G02*
X148544650Y-131566150I0J-100000D01*
G01*
X148544650Y-131566150D02*
G75*
G02*
X148544650Y-131366150I0J100000D01*
G01*
D12*
%TO.C,C6*%
X179570748Y-75846000D02*
X180093252Y-75846000D01*
X179570748Y-77316000D02*
X180093252Y-77316000D01*
%TO.C,D12*%
X116937250Y-119937750D02*
X120027250Y-119937750D01*
X116937420Y-119937750D02*
G75*
G02*
X118482250Y-114387750I1544830J2560000D01*
G01*
X118482250Y-114387750D02*
G75*
G02*
X120027080Y-119937750I0J-2990000D01*
G01*
X120982250Y-117377750D02*
G75*
G02*
X115982250Y-117377750I-2500000J0D01*
G01*
X115982250Y-117377750D02*
G75*
G02*
X120982250Y-117377750I2500000J0D01*
G01*
%TO.C,R16*%
X194680064Y-89562000D02*
X194225936Y-89562000D01*
X194680064Y-91032000D02*
X194225936Y-91032000D01*
%TO.C,C17*%
X210281000Y-77707000D02*
X210281000Y-76177000D01*
X212121000Y-77707000D02*
X212121000Y-76177000D01*
%TO.C,D1*%
X185034000Y-50190000D02*
X188124000Y-50190000D01*
X185034170Y-50190000D02*
G75*
G02*
X186579000Y-44640000I1544830J2560000D01*
G01*
X186579000Y-44640000D02*
G75*
G02*
X188123830Y-50190000I0J-2990000D01*
G01*
X189079000Y-47630000D02*
G75*
G02*
X184079000Y-47630000I-2500000J0D01*
G01*
X184079000Y-47630000D02*
G75*
G02*
X189079000Y-47630000I2500000J0D01*
G01*
%TO.C,D8*%
X195905850Y-126567150D02*
X198995850Y-126567150D01*
X195906020Y-126567150D02*
G75*
G02*
X197450850Y-121017150I1544830J2560000D01*
G01*
X197450850Y-121017150D02*
G75*
G02*
X198995680Y-126567150I0J-2990000D01*
G01*
X199950850Y-124007150D02*
G75*
G02*
X194950850Y-124007150I-2500000J0D01*
G01*
X194950850Y-124007150D02*
G75*
G02*
X199950850Y-124007150I2500000J0D01*
G01*
%TO.C,R9*%
X130583000Y-83465936D02*
X130583000Y-83920064D01*
X132053000Y-83465936D02*
X132053000Y-83920064D01*
%TO.C,D4*%
X132837000Y-50317000D02*
X135927000Y-50317000D01*
X132837170Y-50317000D02*
G75*
G02*
X134382000Y-44767000I1544830J2560000D01*
G01*
X134382000Y-44767000D02*
G75*
G02*
X135926830Y-50317000I0J-2990000D01*
G01*
X136882000Y-47757000D02*
G75*
G02*
X131882000Y-47757000I-2500000J0D01*
G01*
X131882000Y-47757000D02*
G75*
G02*
X136882000Y-47757000I2500000J0D01*
G01*
%TD*%
M02*
