%TF.GenerationSoftware,KiCad,Pcbnew,9.0.2*%
%TF.CreationDate,2025-06-27T21:47:48+01:00*%
%TF.ProjectId,Full_Circuit,46756c6c-5f43-4697-9263-7569742e6b69,rev?*%
%TF.SameCoordinates,Original*%
%TF.FileFunction,Soldermask,Top*%
%TF.FilePolarity,Negative*%
%FSLAX46Y46*%
G04 Gerber Fmt 4.6, Leading zero omitted, Abs format (unit mm)*
G04 Created by KiCad (PCBNEW 9.0.2) date 2025-06-27 21:47:48*
%MOMM*%
%LPD*%
G01*
G04 APERTURE LIST*
G04 Aperture macros list*
%AMRoundRect*
0 Rectangle with rounded corners*
0 $1 Rounding radius*
0 $2 $3 $4 $5 $6 $7 $8 $9 X,Y pos of 4 corners*
0 Add a 4 corners polygon primitive as box body*
4,1,4,$2,$3,$4,$5,$6,$7,$8,$9,$2,$3,0*
0 Add four circle primitives for the rounded corners*
1,1,$1+$1,$2,$3*
1,1,$1+$1,$4,$5*
1,1,$1+$1,$6,$7*
1,1,$1+$1,$8,$9*
0 Add four rect primitives between the rounded corners*
20,1,$1+$1,$2,$3,$4,$5,0*
20,1,$1+$1,$4,$5,$6,$7,0*
20,1,$1+$1,$6,$7,$8,$9,0*
20,1,$1+$1,$8,$9,$2,$3,0*%
%AMFreePoly0*
4,1,23,0.550000,-0.750000,0.000000,-0.750000,0.000000,-0.745722,-0.065263,-0.745722,-0.191342,-0.711940,-0.304381,-0.646677,-0.396677,-0.554381,-0.461940,-0.441342,-0.495722,-0.315263,-0.495722,-0.250000,-0.500000,-0.250000,-0.500000,0.250000,-0.495722,0.250000,-0.495722,0.315263,-0.461940,0.441342,-0.396677,0.554381,-0.304381,0.646677,-0.191342,0.711940,-0.065263,0.745722,0.000000,0.745722,
0.000000,0.750000,0.550000,0.750000,0.550000,-0.750000,0.550000,-0.750000,$1*%
%AMFreePoly1*
4,1,23,0.000000,0.745722,0.065263,0.745722,0.191342,0.711940,0.304381,0.646677,0.396677,0.554381,0.461940,0.441342,0.495722,0.315263,0.495722,0.250000,0.500000,0.250000,0.500000,-0.250000,0.495722,-0.250000,0.495722,-0.315263,0.461940,-0.441342,0.396677,-0.554381,0.304381,-0.646677,0.191342,-0.711940,0.065263,-0.745722,0.000000,-0.745722,0.000000,-0.750000,-0.550000,-0.750000,
-0.550000,0.750000,0.000000,0.750000,0.000000,0.745722,0.000000,0.745722,$1*%
G04 Aperture macros list end*
%ADD10R,1.800000X1.800000*%
%ADD11C,1.800000*%
%ADD12RoundRect,0.150000X-0.150000X0.825000X-0.150000X-0.825000X0.150000X-0.825000X0.150000X0.825000X0*%
%ADD13RoundRect,0.250000X0.350000X0.450000X-0.350000X0.450000X-0.350000X-0.450000X0.350000X-0.450000X0*%
%ADD14RoundRect,0.250000X0.750000X-0.600000X0.750000X0.600000X-0.750000X0.600000X-0.750000X-0.600000X0*%
%ADD15O,2.000000X1.700000*%
%ADD16RoundRect,0.250000X-0.337500X-0.475000X0.337500X-0.475000X0.337500X0.475000X-0.337500X0.475000X0*%
%ADD17RoundRect,0.250000X-0.350000X-0.450000X0.350000X-0.450000X0.350000X0.450000X-0.350000X0.450000X0*%
%ADD18RoundRect,0.250000X0.450000X-0.350000X0.450000X0.350000X-0.450000X0.350000X-0.450000X-0.350000X0*%
%ADD19C,2.500000*%
%ADD20C,3.800000*%
%ADD21C,1.600000*%
%ADD22C,1.400000*%
%ADD23RoundRect,0.250000X-0.475000X0.337500X-0.475000X-0.337500X0.475000X-0.337500X0.475000X0.337500X0*%
%ADD24FreePoly0,270.000000*%
%ADD25R,1.500000X1.000000*%
%ADD26FreePoly1,270.000000*%
%ADD27C,3.200000*%
%ADD28RoundRect,0.250000X0.337500X0.475000X-0.337500X0.475000X-0.337500X-0.475000X0.337500X-0.475000X0*%
%ADD29RoundRect,0.250000X-0.450000X0.350000X-0.450000X-0.350000X0.450000X-0.350000X0.450000X0.350000X0*%
%ADD30RoundRect,0.250000X0.725000X-0.600000X0.725000X0.600000X-0.725000X0.600000X-0.725000X-0.600000X0*%
%ADD31O,1.950000X1.700000*%
%ADD32C,1.200000*%
%ADD33C,2.800000*%
%ADD34RoundRect,0.250000X0.550000X0.550000X-0.550000X0.550000X-0.550000X-0.550000X0.550000X-0.550000X0*%
%ADD35R,3.000000X1.500000*%
%ADD36O,3.000000X1.500000*%
%ADD37R,1.700000X1.700000*%
%ADD38RoundRect,0.250000X0.600000X0.750000X-0.600000X0.750000X-0.600000X-0.750000X0.600000X-0.750000X0*%
%ADD39O,1.700000X2.000000*%
%ADD40R,2.300000X1.500000*%
%ADD41O,2.300000X1.500000*%
%ADD42RoundRect,0.250000X-0.550000X-0.550000X0.550000X-0.550000X0.550000X0.550000X-0.550000X0.550000X0*%
%ADD43R,1.600000X1.600000*%
%ADD44O,1.600000X1.600000*%
%ADD45RoundRect,0.250000X-0.600000X-0.725000X0.600000X-0.725000X0.600000X0.725000X-0.600000X0.725000X0*%
%ADD46O,1.700000X1.950000*%
%ADD47C,3.500000*%
%ADD48R,1.905000X2.000000*%
%ADD49O,1.905000X2.000000*%
G04 APERTURE END LIST*
%TO.C,JP1*%
G36*
X111367000Y-79163000D02*
G01*
X109867000Y-79163000D01*
X109867000Y-80663000D01*
X111367000Y-80663000D01*
X111367000Y-79163000D01*
G37*
%TD*%
D10*
%TO.C,D11*%
X123435250Y-125277150D03*
D11*
X123435250Y-122737150D03*
%TD*%
D12*
%TO.C,U7*%
X117602000Y-70550000D03*
X116332000Y-70550000D03*
X115062000Y-70550000D03*
X113792000Y-70550000D03*
X113792000Y-75500000D03*
X115062000Y-75500000D03*
X116332000Y-75500000D03*
X117602000Y-75500000D03*
%TD*%
D13*
%TO.C,R19*%
X195199000Y-97917000D03*
X193199000Y-97917000D03*
%TD*%
D14*
%TO.C,SW1*%
X113665000Y-88098000D03*
D15*
X113665000Y-85598000D03*
%TD*%
D16*
%TO.C,C1*%
X126851500Y-60579000D03*
X128926500Y-60579000D03*
%TD*%
D13*
%TO.C,R25*%
X115935000Y-80518000D03*
X113935000Y-80518000D03*
%TD*%
D17*
%TO.C,R6*%
X125238000Y-70739000D03*
X127238000Y-70739000D03*
%TD*%
D13*
%TO.C,R18*%
X195199000Y-95377000D03*
X193199000Y-95377000D03*
%TD*%
D18*
%TO.C,R7*%
X126111000Y-91551000D03*
X126111000Y-89551000D03*
%TD*%
D11*
%TO.C,M2*%
X174019250Y-84251150D03*
D19*
X169519250Y-75251150D03*
D20*
X160519250Y-94251150D03*
D11*
X147019250Y-84251150D03*
D21*
X149089250Y-88061150D03*
X149089250Y-80441150D03*
X171949250Y-80441150D03*
X171949250Y-88061150D03*
%TD*%
D22*
%TO.C,R20*%
X109474000Y-91567000D03*
X109474000Y-83947000D03*
%TD*%
D18*
%TO.C,R8*%
X128397000Y-88122000D03*
X128397000Y-86122000D03*
%TD*%
D13*
%TO.C,R15*%
X195453000Y-87757000D03*
X193453000Y-87757000D03*
%TD*%
D23*
%TO.C,C5*%
X133485750Y-69680000D03*
X133485750Y-71755000D03*
%TD*%
D10*
%TO.C,D9*%
X190084850Y-131881150D03*
D11*
X190084850Y-129341150D03*
%TD*%
D10*
%TO.C,D7*%
X202556250Y-118647750D03*
D11*
X202556250Y-116107750D03*
%TD*%
D24*
%TO.C,JP1*%
X110617000Y-78613000D03*
D25*
X110617000Y-79913000D03*
D26*
X110617000Y-81213000D03*
%TD*%
D18*
%TO.C,R1*%
X181753000Y-45069000D03*
X181753000Y-43069000D03*
%TD*%
D27*
%TO.C,H3*%
X145669000Y-53975000D03*
%TD*%
D10*
%TO.C,D5*%
X206163050Y-111992950D03*
D11*
X206163050Y-109452950D03*
%TD*%
D23*
%TO.C,C19*%
X118364000Y-61954500D03*
X118364000Y-64029500D03*
%TD*%
D27*
%TO.C,H2*%
X202438000Y-62357000D03*
%TD*%
%TO.C,H1*%
X160671000Y-140208000D03*
%TD*%
D13*
%TO.C,R10*%
X133461000Y-76327000D03*
X131461000Y-76327000D03*
%TD*%
D10*
%TO.C,D2*%
X176165000Y-43947000D03*
D11*
X176165000Y-41407000D03*
%TD*%
D28*
%TO.C,C7*%
X186330500Y-76327000D03*
X184255500Y-76327000D03*
%TD*%
D18*
%TO.C,R4*%
X139843000Y-44561000D03*
X139843000Y-42561000D03*
%TD*%
D10*
%TO.C,D3*%
X145304000Y-43947000D03*
D11*
X145304000Y-41407000D03*
%TD*%
D21*
%TO.C,C18*%
X175367000Y-55245000D03*
X172867000Y-55245000D03*
%TD*%
D13*
%TO.C,R13*%
X195580000Y-82804000D03*
X193580000Y-82804000D03*
%TD*%
D29*
%TO.C,R3*%
X152924000Y-42307000D03*
X152924000Y-44307000D03*
%TD*%
D13*
%TO.C,R14*%
X195469000Y-85267150D03*
X193469000Y-85267150D03*
%TD*%
D10*
%TO.C,D10*%
X130928250Y-131906550D03*
D11*
X130928250Y-129366550D03*
%TD*%
D13*
%TO.C,R17*%
X195199000Y-92837000D03*
X193199000Y-92837000D03*
%TD*%
D29*
%TO.C,R2*%
X169053000Y-42307000D03*
X169053000Y-44307000D03*
%TD*%
D18*
%TO.C,R11*%
X130437750Y-71739000D03*
X130437750Y-69739000D03*
%TD*%
D29*
%TO.C,R26*%
X110871000Y-73930000D03*
X110871000Y-75930000D03*
%TD*%
%TO.C,R5*%
X126365000Y-64024000D03*
X126365000Y-66024000D03*
%TD*%
D10*
%TO.C,D13*%
X114926250Y-111992950D03*
D11*
X114926250Y-109452950D03*
%TD*%
D30*
%TO.C,J6*%
X112395000Y-103131000D03*
D31*
X112395000Y-100631000D03*
X112395000Y-98131000D03*
X112395000Y-95631000D03*
%TD*%
D13*
%TO.C,R12*%
X195580000Y-80161750D03*
X193580000Y-80161750D03*
%TD*%
D32*
%TO.C,DS1*%
X148544650Y-129166150D03*
X150044650Y-129166150D03*
X151544650Y-129166150D03*
X153044650Y-129166150D03*
X154544650Y-129166150D03*
X156044650Y-129166150D03*
X157544650Y-129166150D03*
X159044650Y-129166150D03*
X160544650Y-129166150D03*
X162044650Y-129166150D03*
X163544650Y-129166150D03*
X165044650Y-129166150D03*
X166544650Y-129166150D03*
X168044650Y-129166150D03*
X169544650Y-129166150D03*
X171044650Y-129166150D03*
X172544650Y-129166150D03*
D33*
X143244650Y-127366150D03*
X146244650Y-127366150D03*
X174844650Y-127366150D03*
X177844650Y-127366150D03*
D22*
X140444650Y-129316150D03*
X140444650Y-106216150D03*
X180644650Y-106216150D03*
X180644650Y-129316150D03*
%TD*%
D16*
%TO.C,C6*%
X178794500Y-76581000D03*
X180869500Y-76581000D03*
%TD*%
D10*
%TO.C,D12*%
X118482250Y-118647750D03*
D11*
X118482250Y-116107750D03*
%TD*%
D13*
%TO.C,R16*%
X195453000Y-90297000D03*
X193453000Y-90297000D03*
%TD*%
D21*
%TO.C,C17*%
X211201000Y-78192000D03*
X211201000Y-75692000D03*
%TD*%
D10*
%TO.C,D1*%
X186579000Y-48900000D03*
D11*
X186579000Y-46360000D03*
%TD*%
D10*
%TO.C,D8*%
X197450850Y-125277150D03*
D11*
X197450850Y-122737150D03*
%TD*%
D29*
%TO.C,R9*%
X131318000Y-82693000D03*
X131318000Y-84693000D03*
%TD*%
D10*
%TO.C,D4*%
X134382000Y-49027000D03*
D11*
X134382000Y-46487000D03*
%TD*%
D34*
%TO.C,U6*%
X188687850Y-82701750D03*
D21*
X188687850Y-85241750D03*
X188687850Y-87781750D03*
X188687850Y-90321750D03*
X188687850Y-92861750D03*
X188687850Y-95401750D03*
X188687850Y-97941750D03*
X188687850Y-100481750D03*
X181067850Y-100481750D03*
X181067850Y-97941750D03*
X181067850Y-95401750D03*
X181067850Y-92861750D03*
X181067850Y-90321750D03*
X181067850Y-87781750D03*
X181067850Y-85241750D03*
X181067850Y-82701750D03*
%TD*%
D35*
%TO.C,U3*%
X192291000Y-56647500D03*
D36*
X192291000Y-59187500D03*
X192291000Y-61727500D03*
X192291000Y-66807500D03*
X192291000Y-69347500D03*
X192291000Y-71887500D03*
X192291000Y-74427500D03*
%TD*%
D37*
%TO.C,TP1*%
X140716000Y-66802000D03*
%TD*%
D38*
%TO.C,J2*%
X172863000Y-49276000D03*
D39*
X170363000Y-49276000D03*
%TD*%
D37*
%TO.C,TP2*%
X118110000Y-92837000D03*
%TD*%
D40*
%TO.C,U1*%
X206804500Y-70450500D03*
D41*
X206804500Y-72990500D03*
X206804500Y-75530500D03*
%TD*%
D42*
%TO.C,U2*%
X156836250Y-64794750D03*
D21*
X156836250Y-62254750D03*
X156836250Y-59714750D03*
X156836250Y-57174750D03*
X156836250Y-54634750D03*
X156836250Y-52094750D03*
X156836250Y-49554750D03*
X156836250Y-47014750D03*
X164456250Y-47014750D03*
X164456250Y-49554750D03*
X164456250Y-52094750D03*
X164456250Y-54634750D03*
X164456250Y-57174750D03*
X164456250Y-59714750D03*
X164456250Y-62254750D03*
X164456250Y-64794750D03*
%TD*%
D43*
%TO.C,A1*%
X136642000Y-61645150D03*
D44*
X136642000Y-64185150D03*
X136642000Y-66725150D03*
X136642000Y-69265150D03*
X136642000Y-71805150D03*
X136642000Y-74345150D03*
X136642000Y-76885150D03*
X136642000Y-79425150D03*
X136642000Y-81965150D03*
X136642000Y-84505150D03*
X136642000Y-87045150D03*
X136642000Y-89585150D03*
X136642000Y-92125150D03*
X136642000Y-94665150D03*
X136642000Y-97205150D03*
X121402000Y-97205150D03*
X121402000Y-94665150D03*
X121402000Y-92125150D03*
X121402000Y-89585150D03*
X121402000Y-87045150D03*
X121402000Y-84505150D03*
X121402000Y-81965150D03*
X121402000Y-79425150D03*
X121402000Y-76885150D03*
X121402000Y-74345150D03*
X121402000Y-71805150D03*
X121402000Y-69265150D03*
X121402000Y-66725150D03*
X121402000Y-64185150D03*
X121402000Y-61645150D03*
%TD*%
D37*
%TO.C,TP3*%
X117729000Y-67056000D03*
%TD*%
D45*
%TO.C,J4*%
X126278000Y-109347000D03*
D46*
X128778000Y-109347000D03*
X131278000Y-109347000D03*
X133778000Y-109347000D03*
%TD*%
D47*
%TO.C,U4*%
X182388000Y-55816000D03*
D48*
X184928000Y-72476000D03*
D49*
X182388000Y-72476000D03*
X179848000Y-72476000D03*
%TD*%
D45*
%TO.C,J3*%
X156921000Y-40784000D03*
D46*
X159421000Y-40784000D03*
X161921000Y-40784000D03*
X164421000Y-40784000D03*
%TD*%
M02*
