%TF.GenerationSoftware,KiCad,Pcbnew,9.0.2*%
%TF.CreationDate,2025-06-27T21:47:48+01:00*%
%TF.ProjectId,Full_Circuit,46756c6c-5f43-4697-9263-7569742e6b69,rev?*%
%TF.SameCoordinates,Original*%
%TF.FileFunction,Legend,Bot*%
%TF.FilePolarity,Positive*%
%FSLAX46Y46*%
G04 Gerber Fmt 4.6, Leading zero omitted, Abs format (unit mm)*
G04 Created by KiCad (PCBNEW 9.0.2) date 2025-06-27 21:47:48*
%MOMM*%
%LPD*%
G01*
G04 APERTURE LIST*
%ADD10C,0.150000*%
%ADD11C,0.120000*%
G04 APERTURE END LIST*
D10*
X185639754Y-79826569D02*
X185639754Y-80636092D01*
X185639754Y-80636092D02*
X185592135Y-80731330D01*
X185592135Y-80731330D02*
X185544516Y-80778950D01*
X185544516Y-80778950D02*
X185449278Y-80826569D01*
X185449278Y-80826569D02*
X185258802Y-80826569D01*
X185258802Y-80826569D02*
X185163564Y-80778950D01*
X185163564Y-80778950D02*
X185115945Y-80731330D01*
X185115945Y-80731330D02*
X185068326Y-80636092D01*
X185068326Y-80636092D02*
X185068326Y-79826569D01*
X184163564Y-79826569D02*
X184354040Y-79826569D01*
X184354040Y-79826569D02*
X184449278Y-79874188D01*
X184449278Y-79874188D02*
X184496897Y-79921807D01*
X184496897Y-79921807D02*
X184592135Y-80064664D01*
X184592135Y-80064664D02*
X184639754Y-80255140D01*
X184639754Y-80255140D02*
X184639754Y-80636092D01*
X184639754Y-80636092D02*
X184592135Y-80731330D01*
X184592135Y-80731330D02*
X184544516Y-80778950D01*
X184544516Y-80778950D02*
X184449278Y-80826569D01*
X184449278Y-80826569D02*
X184258802Y-80826569D01*
X184258802Y-80826569D02*
X184163564Y-80778950D01*
X184163564Y-80778950D02*
X184115945Y-80731330D01*
X184115945Y-80731330D02*
X184068326Y-80636092D01*
X184068326Y-80636092D02*
X184068326Y-80397997D01*
X184068326Y-80397997D02*
X184115945Y-80302759D01*
X184115945Y-80302759D02*
X184163564Y-80255140D01*
X184163564Y-80255140D02*
X184258802Y-80207521D01*
X184258802Y-80207521D02*
X184449278Y-80207521D01*
X184449278Y-80207521D02*
X184544516Y-80255140D01*
X184544516Y-80255140D02*
X184592135Y-80302759D01*
X184592135Y-80302759D02*
X184639754Y-80397997D01*
X149738516Y-118443530D02*
X149786135Y-118491150D01*
X149786135Y-118491150D02*
X149928992Y-118538769D01*
X149928992Y-118538769D02*
X150024230Y-118538769D01*
X150024230Y-118538769D02*
X150167087Y-118491150D01*
X150167087Y-118491150D02*
X150262325Y-118395911D01*
X150262325Y-118395911D02*
X150309944Y-118300673D01*
X150309944Y-118300673D02*
X150357563Y-118110197D01*
X150357563Y-118110197D02*
X150357563Y-117967340D01*
X150357563Y-117967340D02*
X150309944Y-117776864D01*
X150309944Y-117776864D02*
X150262325Y-117681626D01*
X150262325Y-117681626D02*
X150167087Y-117586388D01*
X150167087Y-117586388D02*
X150024230Y-117538769D01*
X150024230Y-117538769D02*
X149928992Y-117538769D01*
X149928992Y-117538769D02*
X149786135Y-117586388D01*
X149786135Y-117586388D02*
X149738516Y-117634007D01*
X149262325Y-118538769D02*
X149071849Y-118538769D01*
X149071849Y-118538769D02*
X148976611Y-118491150D01*
X148976611Y-118491150D02*
X148928992Y-118443530D01*
X148928992Y-118443530D02*
X148833754Y-118300673D01*
X148833754Y-118300673D02*
X148786135Y-118110197D01*
X148786135Y-118110197D02*
X148786135Y-117729245D01*
X148786135Y-117729245D02*
X148833754Y-117634007D01*
X148833754Y-117634007D02*
X148881373Y-117586388D01*
X148881373Y-117586388D02*
X148976611Y-117538769D01*
X148976611Y-117538769D02*
X149167087Y-117538769D01*
X149167087Y-117538769D02*
X149262325Y-117586388D01*
X149262325Y-117586388D02*
X149309944Y-117634007D01*
X149309944Y-117634007D02*
X149357563Y-117729245D01*
X149357563Y-117729245D02*
X149357563Y-117967340D01*
X149357563Y-117967340D02*
X149309944Y-118062578D01*
X149309944Y-118062578D02*
X149262325Y-118110197D01*
X149262325Y-118110197D02*
X149167087Y-118157816D01*
X149167087Y-118157816D02*
X148976611Y-118157816D01*
X148976611Y-118157816D02*
X148881373Y-118110197D01*
X148881373Y-118110197D02*
X148833754Y-118062578D01*
X148833754Y-118062578D02*
X148786135Y-117967340D01*
X194436904Y-52667819D02*
X194436904Y-53477342D01*
X194436904Y-53477342D02*
X194389285Y-53572580D01*
X194389285Y-53572580D02*
X194341666Y-53620200D01*
X194341666Y-53620200D02*
X194246428Y-53667819D01*
X194246428Y-53667819D02*
X194055952Y-53667819D01*
X194055952Y-53667819D02*
X193960714Y-53620200D01*
X193960714Y-53620200D02*
X193913095Y-53572580D01*
X193913095Y-53572580D02*
X193865476Y-53477342D01*
X193865476Y-53477342D02*
X193865476Y-52667819D01*
X193484523Y-52667819D02*
X192865476Y-52667819D01*
X192865476Y-52667819D02*
X193198809Y-53048771D01*
X193198809Y-53048771D02*
X193055952Y-53048771D01*
X193055952Y-53048771D02*
X192960714Y-53096390D01*
X192960714Y-53096390D02*
X192913095Y-53144009D01*
X192913095Y-53144009D02*
X192865476Y-53239247D01*
X192865476Y-53239247D02*
X192865476Y-53477342D01*
X192865476Y-53477342D02*
X192913095Y-53572580D01*
X192913095Y-53572580D02*
X192960714Y-53620200D01*
X192960714Y-53620200D02*
X193055952Y-53667819D01*
X193055952Y-53667819D02*
X193341666Y-53667819D01*
X193341666Y-53667819D02*
X193436904Y-53620200D01*
X193436904Y-53620200D02*
X193484523Y-53572580D01*
X160849830Y-120438292D02*
X160897450Y-120390673D01*
X160897450Y-120390673D02*
X160945069Y-120247816D01*
X160945069Y-120247816D02*
X160945069Y-120152578D01*
X160945069Y-120152578D02*
X160897450Y-120009721D01*
X160897450Y-120009721D02*
X160802211Y-119914483D01*
X160802211Y-119914483D02*
X160706973Y-119866864D01*
X160706973Y-119866864D02*
X160516497Y-119819245D01*
X160516497Y-119819245D02*
X160373640Y-119819245D01*
X160373640Y-119819245D02*
X160183164Y-119866864D01*
X160183164Y-119866864D02*
X160087926Y-119914483D01*
X160087926Y-119914483D02*
X159992688Y-120009721D01*
X159992688Y-120009721D02*
X159945069Y-120152578D01*
X159945069Y-120152578D02*
X159945069Y-120247816D01*
X159945069Y-120247816D02*
X159992688Y-120390673D01*
X159992688Y-120390673D02*
X160040307Y-120438292D01*
X160945069Y-121390673D02*
X160945069Y-120819245D01*
X160945069Y-121104959D02*
X159945069Y-121104959D01*
X159945069Y-121104959D02*
X160087926Y-121009721D01*
X160087926Y-121009721D02*
X160183164Y-120914483D01*
X160183164Y-120914483D02*
X160230783Y-120819245D01*
X159945069Y-122295435D02*
X159945069Y-121819245D01*
X159945069Y-121819245D02*
X160421259Y-121771626D01*
X160421259Y-121771626D02*
X160373640Y-121819245D01*
X160373640Y-121819245D02*
X160326021Y-121914483D01*
X160326021Y-121914483D02*
X160326021Y-122152578D01*
X160326021Y-122152578D02*
X160373640Y-122247816D01*
X160373640Y-122247816D02*
X160421259Y-122295435D01*
X160421259Y-122295435D02*
X160516497Y-122343054D01*
X160516497Y-122343054D02*
X160754592Y-122343054D01*
X160754592Y-122343054D02*
X160849830Y-122295435D01*
X160849830Y-122295435D02*
X160897450Y-122247816D01*
X160897450Y-122247816D02*
X160945069Y-122152578D01*
X160945069Y-122152578D02*
X160945069Y-121914483D01*
X160945069Y-121914483D02*
X160897450Y-121819245D01*
X160897450Y-121819245D02*
X160849830Y-121771626D01*
X141977904Y-68636819D02*
X141406476Y-68636819D01*
X141692190Y-69636819D02*
X141692190Y-68636819D01*
X141073142Y-69636819D02*
X141073142Y-68636819D01*
X141073142Y-68636819D02*
X140692190Y-68636819D01*
X140692190Y-68636819D02*
X140596952Y-68684438D01*
X140596952Y-68684438D02*
X140549333Y-68732057D01*
X140549333Y-68732057D02*
X140501714Y-68827295D01*
X140501714Y-68827295D02*
X140501714Y-68970152D01*
X140501714Y-68970152D02*
X140549333Y-69065390D01*
X140549333Y-69065390D02*
X140596952Y-69113009D01*
X140596952Y-69113009D02*
X140692190Y-69160628D01*
X140692190Y-69160628D02*
X141073142Y-69160628D01*
X139549333Y-69636819D02*
X140120761Y-69636819D01*
X139835047Y-69636819D02*
X139835047Y-68636819D01*
X139835047Y-68636819D02*
X139930285Y-68779676D01*
X139930285Y-68779676D02*
X140025523Y-68874914D01*
X140025523Y-68874914D02*
X140120761Y-68922533D01*
X164668569Y-78942645D02*
X165478092Y-78942645D01*
X165478092Y-78942645D02*
X165573330Y-78990264D01*
X165573330Y-78990264D02*
X165620950Y-79037883D01*
X165620950Y-79037883D02*
X165668569Y-79133121D01*
X165668569Y-79133121D02*
X165668569Y-79323597D01*
X165668569Y-79323597D02*
X165620950Y-79418835D01*
X165620950Y-79418835D02*
X165573330Y-79466454D01*
X165573330Y-79466454D02*
X165478092Y-79514073D01*
X165478092Y-79514073D02*
X164668569Y-79514073D01*
X164668569Y-80466454D02*
X164668569Y-79990264D01*
X164668569Y-79990264D02*
X165144759Y-79942645D01*
X165144759Y-79942645D02*
X165097140Y-79990264D01*
X165097140Y-79990264D02*
X165049521Y-80085502D01*
X165049521Y-80085502D02*
X165049521Y-80323597D01*
X165049521Y-80323597D02*
X165097140Y-80418835D01*
X165097140Y-80418835D02*
X165144759Y-80466454D01*
X165144759Y-80466454D02*
X165239997Y-80514073D01*
X165239997Y-80514073D02*
X165478092Y-80514073D01*
X165478092Y-80514073D02*
X165573330Y-80466454D01*
X165573330Y-80466454D02*
X165620950Y-80418835D01*
X165620950Y-80418835D02*
X165668569Y-80323597D01*
X165668569Y-80323597D02*
X165668569Y-80085502D01*
X165668569Y-80085502D02*
X165620950Y-79990264D01*
X165620950Y-79990264D02*
X165573330Y-79942645D01*
X160222307Y-125399530D02*
X160269926Y-125447150D01*
X160269926Y-125447150D02*
X160412783Y-125494769D01*
X160412783Y-125494769D02*
X160508021Y-125494769D01*
X160508021Y-125494769D02*
X160650878Y-125447150D01*
X160650878Y-125447150D02*
X160746116Y-125351911D01*
X160746116Y-125351911D02*
X160793735Y-125256673D01*
X160793735Y-125256673D02*
X160841354Y-125066197D01*
X160841354Y-125066197D02*
X160841354Y-124923340D01*
X160841354Y-124923340D02*
X160793735Y-124732864D01*
X160793735Y-124732864D02*
X160746116Y-124637626D01*
X160746116Y-124637626D02*
X160650878Y-124542388D01*
X160650878Y-124542388D02*
X160508021Y-124494769D01*
X160508021Y-124494769D02*
X160412783Y-124494769D01*
X160412783Y-124494769D02*
X160269926Y-124542388D01*
X160269926Y-124542388D02*
X160222307Y-124590007D01*
X159269926Y-125494769D02*
X159841354Y-125494769D01*
X159555640Y-125494769D02*
X159555640Y-124494769D01*
X159555640Y-124494769D02*
X159650878Y-124637626D01*
X159650878Y-124637626D02*
X159746116Y-124732864D01*
X159746116Y-124732864D02*
X159841354Y-124780483D01*
X158412783Y-124828102D02*
X158412783Y-125494769D01*
X158650878Y-124447150D02*
X158888973Y-125161435D01*
X158888973Y-125161435D02*
X158269926Y-125161435D01*
X147503316Y-124031530D02*
X147550935Y-124079150D01*
X147550935Y-124079150D02*
X147693792Y-124126769D01*
X147693792Y-124126769D02*
X147789030Y-124126769D01*
X147789030Y-124126769D02*
X147931887Y-124079150D01*
X147931887Y-124079150D02*
X148027125Y-123983911D01*
X148027125Y-123983911D02*
X148074744Y-123888673D01*
X148074744Y-123888673D02*
X148122363Y-123698197D01*
X148122363Y-123698197D02*
X148122363Y-123555340D01*
X148122363Y-123555340D02*
X148074744Y-123364864D01*
X148074744Y-123364864D02*
X148027125Y-123269626D01*
X148027125Y-123269626D02*
X147931887Y-123174388D01*
X147931887Y-123174388D02*
X147789030Y-123126769D01*
X147789030Y-123126769D02*
X147693792Y-123126769D01*
X147693792Y-123126769D02*
X147550935Y-123174388D01*
X147550935Y-123174388D02*
X147503316Y-123222007D01*
X146931887Y-123555340D02*
X147027125Y-123507721D01*
X147027125Y-123507721D02*
X147074744Y-123460102D01*
X147074744Y-123460102D02*
X147122363Y-123364864D01*
X147122363Y-123364864D02*
X147122363Y-123317245D01*
X147122363Y-123317245D02*
X147074744Y-123222007D01*
X147074744Y-123222007D02*
X147027125Y-123174388D01*
X147027125Y-123174388D02*
X146931887Y-123126769D01*
X146931887Y-123126769D02*
X146741411Y-123126769D01*
X146741411Y-123126769D02*
X146646173Y-123174388D01*
X146646173Y-123174388D02*
X146598554Y-123222007D01*
X146598554Y-123222007D02*
X146550935Y-123317245D01*
X146550935Y-123317245D02*
X146550935Y-123364864D01*
X146550935Y-123364864D02*
X146598554Y-123460102D01*
X146598554Y-123460102D02*
X146646173Y-123507721D01*
X146646173Y-123507721D02*
X146741411Y-123555340D01*
X146741411Y-123555340D02*
X146931887Y-123555340D01*
X146931887Y-123555340D02*
X147027125Y-123602959D01*
X147027125Y-123602959D02*
X147074744Y-123650578D01*
X147074744Y-123650578D02*
X147122363Y-123745816D01*
X147122363Y-123745816D02*
X147122363Y-123936292D01*
X147122363Y-123936292D02*
X147074744Y-124031530D01*
X147074744Y-124031530D02*
X147027125Y-124079150D01*
X147027125Y-124079150D02*
X146931887Y-124126769D01*
X146931887Y-124126769D02*
X146741411Y-124126769D01*
X146741411Y-124126769D02*
X146646173Y-124079150D01*
X146646173Y-124079150D02*
X146598554Y-124031530D01*
X146598554Y-124031530D02*
X146550935Y-123936292D01*
X146550935Y-123936292D02*
X146550935Y-123745816D01*
X146550935Y-123745816D02*
X146598554Y-123650578D01*
X146598554Y-123650578D02*
X146646173Y-123602959D01*
X146646173Y-123602959D02*
X146741411Y-123555340D01*
X157326707Y-133835930D02*
X157374326Y-133883550D01*
X157374326Y-133883550D02*
X157517183Y-133931169D01*
X157517183Y-133931169D02*
X157612421Y-133931169D01*
X157612421Y-133931169D02*
X157755278Y-133883550D01*
X157755278Y-133883550D02*
X157850516Y-133788311D01*
X157850516Y-133788311D02*
X157898135Y-133693073D01*
X157898135Y-133693073D02*
X157945754Y-133502597D01*
X157945754Y-133502597D02*
X157945754Y-133359740D01*
X157945754Y-133359740D02*
X157898135Y-133169264D01*
X157898135Y-133169264D02*
X157850516Y-133074026D01*
X157850516Y-133074026D02*
X157755278Y-132978788D01*
X157755278Y-132978788D02*
X157612421Y-132931169D01*
X157612421Y-132931169D02*
X157517183Y-132931169D01*
X157517183Y-132931169D02*
X157374326Y-132978788D01*
X157374326Y-132978788D02*
X157326707Y-133026407D01*
X156374326Y-133931169D02*
X156945754Y-133931169D01*
X156660040Y-133931169D02*
X156660040Y-132931169D01*
X156660040Y-132931169D02*
X156755278Y-133074026D01*
X156755278Y-133074026D02*
X156850516Y-133169264D01*
X156850516Y-133169264D02*
X156945754Y-133216883D01*
X156040992Y-132931169D02*
X155421945Y-132931169D01*
X155421945Y-132931169D02*
X155755278Y-133312121D01*
X155755278Y-133312121D02*
X155612421Y-133312121D01*
X155612421Y-133312121D02*
X155517183Y-133359740D01*
X155517183Y-133359740D02*
X155469564Y-133407359D01*
X155469564Y-133407359D02*
X155421945Y-133502597D01*
X155421945Y-133502597D02*
X155421945Y-133740692D01*
X155421945Y-133740692D02*
X155469564Y-133835930D01*
X155469564Y-133835930D02*
X155517183Y-133883550D01*
X155517183Y-133883550D02*
X155612421Y-133931169D01*
X155612421Y-133931169D02*
X155898135Y-133931169D01*
X155898135Y-133931169D02*
X155993373Y-133883550D01*
X155993373Y-133883550D02*
X156040992Y-133835930D01*
X178459507Y-120621569D02*
X178792840Y-120145378D01*
X179030935Y-120621569D02*
X179030935Y-119621569D01*
X179030935Y-119621569D02*
X178649983Y-119621569D01*
X178649983Y-119621569D02*
X178554745Y-119669188D01*
X178554745Y-119669188D02*
X178507126Y-119716807D01*
X178507126Y-119716807D02*
X178459507Y-119812045D01*
X178459507Y-119812045D02*
X178459507Y-119954902D01*
X178459507Y-119954902D02*
X178507126Y-120050140D01*
X178507126Y-120050140D02*
X178554745Y-120097759D01*
X178554745Y-120097759D02*
X178649983Y-120145378D01*
X178649983Y-120145378D02*
X179030935Y-120145378D01*
X178078554Y-119716807D02*
X178030935Y-119669188D01*
X178030935Y-119669188D02*
X177935697Y-119621569D01*
X177935697Y-119621569D02*
X177697602Y-119621569D01*
X177697602Y-119621569D02*
X177602364Y-119669188D01*
X177602364Y-119669188D02*
X177554745Y-119716807D01*
X177554745Y-119716807D02*
X177507126Y-119812045D01*
X177507126Y-119812045D02*
X177507126Y-119907283D01*
X177507126Y-119907283D02*
X177554745Y-120050140D01*
X177554745Y-120050140D02*
X178126173Y-120621569D01*
X178126173Y-120621569D02*
X177507126Y-120621569D01*
X176649983Y-119954902D02*
X176649983Y-120621569D01*
X176888078Y-119573950D02*
X177126173Y-120288235D01*
X177126173Y-120288235D02*
X176507126Y-120288235D01*
X127079333Y-50889819D02*
X127079333Y-51604104D01*
X127079333Y-51604104D02*
X127126952Y-51746961D01*
X127126952Y-51746961D02*
X127222190Y-51842200D01*
X127222190Y-51842200D02*
X127365047Y-51889819D01*
X127365047Y-51889819D02*
X127460285Y-51889819D01*
X126126952Y-50889819D02*
X126603142Y-50889819D01*
X126603142Y-50889819D02*
X126650761Y-51366009D01*
X126650761Y-51366009D02*
X126603142Y-51318390D01*
X126603142Y-51318390D02*
X126507904Y-51270771D01*
X126507904Y-51270771D02*
X126269809Y-51270771D01*
X126269809Y-51270771D02*
X126174571Y-51318390D01*
X126174571Y-51318390D02*
X126126952Y-51366009D01*
X126126952Y-51366009D02*
X126079333Y-51461247D01*
X126079333Y-51461247D02*
X126079333Y-51699342D01*
X126079333Y-51699342D02*
X126126952Y-51794580D01*
X126126952Y-51794580D02*
X126174571Y-51842200D01*
X126174571Y-51842200D02*
X126269809Y-51889819D01*
X126269809Y-51889819D02*
X126507904Y-51889819D01*
X126507904Y-51889819D02*
X126603142Y-51842200D01*
X126603142Y-51842200D02*
X126650761Y-51794580D01*
X171946333Y-45180819D02*
X171946333Y-45895104D01*
X171946333Y-45895104D02*
X171993952Y-46037961D01*
X171993952Y-46037961D02*
X172089190Y-46133200D01*
X172089190Y-46133200D02*
X172232047Y-46180819D01*
X172232047Y-46180819D02*
X172327285Y-46180819D01*
X171517761Y-45276057D02*
X171470142Y-45228438D01*
X171470142Y-45228438D02*
X171374904Y-45180819D01*
X171374904Y-45180819D02*
X171136809Y-45180819D01*
X171136809Y-45180819D02*
X171041571Y-45228438D01*
X171041571Y-45228438D02*
X170993952Y-45276057D01*
X170993952Y-45276057D02*
X170946333Y-45371295D01*
X170946333Y-45371295D02*
X170946333Y-45466533D01*
X170946333Y-45466533D02*
X170993952Y-45609390D01*
X170993952Y-45609390D02*
X171565380Y-46180819D01*
X171565380Y-46180819D02*
X170946333Y-46180819D01*
X157275907Y-124133130D02*
X157323526Y-124180750D01*
X157323526Y-124180750D02*
X157466383Y-124228369D01*
X157466383Y-124228369D02*
X157561621Y-124228369D01*
X157561621Y-124228369D02*
X157704478Y-124180750D01*
X157704478Y-124180750D02*
X157799716Y-124085511D01*
X157799716Y-124085511D02*
X157847335Y-123990273D01*
X157847335Y-123990273D02*
X157894954Y-123799797D01*
X157894954Y-123799797D02*
X157894954Y-123656940D01*
X157894954Y-123656940D02*
X157847335Y-123466464D01*
X157847335Y-123466464D02*
X157799716Y-123371226D01*
X157799716Y-123371226D02*
X157704478Y-123275988D01*
X157704478Y-123275988D02*
X157561621Y-123228369D01*
X157561621Y-123228369D02*
X157466383Y-123228369D01*
X157466383Y-123228369D02*
X157323526Y-123275988D01*
X157323526Y-123275988D02*
X157275907Y-123323607D01*
X156323526Y-124228369D02*
X156894954Y-124228369D01*
X156609240Y-124228369D02*
X156609240Y-123228369D01*
X156609240Y-123228369D02*
X156704478Y-123371226D01*
X156704478Y-123371226D02*
X156799716Y-123466464D01*
X156799716Y-123466464D02*
X156894954Y-123514083D01*
X155942573Y-123323607D02*
X155894954Y-123275988D01*
X155894954Y-123275988D02*
X155799716Y-123228369D01*
X155799716Y-123228369D02*
X155561621Y-123228369D01*
X155561621Y-123228369D02*
X155466383Y-123275988D01*
X155466383Y-123275988D02*
X155418764Y-123323607D01*
X155418764Y-123323607D02*
X155371145Y-123418845D01*
X155371145Y-123418845D02*
X155371145Y-123514083D01*
X155371145Y-123514083D02*
X155418764Y-123656940D01*
X155418764Y-123656940D02*
X155990192Y-124228369D01*
X155990192Y-124228369D02*
X155371145Y-124228369D01*
X143509107Y-119249969D02*
X143842440Y-118773778D01*
X144080535Y-119249969D02*
X144080535Y-118249969D01*
X144080535Y-118249969D02*
X143699583Y-118249969D01*
X143699583Y-118249969D02*
X143604345Y-118297588D01*
X143604345Y-118297588D02*
X143556726Y-118345207D01*
X143556726Y-118345207D02*
X143509107Y-118440445D01*
X143509107Y-118440445D02*
X143509107Y-118583302D01*
X143509107Y-118583302D02*
X143556726Y-118678540D01*
X143556726Y-118678540D02*
X143604345Y-118726159D01*
X143604345Y-118726159D02*
X143699583Y-118773778D01*
X143699583Y-118773778D02*
X144080535Y-118773778D01*
X143128154Y-118345207D02*
X143080535Y-118297588D01*
X143080535Y-118297588D02*
X142985297Y-118249969D01*
X142985297Y-118249969D02*
X142747202Y-118249969D01*
X142747202Y-118249969D02*
X142651964Y-118297588D01*
X142651964Y-118297588D02*
X142604345Y-118345207D01*
X142604345Y-118345207D02*
X142556726Y-118440445D01*
X142556726Y-118440445D02*
X142556726Y-118535683D01*
X142556726Y-118535683D02*
X142604345Y-118678540D01*
X142604345Y-118678540D02*
X143175773Y-119249969D01*
X143175773Y-119249969D02*
X142556726Y-119249969D01*
X142175773Y-118345207D02*
X142128154Y-118297588D01*
X142128154Y-118297588D02*
X142032916Y-118249969D01*
X142032916Y-118249969D02*
X141794821Y-118249969D01*
X141794821Y-118249969D02*
X141699583Y-118297588D01*
X141699583Y-118297588D02*
X141651964Y-118345207D01*
X141651964Y-118345207D02*
X141604345Y-118440445D01*
X141604345Y-118440445D02*
X141604345Y-118535683D01*
X141604345Y-118535683D02*
X141651964Y-118678540D01*
X141651964Y-118678540D02*
X142223392Y-119249969D01*
X142223392Y-119249969D02*
X141604345Y-119249969D01*
X119371904Y-94671819D02*
X118800476Y-94671819D01*
X119086190Y-95671819D02*
X119086190Y-94671819D01*
X118467142Y-95671819D02*
X118467142Y-94671819D01*
X118467142Y-94671819D02*
X118086190Y-94671819D01*
X118086190Y-94671819D02*
X117990952Y-94719438D01*
X117990952Y-94719438D02*
X117943333Y-94767057D01*
X117943333Y-94767057D02*
X117895714Y-94862295D01*
X117895714Y-94862295D02*
X117895714Y-95005152D01*
X117895714Y-95005152D02*
X117943333Y-95100390D01*
X117943333Y-95100390D02*
X117990952Y-95148009D01*
X117990952Y-95148009D02*
X118086190Y-95195628D01*
X118086190Y-95195628D02*
X118467142Y-95195628D01*
X117514761Y-94767057D02*
X117467142Y-94719438D01*
X117467142Y-94719438D02*
X117371904Y-94671819D01*
X117371904Y-94671819D02*
X117133809Y-94671819D01*
X117133809Y-94671819D02*
X117038571Y-94719438D01*
X117038571Y-94719438D02*
X116990952Y-94767057D01*
X116990952Y-94767057D02*
X116943333Y-94862295D01*
X116943333Y-94862295D02*
X116943333Y-94957533D01*
X116943333Y-94957533D02*
X116990952Y-95100390D01*
X116990952Y-95100390D02*
X117562380Y-95671819D01*
X117562380Y-95671819D02*
X116943333Y-95671819D01*
X175259107Y-120621569D02*
X175592440Y-120145378D01*
X175830535Y-120621569D02*
X175830535Y-119621569D01*
X175830535Y-119621569D02*
X175449583Y-119621569D01*
X175449583Y-119621569D02*
X175354345Y-119669188D01*
X175354345Y-119669188D02*
X175306726Y-119716807D01*
X175306726Y-119716807D02*
X175259107Y-119812045D01*
X175259107Y-119812045D02*
X175259107Y-119954902D01*
X175259107Y-119954902D02*
X175306726Y-120050140D01*
X175306726Y-120050140D02*
X175354345Y-120097759D01*
X175354345Y-120097759D02*
X175449583Y-120145378D01*
X175449583Y-120145378D02*
X175830535Y-120145378D01*
X174878154Y-119716807D02*
X174830535Y-119669188D01*
X174830535Y-119669188D02*
X174735297Y-119621569D01*
X174735297Y-119621569D02*
X174497202Y-119621569D01*
X174497202Y-119621569D02*
X174401964Y-119669188D01*
X174401964Y-119669188D02*
X174354345Y-119716807D01*
X174354345Y-119716807D02*
X174306726Y-119812045D01*
X174306726Y-119812045D02*
X174306726Y-119907283D01*
X174306726Y-119907283D02*
X174354345Y-120050140D01*
X174354345Y-120050140D02*
X174925773Y-120621569D01*
X174925773Y-120621569D02*
X174306726Y-120621569D01*
X173973392Y-119621569D02*
X173354345Y-119621569D01*
X173354345Y-119621569D02*
X173687678Y-120002521D01*
X173687678Y-120002521D02*
X173544821Y-120002521D01*
X173544821Y-120002521D02*
X173449583Y-120050140D01*
X173449583Y-120050140D02*
X173401964Y-120097759D01*
X173401964Y-120097759D02*
X173354345Y-120192997D01*
X173354345Y-120192997D02*
X173354345Y-120431092D01*
X173354345Y-120431092D02*
X173401964Y-120526330D01*
X173401964Y-120526330D02*
X173449583Y-120573950D01*
X173449583Y-120573950D02*
X173544821Y-120621569D01*
X173544821Y-120621569D02*
X173830535Y-120621569D01*
X173830535Y-120621569D02*
X173925773Y-120573950D01*
X173925773Y-120573950D02*
X173973392Y-120526330D01*
X198699319Y-72228595D02*
X199508842Y-72228595D01*
X199508842Y-72228595D02*
X199604080Y-72276214D01*
X199604080Y-72276214D02*
X199651700Y-72323833D01*
X199651700Y-72323833D02*
X199699319Y-72419071D01*
X199699319Y-72419071D02*
X199699319Y-72609547D01*
X199699319Y-72609547D02*
X199651700Y-72704785D01*
X199651700Y-72704785D02*
X199604080Y-72752404D01*
X199604080Y-72752404D02*
X199508842Y-72800023D01*
X199508842Y-72800023D02*
X198699319Y-72800023D01*
X199699319Y-73800023D02*
X199699319Y-73228595D01*
X199699319Y-73514309D02*
X198699319Y-73514309D01*
X198699319Y-73514309D02*
X198842176Y-73419071D01*
X198842176Y-73419071D02*
X198937414Y-73323833D01*
X198937414Y-73323833D02*
X198985033Y-73228595D01*
X161408154Y-66579569D02*
X161408154Y-67389092D01*
X161408154Y-67389092D02*
X161360535Y-67484330D01*
X161360535Y-67484330D02*
X161312916Y-67531950D01*
X161312916Y-67531950D02*
X161217678Y-67579569D01*
X161217678Y-67579569D02*
X161027202Y-67579569D01*
X161027202Y-67579569D02*
X160931964Y-67531950D01*
X160931964Y-67531950D02*
X160884345Y-67484330D01*
X160884345Y-67484330D02*
X160836726Y-67389092D01*
X160836726Y-67389092D02*
X160836726Y-66579569D01*
X160408154Y-66674807D02*
X160360535Y-66627188D01*
X160360535Y-66627188D02*
X160265297Y-66579569D01*
X160265297Y-66579569D02*
X160027202Y-66579569D01*
X160027202Y-66579569D02*
X159931964Y-66627188D01*
X159931964Y-66627188D02*
X159884345Y-66674807D01*
X159884345Y-66674807D02*
X159836726Y-66770045D01*
X159836726Y-66770045D02*
X159836726Y-66865283D01*
X159836726Y-66865283D02*
X159884345Y-67008140D01*
X159884345Y-67008140D02*
X160455773Y-67579569D01*
X160455773Y-67579569D02*
X159836726Y-67579569D01*
X129736285Y-56734254D02*
X129260095Y-56734254D01*
X129831523Y-57019969D02*
X129498190Y-56019969D01*
X129498190Y-56019969D02*
X129164857Y-57019969D01*
X128307714Y-57019969D02*
X128879142Y-57019969D01*
X128593428Y-57019969D02*
X128593428Y-56019969D01*
X128593428Y-56019969D02*
X128688666Y-56162826D01*
X128688666Y-56162826D02*
X128783904Y-56258064D01*
X128783904Y-56258064D02*
X128879142Y-56305683D01*
X130283904Y-96659969D02*
X130283904Y-97469492D01*
X130283904Y-97469492D02*
X130236285Y-97564730D01*
X130236285Y-97564730D02*
X130188666Y-97612350D01*
X130188666Y-97612350D02*
X130093428Y-97659969D01*
X130093428Y-97659969D02*
X129902952Y-97659969D01*
X129902952Y-97659969D02*
X129807714Y-97612350D01*
X129807714Y-97612350D02*
X129760095Y-97564730D01*
X129760095Y-97564730D02*
X129712476Y-97469492D01*
X129712476Y-97469492D02*
X129712476Y-96659969D01*
X129283904Y-97612350D02*
X129141047Y-97659969D01*
X129141047Y-97659969D02*
X128902952Y-97659969D01*
X128902952Y-97659969D02*
X128807714Y-97612350D01*
X128807714Y-97612350D02*
X128760095Y-97564730D01*
X128760095Y-97564730D02*
X128712476Y-97469492D01*
X128712476Y-97469492D02*
X128712476Y-97374254D01*
X128712476Y-97374254D02*
X128760095Y-97279016D01*
X128760095Y-97279016D02*
X128807714Y-97231397D01*
X128807714Y-97231397D02*
X128902952Y-97183778D01*
X128902952Y-97183778D02*
X129093428Y-97136159D01*
X129093428Y-97136159D02*
X129188666Y-97088540D01*
X129188666Y-97088540D02*
X129236285Y-97040921D01*
X129236285Y-97040921D02*
X129283904Y-96945683D01*
X129283904Y-96945683D02*
X129283904Y-96850445D01*
X129283904Y-96850445D02*
X129236285Y-96755207D01*
X129236285Y-96755207D02*
X129188666Y-96707588D01*
X129188666Y-96707588D02*
X129093428Y-96659969D01*
X129093428Y-96659969D02*
X128855333Y-96659969D01*
X128855333Y-96659969D02*
X128712476Y-96707588D01*
X127950571Y-97136159D02*
X127807714Y-97183778D01*
X127807714Y-97183778D02*
X127760095Y-97231397D01*
X127760095Y-97231397D02*
X127712476Y-97326635D01*
X127712476Y-97326635D02*
X127712476Y-97469492D01*
X127712476Y-97469492D02*
X127760095Y-97564730D01*
X127760095Y-97564730D02*
X127807714Y-97612350D01*
X127807714Y-97612350D02*
X127902952Y-97659969D01*
X127902952Y-97659969D02*
X128283904Y-97659969D01*
X128283904Y-97659969D02*
X128283904Y-96659969D01*
X128283904Y-96659969D02*
X127950571Y-96659969D01*
X127950571Y-96659969D02*
X127855333Y-96707588D01*
X127855333Y-96707588D02*
X127807714Y-96755207D01*
X127807714Y-96755207D02*
X127760095Y-96850445D01*
X127760095Y-96850445D02*
X127760095Y-96945683D01*
X127760095Y-96945683D02*
X127807714Y-97040921D01*
X127807714Y-97040921D02*
X127855333Y-97088540D01*
X127855333Y-97088540D02*
X127950571Y-97136159D01*
X127950571Y-97136159D02*
X128283904Y-97136159D01*
X118990904Y-68890819D02*
X118419476Y-68890819D01*
X118705190Y-69890819D02*
X118705190Y-68890819D01*
X118086142Y-69890819D02*
X118086142Y-68890819D01*
X118086142Y-68890819D02*
X117705190Y-68890819D01*
X117705190Y-68890819D02*
X117609952Y-68938438D01*
X117609952Y-68938438D02*
X117562333Y-68986057D01*
X117562333Y-68986057D02*
X117514714Y-69081295D01*
X117514714Y-69081295D02*
X117514714Y-69224152D01*
X117514714Y-69224152D02*
X117562333Y-69319390D01*
X117562333Y-69319390D02*
X117609952Y-69367009D01*
X117609952Y-69367009D02*
X117705190Y-69414628D01*
X117705190Y-69414628D02*
X118086142Y-69414628D01*
X117181380Y-68890819D02*
X116562333Y-68890819D01*
X116562333Y-68890819D02*
X116895666Y-69271771D01*
X116895666Y-69271771D02*
X116752809Y-69271771D01*
X116752809Y-69271771D02*
X116657571Y-69319390D01*
X116657571Y-69319390D02*
X116609952Y-69367009D01*
X116609952Y-69367009D02*
X116562333Y-69462247D01*
X116562333Y-69462247D02*
X116562333Y-69700342D01*
X116562333Y-69700342D02*
X116609952Y-69795580D01*
X116609952Y-69795580D02*
X116657571Y-69843200D01*
X116657571Y-69843200D02*
X116752809Y-69890819D01*
X116752809Y-69890819D02*
X117038523Y-69890819D01*
X117038523Y-69890819D02*
X117133761Y-69843200D01*
X117133761Y-69843200D02*
X117181380Y-69795580D01*
X154837507Y-118595930D02*
X154885126Y-118643550D01*
X154885126Y-118643550D02*
X155027983Y-118691169D01*
X155027983Y-118691169D02*
X155123221Y-118691169D01*
X155123221Y-118691169D02*
X155266078Y-118643550D01*
X155266078Y-118643550D02*
X155361316Y-118548311D01*
X155361316Y-118548311D02*
X155408935Y-118453073D01*
X155408935Y-118453073D02*
X155456554Y-118262597D01*
X155456554Y-118262597D02*
X155456554Y-118119740D01*
X155456554Y-118119740D02*
X155408935Y-117929264D01*
X155408935Y-117929264D02*
X155361316Y-117834026D01*
X155361316Y-117834026D02*
X155266078Y-117738788D01*
X155266078Y-117738788D02*
X155123221Y-117691169D01*
X155123221Y-117691169D02*
X155027983Y-117691169D01*
X155027983Y-117691169D02*
X154885126Y-117738788D01*
X154885126Y-117738788D02*
X154837507Y-117786407D01*
X153885126Y-118691169D02*
X154456554Y-118691169D01*
X154170840Y-118691169D02*
X154170840Y-117691169D01*
X154170840Y-117691169D02*
X154266078Y-117834026D01*
X154266078Y-117834026D02*
X154361316Y-117929264D01*
X154361316Y-117929264D02*
X154456554Y-117976883D01*
X152932745Y-118691169D02*
X153504173Y-118691169D01*
X153218459Y-118691169D02*
X153218459Y-117691169D01*
X153218459Y-117691169D02*
X153313697Y-117834026D01*
X153313697Y-117834026D02*
X153408935Y-117929264D01*
X153408935Y-117929264D02*
X153504173Y-117976883D01*
X152602307Y-124183930D02*
X152649926Y-124231550D01*
X152649926Y-124231550D02*
X152792783Y-124279169D01*
X152792783Y-124279169D02*
X152888021Y-124279169D01*
X152888021Y-124279169D02*
X153030878Y-124231550D01*
X153030878Y-124231550D02*
X153126116Y-124136311D01*
X153126116Y-124136311D02*
X153173735Y-124041073D01*
X153173735Y-124041073D02*
X153221354Y-123850597D01*
X153221354Y-123850597D02*
X153221354Y-123707740D01*
X153221354Y-123707740D02*
X153173735Y-123517264D01*
X153173735Y-123517264D02*
X153126116Y-123422026D01*
X153126116Y-123422026D02*
X153030878Y-123326788D01*
X153030878Y-123326788D02*
X152888021Y-123279169D01*
X152888021Y-123279169D02*
X152792783Y-123279169D01*
X152792783Y-123279169D02*
X152649926Y-123326788D01*
X152649926Y-123326788D02*
X152602307Y-123374407D01*
X151649926Y-124279169D02*
X152221354Y-124279169D01*
X151935640Y-124279169D02*
X151935640Y-123279169D01*
X151935640Y-123279169D02*
X152030878Y-123422026D01*
X152030878Y-123422026D02*
X152126116Y-123517264D01*
X152126116Y-123517264D02*
X152221354Y-123564883D01*
X151030878Y-123279169D02*
X150935640Y-123279169D01*
X150935640Y-123279169D02*
X150840402Y-123326788D01*
X150840402Y-123326788D02*
X150792783Y-123374407D01*
X150792783Y-123374407D02*
X150745164Y-123469645D01*
X150745164Y-123469645D02*
X150697545Y-123660121D01*
X150697545Y-123660121D02*
X150697545Y-123898216D01*
X150697545Y-123898216D02*
X150745164Y-124088692D01*
X150745164Y-124088692D02*
X150792783Y-124183930D01*
X150792783Y-124183930D02*
X150840402Y-124231550D01*
X150840402Y-124231550D02*
X150935640Y-124279169D01*
X150935640Y-124279169D02*
X151030878Y-124279169D01*
X151030878Y-124279169D02*
X151126116Y-124231550D01*
X151126116Y-124231550D02*
X151173735Y-124183930D01*
X151173735Y-124183930D02*
X151221354Y-124088692D01*
X151221354Y-124088692D02*
X151268973Y-123898216D01*
X151268973Y-123898216D02*
X151268973Y-123660121D01*
X151268973Y-123660121D02*
X151221354Y-123469645D01*
X151221354Y-123469645D02*
X151173735Y-123374407D01*
X151173735Y-123374407D02*
X151126116Y-123326788D01*
X151126116Y-123326788D02*
X151030878Y-123279169D01*
X130361333Y-112351819D02*
X130361333Y-113066104D01*
X130361333Y-113066104D02*
X130408952Y-113208961D01*
X130408952Y-113208961D02*
X130504190Y-113304200D01*
X130504190Y-113304200D02*
X130647047Y-113351819D01*
X130647047Y-113351819D02*
X130742285Y-113351819D01*
X129456571Y-112685152D02*
X129456571Y-113351819D01*
X129694666Y-112304200D02*
X129932761Y-113018485D01*
X129932761Y-113018485D02*
X129313714Y-113018485D01*
X183149904Y-51520819D02*
X183149904Y-52330342D01*
X183149904Y-52330342D02*
X183102285Y-52425580D01*
X183102285Y-52425580D02*
X183054666Y-52473200D01*
X183054666Y-52473200D02*
X182959428Y-52520819D01*
X182959428Y-52520819D02*
X182768952Y-52520819D01*
X182768952Y-52520819D02*
X182673714Y-52473200D01*
X182673714Y-52473200D02*
X182626095Y-52425580D01*
X182626095Y-52425580D02*
X182578476Y-52330342D01*
X182578476Y-52330342D02*
X182578476Y-51520819D01*
X181673714Y-51854152D02*
X181673714Y-52520819D01*
X181911809Y-51473200D02*
X182149904Y-52187485D01*
X182149904Y-52187485D02*
X181530857Y-52187485D01*
X161004333Y-43788819D02*
X161004333Y-44503104D01*
X161004333Y-44503104D02*
X161051952Y-44645961D01*
X161051952Y-44645961D02*
X161147190Y-44741200D01*
X161147190Y-44741200D02*
X161290047Y-44788819D01*
X161290047Y-44788819D02*
X161385285Y-44788819D01*
X160623380Y-43788819D02*
X160004333Y-43788819D01*
X160004333Y-43788819D02*
X160337666Y-44169771D01*
X160337666Y-44169771D02*
X160194809Y-44169771D01*
X160194809Y-44169771D02*
X160099571Y-44217390D01*
X160099571Y-44217390D02*
X160051952Y-44265009D01*
X160051952Y-44265009D02*
X160004333Y-44360247D01*
X160004333Y-44360247D02*
X160004333Y-44598342D01*
X160004333Y-44598342D02*
X160051952Y-44693580D01*
X160051952Y-44693580D02*
X160099571Y-44741200D01*
X160099571Y-44741200D02*
X160194809Y-44788819D01*
X160194809Y-44788819D02*
X160480523Y-44788819D01*
X160480523Y-44788819D02*
X160575761Y-44741200D01*
X160575761Y-44741200D02*
X160623380Y-44693580D01*
D11*
%TO.C,U6*%
X182227850Y-81371750D02*
X183877850Y-81371750D01*
X182227850Y-101811750D02*
X182227850Y-81371750D01*
X185877850Y-81371750D02*
X187527850Y-81371750D01*
X187527850Y-81371750D02*
X187527850Y-101811750D01*
X187527850Y-101811750D02*
X182227850Y-101811750D01*
X190017850Y-81311750D02*
X179737850Y-81311750D01*
X179737850Y-101871750D01*
X190017850Y-101871750D01*
X190017850Y-81311750D01*
X185877850Y-81371750D02*
G75*
G02*
X183877850Y-81371750I-1000000J0D01*
G01*
%TO.C,C9*%
X148836850Y-120819898D02*
X148836850Y-121342402D01*
X150306850Y-120819898D02*
X150306850Y-121342402D01*
%TO.C,U3*%
X188971000Y-54527500D02*
X188971000Y-76567500D01*
X188971000Y-76567500D02*
X198411000Y-76567500D01*
X191291000Y-54147500D02*
X193291000Y-54147500D01*
X198411000Y-54527500D02*
X188971000Y-54527500D01*
X198411000Y-76567500D02*
X198411000Y-54527500D01*
%TO.C,C15*%
X161435250Y-120819898D02*
X161435250Y-121342402D01*
X162905250Y-120819898D02*
X162905250Y-121342402D01*
%TO.C,TP1*%
X139336000Y-65422000D02*
X142096000Y-65422000D01*
X139336000Y-65532000D02*
X139336000Y-65422000D01*
X139336000Y-65532000D02*
X142096000Y-65532000D01*
X139336000Y-66802000D02*
X139336000Y-68182000D01*
X139336000Y-68182000D02*
X140716000Y-68182000D01*
X142096000Y-65532000D02*
X142096000Y-65422000D01*
%TO.C,U5*%
X155498750Y-79704550D02*
X155498750Y-77754550D01*
X155498750Y-79704550D02*
X155498750Y-81654550D01*
X164368750Y-79704550D02*
X164368750Y-77754550D01*
X164368750Y-79704550D02*
X164368750Y-81654550D01*
X164633750Y-82644550D02*
X164303750Y-82404550D01*
X164633750Y-82164550D01*
X164633750Y-82644550D01*
G36*
X164633750Y-82644550D02*
G01*
X164303750Y-82404550D01*
X164633750Y-82164550D01*
X164633750Y-82644550D01*
G37*
%TO.C,C14*%
X159840702Y-125984950D02*
X159318198Y-125984950D01*
X159840702Y-127454950D02*
X159318198Y-127454950D01*
%TO.C,C8*%
X146601650Y-120769098D02*
X146601650Y-121291602D01*
X148071650Y-120769098D02*
X148071650Y-121291602D01*
%TO.C,C13*%
X156945102Y-130709350D02*
X156422598Y-130709350D01*
X156945102Y-132179350D02*
X156422598Y-132179350D01*
%TO.C,R24*%
X177030850Y-123238614D02*
X177030850Y-122784486D01*
X178500850Y-123238614D02*
X178500850Y-122784486D01*
%TO.C,J2*%
X167803000Y-46816000D02*
X175423000Y-46816000D01*
X167803000Y-52786000D02*
X167803000Y-46816000D01*
X167813000Y-46826000D02*
X169613000Y-46826000D01*
X167813000Y-47576000D02*
X167813000Y-46826000D01*
X167813000Y-49076000D02*
X168563000Y-49076000D01*
X168563000Y-49076000D02*
X168563000Y-52026000D01*
X168563000Y-52026000D02*
X171613000Y-52026000D01*
X169613000Y-46826000D02*
X169613000Y-47576000D01*
X169613000Y-47576000D02*
X167813000Y-47576000D01*
X171113000Y-46826000D02*
X172113000Y-46826000D01*
X171113000Y-47576000D02*
X171113000Y-46826000D01*
X172113000Y-46826000D02*
X172113000Y-47576000D01*
X172113000Y-47576000D02*
X171113000Y-47576000D01*
X173613000Y-46826000D02*
X175413000Y-46826000D01*
X173613000Y-47576000D02*
X173613000Y-46826000D01*
X174463000Y-46526000D02*
X175713000Y-46526000D01*
X174663000Y-49076000D02*
X174663000Y-52026000D01*
X174663000Y-52026000D02*
X171613000Y-52026000D01*
X175413000Y-46826000D02*
X175413000Y-47576000D01*
X175413000Y-47576000D02*
X173613000Y-47576000D01*
X175413000Y-49076000D02*
X174663000Y-49076000D01*
X175423000Y-46816000D02*
X175423000Y-52786000D01*
X175423000Y-52786000D02*
X167803000Y-52786000D01*
X175713000Y-46526000D02*
X175713000Y-47776000D01*
%TO.C,C12*%
X155796450Y-120667498D02*
X155796450Y-121190002D01*
X157266450Y-120667498D02*
X157266450Y-121190002D01*
%TO.C,R22*%
X142131250Y-121613014D02*
X142131250Y-121158886D01*
X143601250Y-121613014D02*
X143601250Y-121158886D01*
%TO.C,TP2*%
X116730000Y-91457000D02*
X119490000Y-91457000D01*
X116730000Y-91567000D02*
X116730000Y-91457000D01*
X116730000Y-91567000D02*
X119490000Y-91567000D01*
X116730000Y-92837000D02*
X116730000Y-94217000D01*
X116730000Y-94217000D02*
X118110000Y-94217000D01*
X119490000Y-91567000D02*
X119490000Y-91457000D01*
%TO.C,R23*%
X174084450Y-123187814D02*
X174084450Y-122733686D01*
X175554450Y-123187814D02*
X175554450Y-122733686D01*
%TO.C,U1*%
X200244500Y-67080500D02*
X200244500Y-78800500D01*
X200244500Y-67080500D02*
X208864500Y-67080500D01*
X200244500Y-78800500D02*
X208864500Y-78800500D01*
X207864500Y-66840500D02*
X209104500Y-66840500D01*
X208864500Y-67080500D02*
X208864500Y-78800500D01*
X209104500Y-66840500D02*
X209104500Y-68080500D01*
%TO.C,U2*%
X157996250Y-45684750D02*
X163296250Y-45684750D01*
X157996250Y-66124750D02*
X157996250Y-45684750D01*
X159646250Y-66124750D02*
X157996250Y-66124750D01*
X163296250Y-45684750D02*
X163296250Y-66124750D01*
X163296250Y-66124750D02*
X161646250Y-66124750D01*
X159646250Y-66124750D02*
G75*
G02*
X161646250Y-66124750I1000000J0D01*
G01*
%TO.C,A1*%
X120002000Y-57705150D02*
X138042000Y-57705150D01*
X120002000Y-101145150D02*
X120002000Y-57705150D01*
X120002000Y-101145150D02*
X125082000Y-101145150D01*
X122672000Y-60375150D02*
X120002000Y-60375150D01*
X122672000Y-60375150D02*
X122672000Y-98475150D01*
X122672000Y-98475150D02*
X120002000Y-98475150D01*
X125082000Y-93265150D02*
X125082000Y-103685150D01*
X125082000Y-103685150D02*
X132962000Y-103685150D01*
X132962000Y-93265150D02*
X125082000Y-93265150D01*
X132962000Y-103685150D02*
X132962000Y-93265150D01*
X135372000Y-60375150D02*
X138042000Y-60375150D01*
X135372000Y-62915150D02*
X135372000Y-60375150D01*
X135372000Y-62915150D02*
X135372000Y-98475150D01*
X135372000Y-62915150D02*
X138042000Y-62915150D01*
X135372000Y-98475150D02*
X138042000Y-98475150D01*
X138042000Y-57705150D02*
X138042000Y-60375150D01*
X138042000Y-62915150D02*
X138042000Y-101145150D01*
X138042000Y-101145150D02*
X132962000Y-101145150D01*
%TO.C,TP3*%
X116349000Y-65676000D02*
X119109000Y-65676000D01*
X116349000Y-65786000D02*
X116349000Y-65676000D01*
X116349000Y-65786000D02*
X119109000Y-65786000D01*
X116349000Y-67056000D02*
X116349000Y-68436000D01*
X116349000Y-68436000D02*
X117729000Y-68436000D01*
X119109000Y-65786000D02*
X119109000Y-65676000D01*
%TO.C,C11*%
X153459650Y-120769098D02*
X153459650Y-121291602D01*
X154929650Y-120769098D02*
X154929650Y-121291602D01*
%TO.C,C10*%
X151224450Y-120769098D02*
X151224450Y-121291602D01*
X152694450Y-120769098D02*
X152694450Y-121291602D01*
%TO.C,J4*%
X123428000Y-112097000D02*
X123428000Y-110847000D01*
X123718000Y-105837000D02*
X136338000Y-105837000D01*
X123718000Y-111807000D02*
X123718000Y-105837000D01*
X123728000Y-109547000D02*
X124478000Y-109547000D01*
X123728000Y-111047000D02*
X125528000Y-111047000D01*
X123728000Y-111797000D02*
X123728000Y-111047000D01*
X124478000Y-106597000D02*
X130028000Y-106597000D01*
X124478000Y-109547000D02*
X124478000Y-106597000D01*
X124678000Y-112097000D02*
X123428000Y-112097000D01*
X125528000Y-111047000D02*
X125528000Y-111797000D01*
X125528000Y-111797000D02*
X123728000Y-111797000D01*
X127028000Y-111047000D02*
X133028000Y-111047000D01*
X127028000Y-111797000D02*
X127028000Y-111047000D01*
X133028000Y-111047000D02*
X133028000Y-111797000D01*
X133028000Y-111797000D02*
X127028000Y-111797000D01*
X134528000Y-111047000D02*
X136328000Y-111047000D01*
X134528000Y-111797000D02*
X134528000Y-111047000D01*
X135578000Y-106597000D02*
X130028000Y-106597000D01*
X135578000Y-109547000D02*
X135578000Y-106597000D01*
X136328000Y-109547000D02*
X135578000Y-109547000D01*
X136328000Y-111047000D02*
X136328000Y-111797000D01*
X136328000Y-111797000D02*
X134528000Y-111797000D01*
X136338000Y-105837000D02*
X136338000Y-111807000D01*
X136338000Y-111807000D02*
X123718000Y-111807000D01*
%TO.C,U4*%
X177278000Y-68776000D02*
X177278000Y-52906000D01*
X179363000Y-68776000D02*
X179363000Y-71216000D01*
X180333000Y-68776000D02*
X180333000Y-71216000D01*
X181903000Y-68776000D02*
X181903000Y-71216000D01*
X182873000Y-68776000D02*
X182873000Y-71216000D01*
X184443000Y-68776000D02*
X184443000Y-71216000D01*
X185413000Y-68776000D02*
X185413000Y-71216000D01*
X187498000Y-52906000D02*
X177278000Y-52906000D01*
X187498000Y-68776000D02*
X177278000Y-68776000D01*
X187498000Y-68776000D02*
X187498000Y-52906000D01*
%TO.C,J3*%
X154071000Y-43534000D02*
X154071000Y-42284000D01*
X154361000Y-37274000D02*
X166981000Y-37274000D01*
X154361000Y-43244000D02*
X154361000Y-37274000D01*
X154371000Y-40984000D02*
X155121000Y-40984000D01*
X154371000Y-42484000D02*
X156171000Y-42484000D01*
X154371000Y-43234000D02*
X154371000Y-42484000D01*
X155121000Y-38034000D02*
X160671000Y-38034000D01*
X155121000Y-40984000D02*
X155121000Y-38034000D01*
X155321000Y-43534000D02*
X154071000Y-43534000D01*
X156171000Y-42484000D02*
X156171000Y-43234000D01*
X156171000Y-43234000D02*
X154371000Y-43234000D01*
X157671000Y-42484000D02*
X163671000Y-42484000D01*
X157671000Y-43234000D02*
X157671000Y-42484000D01*
X163671000Y-42484000D02*
X163671000Y-43234000D01*
X163671000Y-43234000D02*
X157671000Y-43234000D01*
X165171000Y-42484000D02*
X166971000Y-42484000D01*
X165171000Y-43234000D02*
X165171000Y-42484000D01*
X166221000Y-38034000D02*
X160671000Y-38034000D01*
X166221000Y-40984000D02*
X166221000Y-38034000D01*
X166971000Y-40984000D02*
X166221000Y-40984000D01*
X166971000Y-42484000D02*
X166971000Y-43234000D01*
X166971000Y-43234000D02*
X165171000Y-43234000D01*
X166981000Y-37274000D02*
X166981000Y-43244000D01*
X166981000Y-43244000D02*
X154361000Y-43244000D01*
%TD*%
M02*
