%TF.GenerationSoftware,KiCad,Pcbnew,9.0.2*%
%TF.CreationDate,2025-06-27T21:47:48+01:00*%
%TF.ProjectId,Full_Circuit,46756c6c-5f43-4697-9263-7569742e6b69,rev?*%
%TF.SameCoordinates,Original*%
%TF.FileFunction,Paste,Top*%
%TF.FilePolarity,Positive*%
%FSLAX46Y46*%
G04 Gerber Fmt 4.6, Leading zero omitted, Abs format (unit mm)*
G04 Created by KiCad (PCBNEW 9.0.2) date 2025-06-27 21:47:48*
%MOMM*%
%LPD*%
G01*
G04 APERTURE LIST*
G04 Aperture macros list*
%AMRoundRect*
0 Rectangle with rounded corners*
0 $1 Rounding radius*
0 $2 $3 $4 $5 $6 $7 $8 $9 X,Y pos of 4 corners*
0 Add a 4 corners polygon primitive as box body*
4,1,4,$2,$3,$4,$5,$6,$7,$8,$9,$2,$3,0*
0 Add four circle primitives for the rounded corners*
1,1,$1+$1,$2,$3*
1,1,$1+$1,$4,$5*
1,1,$1+$1,$6,$7*
1,1,$1+$1,$8,$9*
0 Add four rect primitives between the rounded corners*
20,1,$1+$1,$2,$3,$4,$5,0*
20,1,$1+$1,$4,$5,$6,$7,0*
20,1,$1+$1,$6,$7,$8,$9,0*
20,1,$1+$1,$8,$9,$2,$3,0*%
G04 Aperture macros list end*
%ADD10RoundRect,0.150000X-0.150000X0.825000X-0.150000X-0.825000X0.150000X-0.825000X0.150000X0.825000X0*%
%ADD11RoundRect,0.250000X0.350000X0.450000X-0.350000X0.450000X-0.350000X-0.450000X0.350000X-0.450000X0*%
%ADD12RoundRect,0.250000X-0.337500X-0.475000X0.337500X-0.475000X0.337500X0.475000X-0.337500X0.475000X0*%
%ADD13RoundRect,0.250000X-0.350000X-0.450000X0.350000X-0.450000X0.350000X0.450000X-0.350000X0.450000X0*%
%ADD14RoundRect,0.250000X0.450000X-0.350000X0.450000X0.350000X-0.450000X0.350000X-0.450000X-0.350000X0*%
%ADD15RoundRect,0.250000X-0.475000X0.337500X-0.475000X-0.337500X0.475000X-0.337500X0.475000X0.337500X0*%
%ADD16RoundRect,0.250000X0.337500X0.475000X-0.337500X0.475000X-0.337500X-0.475000X0.337500X-0.475000X0*%
%ADD17RoundRect,0.250000X-0.450000X0.350000X-0.450000X-0.350000X0.450000X-0.350000X0.450000X0.350000X0*%
G04 APERTURE END LIST*
D10*
%TO.C,U7*%
X117602000Y-70550000D03*
X116332000Y-70550000D03*
X115062000Y-70550000D03*
X113792000Y-70550000D03*
X113792000Y-75500000D03*
X115062000Y-75500000D03*
X116332000Y-75500000D03*
X117602000Y-75500000D03*
%TD*%
D11*
%TO.C,R19*%
X195199000Y-97917000D03*
X193199000Y-97917000D03*
%TD*%
D12*
%TO.C,C1*%
X126851500Y-60579000D03*
X128926500Y-60579000D03*
%TD*%
D11*
%TO.C,R25*%
X115935000Y-80518000D03*
X113935000Y-80518000D03*
%TD*%
D13*
%TO.C,R6*%
X125238000Y-70739000D03*
X127238000Y-70739000D03*
%TD*%
D11*
%TO.C,R18*%
X195199000Y-95377000D03*
X193199000Y-95377000D03*
%TD*%
D14*
%TO.C,R7*%
X126111000Y-91551000D03*
X126111000Y-89551000D03*
%TD*%
%TO.C,R8*%
X128397000Y-88122000D03*
X128397000Y-86122000D03*
%TD*%
D11*
%TO.C,R15*%
X195453000Y-87757000D03*
X193453000Y-87757000D03*
%TD*%
D15*
%TO.C,C5*%
X133485750Y-69680000D03*
X133485750Y-71755000D03*
%TD*%
D14*
%TO.C,R1*%
X181753000Y-45069000D03*
X181753000Y-43069000D03*
%TD*%
D15*
%TO.C,C19*%
X118364000Y-61954500D03*
X118364000Y-64029500D03*
%TD*%
D11*
%TO.C,R10*%
X133461000Y-76327000D03*
X131461000Y-76327000D03*
%TD*%
D16*
%TO.C,C7*%
X186330500Y-76327000D03*
X184255500Y-76327000D03*
%TD*%
D14*
%TO.C,R4*%
X139843000Y-44561000D03*
X139843000Y-42561000D03*
%TD*%
D11*
%TO.C,R13*%
X195580000Y-82804000D03*
X193580000Y-82804000D03*
%TD*%
D17*
%TO.C,R3*%
X152924000Y-42307000D03*
X152924000Y-44307000D03*
%TD*%
D11*
%TO.C,R14*%
X195469000Y-85267150D03*
X193469000Y-85267150D03*
%TD*%
%TO.C,R17*%
X195199000Y-92837000D03*
X193199000Y-92837000D03*
%TD*%
D17*
%TO.C,R2*%
X169053000Y-42307000D03*
X169053000Y-44307000D03*
%TD*%
D14*
%TO.C,R11*%
X130437750Y-71739000D03*
X130437750Y-69739000D03*
%TD*%
D17*
%TO.C,R26*%
X110871000Y-73930000D03*
X110871000Y-75930000D03*
%TD*%
%TO.C,R5*%
X126365000Y-64024000D03*
X126365000Y-66024000D03*
%TD*%
D11*
%TO.C,R12*%
X195580000Y-80161750D03*
X193580000Y-80161750D03*
%TD*%
D12*
%TO.C,C6*%
X178794500Y-76581000D03*
X180869500Y-76581000D03*
%TD*%
D11*
%TO.C,R16*%
X195453000Y-90297000D03*
X193453000Y-90297000D03*
%TD*%
D17*
%TO.C,R9*%
X131318000Y-82693000D03*
X131318000Y-84693000D03*
%TD*%
M02*
