%TF.GenerationSoftware,KiCad,Pcbnew,9.0.2*%
%TF.CreationDate,2025-06-27T21:47:48+01:00*%
%TF.ProjectId,Full_Circuit,46756c6c-5f43-4697-9263-7569742e6b69,rev?*%
%TF.SameCoordinates,Original*%
%TF.FileFunction,Soldermask,Bot*%
%TF.FilePolarity,Negative*%
%FSLAX46Y46*%
G04 Gerber Fmt 4.6, Leading zero omitted, Abs format (unit mm)*
G04 Created by KiCad (PCBNEW 9.0.2) date 2025-06-27 21:47:48*
%MOMM*%
%LPD*%
G01*
G04 APERTURE LIST*
G04 Aperture macros list*
%AMRoundRect*
0 Rectangle with rounded corners*
0 $1 Rounding radius*
0 $2 $3 $4 $5 $6 $7 $8 $9 X,Y pos of 4 corners*
0 Add a 4 corners polygon primitive as box body*
4,1,4,$2,$3,$4,$5,$6,$7,$8,$9,$2,$3,0*
0 Add four circle primitives for the rounded corners*
1,1,$1+$1,$2,$3*
1,1,$1+$1,$4,$5*
1,1,$1+$1,$6,$7*
1,1,$1+$1,$8,$9*
0 Add four rect primitives between the rounded corners*
20,1,$1+$1,$2,$3,$4,$5,0*
20,1,$1+$1,$4,$5,$6,$7,0*
20,1,$1+$1,$6,$7,$8,$9,0*
20,1,$1+$1,$8,$9,$2,$3,0*%
G04 Aperture macros list end*
%ADD10R,1.800000X1.800000*%
%ADD11C,1.800000*%
%ADD12RoundRect,0.250000X0.750000X-0.600000X0.750000X0.600000X-0.750000X0.600000X-0.750000X-0.600000X0*%
%ADD13O,2.000000X1.700000*%
%ADD14C,2.500000*%
%ADD15C,3.800000*%
%ADD16C,1.600000*%
%ADD17C,1.400000*%
%ADD18C,3.200000*%
%ADD19RoundRect,0.250000X0.725000X-0.600000X0.725000X0.600000X-0.725000X0.600000X-0.725000X-0.600000X0*%
%ADD20O,1.950000X1.700000*%
%ADD21C,1.200000*%
%ADD22C,2.800000*%
%ADD23RoundRect,0.250000X0.550000X0.550000X-0.550000X0.550000X-0.550000X-0.550000X0.550000X-0.550000X0*%
%ADD24RoundRect,0.250000X-0.475000X0.337500X-0.475000X-0.337500X0.475000X-0.337500X0.475000X0.337500X0*%
%ADD25R,3.000000X1.500000*%
%ADD26O,3.000000X1.500000*%
%ADD27R,1.700000X1.700000*%
%ADD28RoundRect,0.150000X0.150000X-0.825000X0.150000X0.825000X-0.150000X0.825000X-0.150000X-0.825000X0*%
%ADD29RoundRect,0.250000X0.337500X0.475000X-0.337500X0.475000X-0.337500X-0.475000X0.337500X-0.475000X0*%
%ADD30RoundRect,0.250000X0.450000X-0.350000X0.450000X0.350000X-0.450000X0.350000X-0.450000X-0.350000X0*%
%ADD31RoundRect,0.250000X0.250000X0.750000X-0.250000X0.750000X-0.250000X-0.750000X0.250000X-0.750000X0*%
%ADD32RoundRect,0.250000X0.600000X0.750000X-0.600000X0.750000X-0.600000X-0.750000X0.600000X-0.750000X0*%
%ADD33O,1.700000X2.000000*%
%ADD34R,2.300000X1.500000*%
%ADD35O,2.300000X1.500000*%
%ADD36RoundRect,0.250000X-0.550000X-0.550000X0.550000X-0.550000X0.550000X0.550000X-0.550000X0.550000X0*%
%ADD37R,1.600000X1.600000*%
%ADD38O,1.600000X1.600000*%
%ADD39RoundRect,0.250000X-0.600000X-0.725000X0.600000X-0.725000X0.600000X0.725000X-0.600000X0.725000X0*%
%ADD40O,1.700000X1.950000*%
%ADD41C,3.500000*%
%ADD42R,1.905000X2.000000*%
%ADD43O,1.905000X2.000000*%
G04 APERTURE END LIST*
D10*
%TO.C,D11*%
X123435250Y-125277150D03*
D11*
X123435250Y-122737150D03*
%TD*%
D12*
%TO.C,SW1*%
X113665000Y-88098000D03*
D13*
X113665000Y-85598000D03*
%TD*%
D11*
%TO.C,M2*%
X174019250Y-84251150D03*
D14*
X169519250Y-75251150D03*
D15*
X160519250Y-94251150D03*
D11*
X147019250Y-84251150D03*
D16*
X149089250Y-88061150D03*
X149089250Y-80441150D03*
X171949250Y-80441150D03*
X171949250Y-88061150D03*
%TD*%
D17*
%TO.C,R20*%
X109474000Y-91567000D03*
X109474000Y-83947000D03*
%TD*%
D10*
%TO.C,D9*%
X190084850Y-131881150D03*
D11*
X190084850Y-129341150D03*
%TD*%
D10*
%TO.C,D7*%
X202556250Y-118647750D03*
D11*
X202556250Y-116107750D03*
%TD*%
D18*
%TO.C,H3*%
X145669000Y-53975000D03*
%TD*%
D10*
%TO.C,D5*%
X206163050Y-111992950D03*
D11*
X206163050Y-109452950D03*
%TD*%
D18*
%TO.C,H2*%
X202438000Y-62357000D03*
%TD*%
%TO.C,H1*%
X160671000Y-140208000D03*
%TD*%
D10*
%TO.C,D2*%
X176165000Y-43947000D03*
D11*
X176165000Y-41407000D03*
%TD*%
D10*
%TO.C,D3*%
X145304000Y-43947000D03*
D11*
X145304000Y-41407000D03*
%TD*%
D16*
%TO.C,C18*%
X175367000Y-55245000D03*
X172867000Y-55245000D03*
%TD*%
D10*
%TO.C,D10*%
X130928250Y-131906550D03*
D11*
X130928250Y-129366550D03*
%TD*%
D10*
%TO.C,D13*%
X114926250Y-111992950D03*
D11*
X114926250Y-109452950D03*
%TD*%
D19*
%TO.C,J6*%
X112395000Y-103131000D03*
D20*
X112395000Y-100631000D03*
X112395000Y-98131000D03*
X112395000Y-95631000D03*
%TD*%
D21*
%TO.C,DS1*%
X148544650Y-129166150D03*
X150044650Y-129166150D03*
X151544650Y-129166150D03*
X153044650Y-129166150D03*
X154544650Y-129166150D03*
X156044650Y-129166150D03*
X157544650Y-129166150D03*
X159044650Y-129166150D03*
X160544650Y-129166150D03*
X162044650Y-129166150D03*
X163544650Y-129166150D03*
X165044650Y-129166150D03*
X166544650Y-129166150D03*
X168044650Y-129166150D03*
X169544650Y-129166150D03*
X171044650Y-129166150D03*
X172544650Y-129166150D03*
D22*
X143244650Y-127366150D03*
X146244650Y-127366150D03*
X174844650Y-127366150D03*
X177844650Y-127366150D03*
D17*
X140444650Y-129316150D03*
X140444650Y-106216150D03*
X180644650Y-106216150D03*
X180644650Y-129316150D03*
%TD*%
D10*
%TO.C,D12*%
X118482250Y-118647750D03*
D11*
X118482250Y-116107750D03*
%TD*%
D16*
%TO.C,C17*%
X211201000Y-78192000D03*
X211201000Y-75692000D03*
%TD*%
D10*
%TO.C,D1*%
X186579000Y-48900000D03*
D11*
X186579000Y-46360000D03*
%TD*%
D10*
%TO.C,D8*%
X197450850Y-125277150D03*
D11*
X197450850Y-122737150D03*
%TD*%
D10*
%TO.C,D4*%
X134382000Y-49027000D03*
D11*
X134382000Y-46487000D03*
%TD*%
D23*
%TO.C,U6*%
X188687850Y-82701750D03*
D16*
X188687850Y-85241750D03*
X188687850Y-87781750D03*
X188687850Y-90321750D03*
X188687850Y-92861750D03*
X188687850Y-95401750D03*
X188687850Y-97941750D03*
X188687850Y-100481750D03*
X181067850Y-100481750D03*
X181067850Y-97941750D03*
X181067850Y-95401750D03*
X181067850Y-92861750D03*
X181067850Y-90321750D03*
X181067850Y-87781750D03*
X181067850Y-85241750D03*
X181067850Y-82701750D03*
%TD*%
D24*
%TO.C,C9*%
X149571850Y-120043650D03*
X149571850Y-122118650D03*
%TD*%
D25*
%TO.C,U3*%
X192291000Y-56647500D03*
D26*
X192291000Y-59187500D03*
X192291000Y-61727500D03*
X192291000Y-66807500D03*
X192291000Y-69347500D03*
X192291000Y-71887500D03*
X192291000Y-74427500D03*
%TD*%
D24*
%TO.C,C15*%
X162170250Y-120043650D03*
X162170250Y-122118650D03*
%TD*%
D27*
%TO.C,TP1*%
X140716000Y-66802000D03*
%TD*%
D28*
%TO.C,U5*%
X163743750Y-82179550D03*
X162473750Y-82179550D03*
X161203750Y-82179550D03*
X159933750Y-82179550D03*
X158663750Y-82179550D03*
X157393750Y-82179550D03*
X156123750Y-82179550D03*
X156123750Y-77229550D03*
X157393750Y-77229550D03*
X158663750Y-77229550D03*
X159933750Y-77229550D03*
X161203750Y-77229550D03*
X162473750Y-77229550D03*
X163743750Y-77229550D03*
%TD*%
D29*
%TO.C,C14*%
X160616950Y-126719950D03*
X158541950Y-126719950D03*
%TD*%
D24*
%TO.C,C8*%
X147336650Y-119992850D03*
X147336650Y-122067850D03*
%TD*%
D29*
%TO.C,C13*%
X157721350Y-131444350D03*
X155646350Y-131444350D03*
%TD*%
D30*
%TO.C,R24*%
X177765850Y-124011550D03*
X177765850Y-122011550D03*
%TD*%
D31*
%TO.C,J5*%
X126746000Y-53975000D03*
%TD*%
D32*
%TO.C,J2*%
X172863000Y-49276000D03*
D33*
X170363000Y-49276000D03*
%TD*%
D24*
%TO.C,C12*%
X156531450Y-119891250D03*
X156531450Y-121966250D03*
%TD*%
D30*
%TO.C,R22*%
X142866250Y-122385950D03*
X142866250Y-120385950D03*
%TD*%
D27*
%TO.C,TP2*%
X118110000Y-92837000D03*
%TD*%
D30*
%TO.C,R23*%
X174819450Y-123960750D03*
X174819450Y-121960750D03*
%TD*%
D34*
%TO.C,U1*%
X206804500Y-70450500D03*
D35*
X206804500Y-72990500D03*
X206804500Y-75530500D03*
%TD*%
D36*
%TO.C,U2*%
X156836250Y-64794750D03*
D16*
X156836250Y-62254750D03*
X156836250Y-59714750D03*
X156836250Y-57174750D03*
X156836250Y-54634750D03*
X156836250Y-52094750D03*
X156836250Y-49554750D03*
X156836250Y-47014750D03*
X164456250Y-47014750D03*
X164456250Y-49554750D03*
X164456250Y-52094750D03*
X164456250Y-54634750D03*
X164456250Y-57174750D03*
X164456250Y-59714750D03*
X164456250Y-62254750D03*
X164456250Y-64794750D03*
%TD*%
D37*
%TO.C,A1*%
X136642000Y-61645150D03*
D38*
X136642000Y-64185150D03*
X136642000Y-66725150D03*
X136642000Y-69265150D03*
X136642000Y-71805150D03*
X136642000Y-74345150D03*
X136642000Y-76885150D03*
X136642000Y-79425150D03*
X136642000Y-81965150D03*
X136642000Y-84505150D03*
X136642000Y-87045150D03*
X136642000Y-89585150D03*
X136642000Y-92125150D03*
X136642000Y-94665150D03*
X136642000Y-97205150D03*
X121402000Y-97205150D03*
X121402000Y-94665150D03*
X121402000Y-92125150D03*
X121402000Y-89585150D03*
X121402000Y-87045150D03*
X121402000Y-84505150D03*
X121402000Y-81965150D03*
X121402000Y-79425150D03*
X121402000Y-76885150D03*
X121402000Y-74345150D03*
X121402000Y-71805150D03*
X121402000Y-69265150D03*
X121402000Y-66725150D03*
X121402000Y-64185150D03*
X121402000Y-61645150D03*
%TD*%
D27*
%TO.C,TP3*%
X117729000Y-67056000D03*
%TD*%
D24*
%TO.C,C11*%
X154194650Y-119992850D03*
X154194650Y-122067850D03*
%TD*%
%TO.C,C10*%
X151959450Y-119992850D03*
X151959450Y-122067850D03*
%TD*%
D39*
%TO.C,J4*%
X126278000Y-109347000D03*
D40*
X128778000Y-109347000D03*
X131278000Y-109347000D03*
X133778000Y-109347000D03*
%TD*%
D41*
%TO.C,U4*%
X182388000Y-55816000D03*
D42*
X184928000Y-72476000D03*
D43*
X182388000Y-72476000D03*
X179848000Y-72476000D03*
%TD*%
D39*
%TO.C,J3*%
X156921000Y-40784000D03*
D40*
X159421000Y-40784000D03*
X161921000Y-40784000D03*
X164421000Y-40784000D03*
%TD*%
M02*
